{"glyphs":{"0":{"ha":770,"x_min":45,"x_max":726,"o":"m 385 129 q 236 264 270 129 q 225 369 225 311 q 331 593 225 551 q 388 604 358 604 q 537 454 509 605 q 545 365 545 414 q 442 140 545 184 q 385 129 415 129 m 392 753 q 99 595 190 753 q 45 365 45 499 q 203 22 45 113 q 382 -20 279 -20 q 670 137 579 -20 q 726 370 726 235 q 557 716 726 631 q 392 753 487 753 z "},"1":{"ha":572,"x_min":38,"x_max":532,"o":"m 92 498 l 237 556 l 237 136 l 100 136 l 100 0 l 532 0 l 532 136 l 416 136 l 416 732 l 250 732 l 38 639 l 92 498 z "},"2":{"ha":614,"x_min":26,"x_max":560,"o":"m 560 0 l 560 149 l 300 149 l 338 194 q 378 240 350 209 q 521 433 490 365 q 543 522 543 480 q 433 713 543 648 q 285 753 366 753 q 56 650 144 753 q 26 608 39 629 l 152 530 q 267 601 197 597 q 354 552 328 601 q 363 507 363 530 q 283 359 363 449 q 236 308 269 343 q 205 275 214 286 l 42 100 l 42 0 l 560 0 z "},"3":{"ha":629,"x_min":9,"x_max":582,"o":"m 278 -203 q 517 -103 431 -203 q 582 84 582 -27 q 487 269 582 202 q 410 307 452 293 q 544 458 515 350 q 552 517 552 487 q 437 716 552 651 q 288 753 370 753 q 64 651 148 753 q 34 608 46 631 l 159 529 q 274 604 205 604 q 362 545 336 604 q 373 488 373 519 q 277 363 373 387 q 224 358 254 358 l 174 358 l 174 220 l 244 220 q 389 140 353 220 q 401 81 401 111 q 315 -42 401 -19 q 271 -47 293 -47 q 103 15 179 -46 l 9 -109 q 278 -203 132 -203 z "},"4":{"ha":685,"x_min":19,"x_max":671,"o":"m 567 -183 l 567 7 l 671 7 l 671 156 l 567 156 l 567 732 l 400 732 l 19 134 l 42 7 l 388 7 l 388 -183 l 567 -183 m 388 156 l 180 156 l 388 479 l 388 156 z "},"5":{"ha":646,"x_min":43,"x_max":612,"o":"m 296 -203 q 567 -58 483 -203 q 612 118 612 20 q 518 332 612 251 q 313 403 437 401 l 282 403 l 282 583 l 559 585 l 559 734 l 103 732 l 103 252 q 224 266 159 266 q 410 172 369 266 q 422 114 422 144 q 331 -37 422 -3 q 270 -47 302 -47 q 118 1 194 -46 l 43 -129 q 296 -203 170 -203 z "},"6":{"ha":688,"x_min":45,"x_max":647,"o":"m 647 312 q 543 549 647 465 q 392 605 473 605 q 227 526 293 604 q 387 788 244 787 q 521 719 460 787 l 635 807 q 429 933 559 914 q 387 936 407 936 q 107 745 199 936 q 45 431 45 613 q 255 -7 45 60 q 347 -20 297 -20 q 597 117 514 -20 q 647 312 647 202 m 233 294 q 312 454 233 426 q 349 461 330 461 q 456 369 430 461 q 465 293 465 335 q 385 134 465 163 q 350 129 368 129 q 241 222 267 129 q 233 294 233 255 z "},"7":{"ha":593,"x_min":20,"x_max":579,"o":"m 579 617 l 579 734 l 20 734 l 20 564 l 372 564 q 103 -184 178 111 l 290 -182 q 579 617 380 170 z "},"8":{"ha":723,"x_min":39,"x_max":684,"o":"m 684 250 q 570 461 684 388 q 522 486 547 475 q 648 692 643 562 q 557 879 648 810 q 369 936 481 936 q 121 823 201 936 q 76 684 76 760 q 187 483 77 559 q 41 267 53 410 q 39 243 39 255 q 142 41 39 115 q 358 -20 228 -20 q 637 103 551 -20 q 684 250 684 168 m 216 267 q 282 389 216 353 q 359 408 316 408 q 492 323 460 408 q 503 263 503 294 q 429 141 503 171 q 363 129 400 129 q 224 217 254 129 q 216 267 216 241 m 251 667 q 320 779 251 754 q 369 787 343 787 q 476 699 460 787 q 479 669 479 684 q 419 553 479 585 q 365 541 396 541 q 258 620 282 541 q 251 667 251 643 z "},"9":{"ha":689,"x_min":41,"x_max":644,"o":"m 41 416 q 145 176 41 260 q 290 125 212 125 q 460 208 393 126 q 331 -52 450 -30 q 302 -54 317 -54 q 155 18 220 -54 q 151 23 152 22 l 45 -61 q 269 -201 129 -183 q 308 -203 289 -203 q 589 -5 500 -203 q 644 294 644 121 q 389 750 644 713 q 340 753 365 753 q 87 609 167 753 q 41 416 41 524 m 339 604 q 452 494 431 604 q 456 437 456 467 q 365 271 456 292 q 339 269 353 269 q 228 376 248 269 q 222 437 222 404 q 317 602 222 585 q 339 604 328 604 z "},"A":{"ha":755,"x_min":-4,"x_max":760,"o":"m 175 0 l 227 184 l 525 184 l 575 0 l 760 0 l 490 916 l 273 916 l -4 0 l 175 0 m 317 505 q 378 751 331 551 q 406 636 388 715 q 435 513 427 541 l 488 320 l 266 320 l 317 505 z "},"Æ":{"ha":1128,"x_min":-4,"x_max":1074,"o":"m 182 0 l 281 198 l 578 198 l 578 0 l 1074 0 l 1074 149 l 757 149 l 757 397 l 1023 397 l 1023 544 l 757 544 l 757 766 l 1062 766 l 1062 916 l 469 916 l -4 0 l 182 0 m 495 629 q 578 807 540 719 l 578 334 l 347 334 l 495 629 z "},"Á":{"ha":755,"x_min":-4,"x_max":760,"o":"m 175 0 l 227 184 l 525 184 l 575 0 l 760 0 l 490 916 l 273 916 l -4 0 l 175 0 m 317 505 q 378 751 331 551 q 406 636 388 715 q 435 513 427 541 l 488 320 l 266 320 l 317 505 m 617 1124 l 532 1252 l 273 1070 l 340 966 l 617 1124 z "},"Ă":{"ha":755,"x_min":-4,"x_max":760,"o":"m 175 0 l 227 184 l 525 184 l 575 0 l 760 0 l 490 916 l 273 916 l -4 0 l 175 0 m 317 505 q 378 751 331 551 q 406 636 388 715 q 435 513 427 541 l 488 320 l 266 320 l 317 505 m 179 1198 q 279 1012 178 1069 q 389 983 331 983 q 555 1061 495 983 q 598 1199 598 1118 l 484 1204 q 419 1116 477 1135 q 391 1112 404 1112 q 308 1162 335 1112 q 294 1208 297 1184 l 179 1198 z "},"Â":{"ha":755,"x_min":-4,"x_max":760,"o":"m 175 0 l 227 184 l 525 184 l 575 0 l 760 0 l 490 916 l 273 916 l -4 0 l 175 0 m 317 505 q 378 751 331 551 q 406 636 388 715 q 435 513 427 541 l 488 320 l 266 320 l 317 505 m 396 1226 l 171 1059 l 241 971 l 392 1073 l 543 968 l 618 1059 l 396 1226 z "},"Ä":{"ha":755,"x_min":-4,"x_max":760,"o":"m 175 0 l 227 184 l 525 184 l 575 0 l 760 0 l 490 916 l 273 916 l -4 0 l 175 0 m 317 505 q 378 751 331 551 q 406 636 388 715 q 435 513 427 541 l 488 320 l 266 320 l 317 505 m 340 1093 q 281 1185 340 1165 q 250 1191 264 1191 q 165 1138 189 1191 q 157 1093 157 1118 q 217 997 157 1017 q 248 991 232 991 q 330 1042 305 991 q 340 1093 340 1065 m 621 1093 q 562 1185 621 1165 q 529 1191 545 1191 q 448 1141 471 1191 q 438 1093 438 1119 q 498 997 438 1017 q 528 991 513 991 q 612 1043 587 991 q 621 1093 621 1066 z "},"À":{"ha":755,"x_min":-4,"x_max":760,"o":"m 175 0 l 227 184 l 525 184 l 575 0 l 760 0 l 490 916 l 273 916 l -4 0 l 175 0 m 317 505 q 378 751 331 551 q 406 636 388 715 q 435 513 427 541 l 488 320 l 266 320 l 317 505 m 206 1124 l 292 1252 l 551 1070 l 483 966 l 206 1124 z "},"Ā":{"ha":755,"x_min":-4,"x_max":760,"o":"m 175 0 l 227 184 l 525 184 l 575 0 l 760 0 l 490 916 l 273 916 l -4 0 l 175 0 m 317 505 q 378 751 331 551 q 406 636 388 715 q 435 513 427 541 l 488 320 l 266 320 l 317 505 m 199 1158 l 199 1023 l 579 1023 l 579 1158 l 199 1158 z "},"Ą":{"ha":755,"x_min":-4,"x_max":774,"o":"m 175 0 l 227 184 l 525 184 l 575 0 l 583 0 q 492 -153 494 -76 q 600 -283 492 -256 q 666 -292 631 -292 q 774 -275 722 -292 l 766 -159 q 715 -167 739 -167 q 643 -121 650 -167 q 642 -111 642 -115 q 760 0 644 -42 l 490 916 l 273 916 l -4 0 l 175 0 m 317 505 q 378 751 331 551 q 406 636 388 715 q 435 513 427 541 l 488 320 l 266 320 l 317 505 z "},"Å":{"ha":755,"x_min":-4,"x_max":760,"o":"m 175 0 l 227 184 l 525 184 l 575 0 l 760 0 l 491 911 q 551 1044 549 960 q 465 1190 551 1149 q 391 1207 430 1207 q 256 1142 305 1207 q 225 1042 225 1099 q 277 916 227 960 l 273 916 l -4 0 l 175 0 m 317 505 q 378 751 331 551 q 406 636 388 715 q 435 513 427 541 l 488 320 l 266 320 l 317 505 m 330 1042 q 372 1105 330 1093 q 388 1108 381 1108 q 442 1069 429 1108 q 446 1042 446 1055 q 404 978 446 990 q 388 975 395 975 q 334 1015 347 975 q 330 1042 330 1028 z "},"Ã":{"ha":755,"x_min":-4,"x_max":760,"o":"m 175 0 l 227 184 l 525 184 l 575 0 l 760 0 l 490 916 l 273 916 l -4 0 l 175 0 m 317 505 q 378 751 331 551 q 406 636 388 715 q 435 513 427 541 l 488 320 l 266 320 l 317 505 m 475 1128 q 380 1160 446 1128 q 296 1183 330 1183 q 145 1105 227 1183 q 137 1097 141 1101 l 209 1013 q 302 1054 263 1054 q 404 1023 331 1054 q 491 1000 457 1000 q 643 1090 576 1001 l 571 1169 q 475 1128 532 1130 z "},"B":{"ha":728,"x_min":81,"x_max":688,"o":"m 688 269 q 593 446 688 382 q 502 484 552 473 q 639 608 600 513 q 655 689 655 648 q 491 901 655 849 q 345 921 426 921 q 81 916 235 921 l 81 0 q 282 -7 201 -7 q 666 151 597 -7 q 688 269 688 202 m 340 772 q 472 696 450 772 q 476 663 476 680 q 404 548 476 575 q 355 540 381 540 l 260 540 l 260 769 q 340 772 317 772 m 346 142 q 260 148 301 142 l 260 401 l 368 401 q 503 312 480 401 q 507 273 507 293 q 388 145 507 163 q 346 142 368 142 z "},"C":{"ha":739,"x_min":41,"x_max":730,"o":"m 444 140 q 251 298 298 140 q 231 456 231 366 q 345 764 231 703 q 412 780 376 780 q 555 656 514 777 l 730 697 q 487 929 675 897 q 414 936 452 936 q 141 803 245 936 q 41 454 41 671 q 184 66 41 195 q 418 -20 282 -20 q 711 73 563 -19 l 644 203 q 444 140 534 140 z "},"Ć":{"ha":739,"x_min":41,"x_max":730,"o":"m 444 140 q 251 298 298 140 q 231 456 231 366 q 345 764 231 703 q 412 780 376 780 q 555 656 514 777 l 730 697 q 487 929 675 897 q 414 936 452 936 q 141 803 245 936 q 41 454 41 671 q 184 66 41 195 q 418 -20 282 -20 q 711 73 563 -19 l 644 203 q 444 140 534 140 m 637 1124 l 552 1252 l 293 1070 l 361 966 l 637 1124 z "},"Č":{"ha":739,"x_min":41,"x_max":730,"o":"m 444 140 q 251 298 298 140 q 231 456 231 366 q 345 764 231 703 q 412 780 376 780 q 555 656 514 777 l 730 697 q 487 929 675 897 q 414 936 452 936 q 141 803 245 936 q 41 454 41 671 q 184 66 41 195 q 418 -20 282 -20 q 711 73 563 -19 l 644 203 q 444 140 534 140 m 408 966 l 635 1142 l 567 1227 l 414 1119 l 258 1230 l 183 1142 l 408 966 z "},"Ç":{"ha":739,"x_min":41,"x_max":730,"o":"m 366 -298 q 549 -218 495 -298 q 571 -148 571 -186 q 487 -22 571 -68 q 477 -16 481 -19 q 711 73 594 0 l 644 203 q 444 140 534 140 q 251 298 298 140 q 231 456 231 366 q 345 764 231 703 q 412 780 376 780 q 555 656 514 777 l 730 697 q 487 929 675 897 q 414 936 452 936 q 141 803 245 936 q 41 454 41 671 q 184 66 41 197 q 357 -15 259 1 q 438 -106 434 -54 q 345 -172 435 -171 q 296 -168 320 -172 l 293 -290 q 366 -298 330 -298 z "},"D":{"ha":788,"x_min":81,"x_max":750,"o":"m 81 916 l 81 0 q 270 -3 83 0 q 343 -4 313 -4 q 712 225 621 -9 q 750 456 750 324 q 548 880 750 781 q 347 920 463 921 q 214 917 307 920 q 81 916 122 916 m 345 148 l 260 148 l 260 768 l 347 768 q 557 518 536 768 q 560 454 560 487 q 419 159 560 202 q 345 148 385 148 z "},"Ď":{"ha":788,"x_min":81,"x_max":750,"o":"m 81 916 l 81 0 q 270 -3 83 0 q 343 -4 313 -4 q 712 225 621 -9 q 750 456 750 324 q 548 880 750 781 q 347 920 463 921 q 214 917 307 920 q 81 916 122 916 m 345 148 l 260 148 l 260 768 l 347 768 q 557 518 536 768 q 560 454 560 487 q 419 159 560 202 q 345 148 385 148 m 366 966 l 593 1142 l 525 1227 l 372 1119 l 216 1230 l 141 1142 l 366 966 z "},"Đ":{"ha":803,"x_min":4,"x_max":765,"o":"m 4 538 l 4 403 l 96 403 l 96 0 q 285 -3 98 0 q 358 -4 328 -4 q 727 225 636 -9 q 765 456 765 324 q 563 880 765 781 q 362 920 477 921 q 229 917 321 920 q 96 916 137 916 l 96 538 l 4 538 m 359 148 l 275 148 l 275 403 l 422 403 l 422 538 l 275 538 l 275 768 l 362 768 q 572 518 551 768 q 575 454 575 487 q 434 159 575 202 q 359 148 400 148 z "},"E":{"ha":632,"x_min":81,"x_max":578,"o":"m 578 149 l 260 149 l 260 397 l 526 397 l 526 544 l 260 544 l 260 766 l 566 766 l 566 916 l 81 916 l 81 0 l 578 0 l 578 149 z "},"É":{"ha":632,"x_min":81,"x_max":578,"o":"m 578 149 l 260 149 l 260 397 l 526 397 l 526 544 l 260 544 l 260 766 l 566 766 l 566 916 l 81 916 l 81 0 l 578 0 l 578 149 m 544 1124 l 458 1252 l 199 1070 l 267 966 l 544 1124 z "},"Ě":{"ha":632,"x_min":81,"x_max":578,"o":"m 578 149 l 260 149 l 260 397 l 526 397 l 526 544 l 260 544 l 260 766 l 566 766 l 566 916 l 81 916 l 81 0 l 578 0 l 578 149 m 315 966 l 541 1142 l 473 1227 l 320 1119 l 164 1230 l 90 1142 l 315 966 z "},"Ê":{"ha":632,"x_min":81,"x_max":578,"o":"m 578 149 l 260 149 l 260 397 l 526 397 l 526 544 l 260 544 l 260 766 l 566 766 l 566 916 l 81 916 l 81 0 l 578 0 l 578 149 m 323 1226 l 98 1059 l 168 971 l 319 1073 l 469 968 l 545 1059 l 323 1226 z "},"Ë":{"ha":632,"x_min":81,"x_max":578,"o":"m 578 149 l 260 149 l 260 397 l 526 397 l 526 544 l 260 544 l 260 766 l 566 766 l 566 916 l 81 916 l 81 0 l 578 0 l 578 149 m 267 1093 q 208 1185 267 1165 q 176 1191 191 1191 q 92 1138 115 1191 q 84 1093 84 1118 q 144 997 84 1017 q 175 991 159 991 q 256 1042 232 991 q 267 1093 267 1065 m 548 1093 q 488 1185 548 1165 q 456 1191 472 1191 q 374 1141 397 1191 q 365 1093 365 1119 q 425 997 365 1017 q 454 991 439 991 q 538 1043 514 991 q 548 1093 548 1066 z "},"Ė":{"ha":632,"x_min":81,"x_max":578,"o":"m 578 149 l 260 149 l 260 397 l 526 397 l 526 544 l 260 544 l 260 766 l 566 766 l 566 916 l 81 916 l 81 0 l 578 0 l 578 149 m 315 978 q 411 1035 381 978 q 425 1096 425 1062 q 358 1202 425 1176 q 316 1210 338 1210 q 220 1154 248 1210 q 208 1096 208 1127 q 274 986 208 1012 q 315 978 294 978 z "},"È":{"ha":632,"x_min":81,"x_max":578,"o":"m 578 149 l 260 149 l 260 397 l 526 397 l 526 544 l 260 544 l 260 766 l 566 766 l 566 916 l 81 916 l 81 0 l 578 0 l 578 149 m 133 1124 l 218 1252 l 477 1070 l 410 966 l 133 1124 z "},"Ē":{"ha":632,"x_min":81,"x_max":578,"o":"m 578 149 l 260 149 l 260 397 l 526 397 l 526 544 l 260 544 l 260 766 l 566 766 l 566 916 l 81 916 l 81 0 l 578 0 l 578 149 m 126 1158 l 126 1023 l 506 1023 l 506 1158 l 126 1158 z "},"Ę":{"ha":632,"x_min":81,"x_max":593,"o":"m 578 149 l 260 149 l 260 397 l 526 397 l 526 544 l 260 544 l 260 766 l 566 766 l 566 916 l 81 916 l 81 0 l 401 0 q 311 -153 312 -76 q 418 -283 311 -256 q 484 -292 449 -292 q 593 -275 540 -292 l 585 -159 q 533 -167 557 -167 q 461 -121 468 -167 q 460 -111 460 -115 q 578 0 463 -42 l 578 149 z "},"Ð":{"ha":803,"x_min":4,"x_max":765,"o":"m 4 538 l 4 403 l 96 403 l 96 0 q 285 -3 98 0 q 358 -4 328 -4 q 727 225 636 -9 q 765 456 765 324 q 563 880 765 781 q 362 920 477 921 q 229 917 321 920 q 96 916 137 916 l 96 538 l 4 538 m 359 148 l 275 148 l 275 403 l 422 403 l 422 538 l 275 538 l 275 768 l 362 768 q 572 518 551 768 q 575 454 575 487 q 434 159 575 202 q 359 148 400 148 z "},"€":{"ha":772,"x_min":41,"x_max":751,"o":"m 745 57 l 669 186 q 502 142 586 142 q 330 294 372 145 l 562 294 l 586 416 l 312 416 q 311 456 311 430 l 311 487 l 610 487 l 635 609 l 326 609 q 468 774 359 762 q 486 776 477 776 q 625 686 567 774 l 751 792 q 543 933 681 910 q 488 937 515 937 q 203 770 305 937 q 140 609 160 699 l 41 609 l 41 487 l 125 487 q 123 454 123 475 q 125 416 123 429 l 41 416 l 41 294 l 141 294 q 334 14 190 87 q 476 -19 397 -19 q 745 57 617 -18 z "},"F":{"ha":590,"x_min":81,"x_max":563,"o":"m 563 916 l 81 916 l 81 0 l 260 0 l 260 382 l 524 382 l 524 529 l 260 529 l 260 766 l 563 766 l 563 916 z "},"G":{"ha":792,"x_min":41,"x_max":735,"o":"m 734 53 l 734 480 l 407 480 l 407 331 l 555 331 l 555 155 q 445 136 494 136 q 236 369 263 136 q 231 456 231 410 q 359 770 231 720 q 418 781 387 781 q 566 656 522 779 l 735 697 q 541 917 690 863 q 419 937 486 937 q 141 802 245 937 q 41 454 41 670 q 225 30 41 140 q 423 -20 309 -20 q 734 53 582 -19 z "},"Ğ":{"ha":792,"x_min":41,"x_max":735,"o":"m 734 53 l 734 480 l 407 480 l 407 331 l 555 331 l 555 155 q 445 136 494 136 q 236 369 263 136 q 231 456 231 410 q 359 770 231 720 q 418 781 387 781 q 566 656 522 779 l 735 697 q 541 917 690 863 q 419 937 486 937 q 141 802 245 937 q 41 454 41 670 q 225 30 41 140 q 423 -20 309 -20 q 734 53 582 -19 m 205 1198 q 305 1012 203 1069 q 415 983 357 983 q 581 1061 521 983 q 624 1199 624 1118 l 510 1204 q 445 1116 503 1135 q 416 1112 430 1112 q 334 1162 361 1112 q 320 1208 323 1184 l 205 1198 z "},"H":{"ha":821,"x_min":81,"x_max":739,"o":"m 560 0 l 739 0 l 739 916 l 560 916 l 560 547 l 260 547 l 260 916 l 81 916 l 81 0 l 260 0 l 260 397 l 560 397 l 560 0 z "},"I":{"ha":342,"x_min":81,"x_max":260,"o":"m 81 916 l 81 0 l 260 0 l 260 916 l 81 916 z "},"Í":{"ha":342,"x_min":54,"x_max":399,"o":"m 81 916 l 81 0 l 260 0 l 260 916 l 81 916 m 399 1124 l 313 1252 l 54 1070 l 122 966 l 399 1124 z "},"Î":{"ha":342,"x_min":-30,"x_max":377,"o":"m 175 1226 l -30 1059 l 41 971 l 171 1072 l 301 968 l 377 1059 l 175 1226 m 81 916 l 81 0 l 260 0 l 260 916 l 81 916 z "},"Ï":{"ha":342,"x_min":-47,"x_max":389,"o":"m 136 1093 q 76 1185 136 1165 q 45 1191 60 1191 q -39 1138 -16 1191 q -47 1093 -47 1118 q 12 997 -47 1017 q 43 991 28 991 q 125 1042 100 991 q 136 1093 136 1065 m 389 1093 q 330 1185 389 1165 q 297 1191 313 1191 q 216 1141 239 1191 q 206 1093 206 1119 q 266 997 206 1017 q 296 991 281 991 q 380 1043 355 991 q 389 1093 389 1066 m 81 916 l 81 0 l 260 0 l 260 916 l 81 916 z "},"İ":{"ha":342,"x_min":62,"x_max":279,"o":"m 81 916 l 81 0 l 260 0 l 260 916 l 81 916 m 170 985 q 266 1042 236 985 q 279 1103 279 1069 q 213 1208 279 1183 q 171 1217 193 1217 q 75 1161 103 1217 q 62 1103 62 1134 q 129 993 62 1019 q 170 985 149 985 z "},"Ì":{"ha":342,"x_min":-12,"x_max":332,"o":"m 81 916 l 81 0 l 260 0 l 260 916 l 81 916 m -12 1124 l 73 1252 l 332 1070 l 264 966 l -12 1124 z "},"Ī":{"ha":342,"x_min":1,"x_max":340,"o":"m 1 1158 l 1 1023 l 340 1023 l 340 1158 l 1 1158 m 81 916 l 81 0 l 260 0 l 260 916 l 81 916 z "},"Į":{"ha":342,"x_min":-7,"x_max":275,"o":"m 81 916 l 81 0 l 84 0 q -7 -153 -5 -76 q 100 -283 -7 -256 q 167 -292 132 -292 q 275 -275 222 -292 l 267 -159 q 216 -167 240 -167 q 144 -121 151 -167 q 142 -111 142 -115 q 260 0 145 -42 l 260 916 l 81 916 z "},"J":{"ha":419,"x_min":-23,"x_max":358,"o":"m 138 -20 q 327 77 269 -20 q 358 205 358 132 l 358 916 l 179 916 l 179 228 q 104 130 178 132 q 14 155 65 132 l -23 18 q 138 -20 61 -20 z "},"K":{"ha":757,"x_min":81,"x_max":757,"o":"m 750 122 q 673 165 696 119 l 525 486 l 739 916 l 560 916 l 389 553 l 260 553 l 260 916 l 81 916 l 81 0 l 260 0 l 260 404 l 382 404 l 517 96 q 678 -20 568 -19 q 757 -9 712 -20 l 750 122 z "},"L":{"ha":560,"x_min":75,"x_max":547,"o":"m 547 0 l 547 149 l 254 149 l 254 916 l 75 916 l 75 0 l 547 0 z "},"Ĺ":{"ha":560,"x_min":46,"x_max":547,"o":"m 547 0 l 547 149 l 254 149 l 254 916 l 75 916 l 75 0 l 547 0 m 391 1124 l 305 1252 l 46 1070 l 114 966 l 391 1124 z "},"Ľ":{"ha":560,"x_min":75,"x_max":552,"o":"m 547 0 l 547 149 l 254 149 l 254 916 l 75 916 l 75 0 l 547 0 m 552 827 q 491 929 552 905 q 454 936 472 936 q 370 884 396 936 q 359 833 361 861 q 411 751 359 774 q 426 746 419 747 q 363 610 416 701 q 362 606 362 608 l 420 570 q 548 789 525 680 q 552 827 552 810 z "},"Ł":{"ha":567,"x_min":-39,"x_max":547,"o":"m 547 0 l 547 149 l 254 149 l 254 412 l 420 480 l 372 600 l 254 551 l 254 916 l 75 916 l 75 477 l -39 431 l 9 312 l 75 339 l 75 0 l 547 0 z "},"M":{"ha":1017,"x_min":31,"x_max":983,"o":"m 195 0 l 243 525 q 256 662 252 632 q 286 529 277 564 l 415 28 l 582 34 l 718 522 q 753 669 735 587 q 762 526 758 566 l 807 0 l 983 0 l 878 916 l 677 916 l 534 363 q 509 247 524 326 q 488 357 492 342 l 347 916 l 140 916 l 31 0 l 195 0 z "},"N":{"ha":830,"x_min":81,"x_max":749,"o":"m 749 0 l 749 916 l 585 916 l 585 331 l 235 928 l 81 916 l 81 0 l 245 0 l 245 587 l 602 -14 l 749 0 z "},"Ń":{"ha":830,"x_min":81,"x_max":749,"o":"m 749 0 l 749 916 l 585 916 l 585 331 l 235 928 l 81 916 l 81 0 l 245 0 l 245 587 l 602 -14 l 749 0 m 636 1124 l 551 1252 l 292 1070 l 359 966 l 636 1124 z "},"Ň":{"ha":830,"x_min":81,"x_max":749,"o":"m 749 0 l 749 916 l 585 916 l 585 331 l 235 928 l 81 916 l 81 0 l 245 0 l 245 587 l 602 -14 l 749 0 m 407 966 l 633 1142 l 566 1227 l 412 1119 l 256 1230 l 182 1142 l 407 966 z "},"Ñ":{"ha":830,"x_min":81,"x_max":749,"o":"m 749 0 l 749 916 l 585 916 l 585 331 l 235 928 l 81 916 l 81 0 l 245 0 l 245 587 l 602 -14 l 749 0 m 494 1128 q 399 1160 465 1128 q 315 1183 349 1183 q 164 1105 245 1183 q 156 1097 160 1101 l 228 1013 q 321 1054 282 1054 q 423 1023 350 1054 q 510 1000 476 1000 q 662 1090 595 1001 l 590 1169 q 494 1128 551 1130 z "},"O":{"ha":844,"x_min":43,"x_max":800,"o":"m 800 456 q 646 865 800 745 q 425 936 556 936 q 109 749 209 936 q 43 454 43 627 q 194 53 43 175 q 422 -20 286 -20 q 743 175 646 -20 q 800 456 800 293 m 233 456 q 330 749 233 673 q 425 780 372 780 q 597 595 559 780 q 610 454 610 532 q 510 161 610 233 q 422 136 471 136 q 245 319 285 136 q 233 456 233 381 z "},"Œ":{"ha":1092,"x_min":43,"x_max":1038,"o":"m 450 -14 q 606 -3 460 -14 q 658 0 636 0 l 1038 0 l 1038 149 l 720 149 l 720 397 l 986 397 l 986 544 l 720 544 l 720 766 l 1025 766 l 1025 916 l 633 916 q 559 921 613 916 q 456 929 488 929 q 66 647 142 929 q 43 454 43 562 q 396 -11 43 20 q 450 -14 422 -14 m 449 142 q 233 456 235 148 q 449 773 237 770 q 541 761 494 773 l 541 152 q 449 142 494 142 z "},"Ó":{"ha":844,"x_min":43,"x_max":800,"o":"m 800 456 q 646 865 800 745 q 425 936 556 936 q 109 749 209 936 q 43 454 43 627 q 194 53 43 175 q 422 -20 286 -20 q 743 175 646 -20 q 800 456 800 293 m 233 456 q 330 749 233 673 q 425 780 372 780 q 597 595 559 780 q 610 454 610 532 q 510 161 610 233 q 422 136 471 136 q 245 319 285 136 q 233 456 233 381 m 652 1118 l 567 1245 l 308 1063 l 376 959 l 652 1118 z "},"Ô":{"ha":844,"x_min":43,"x_max":800,"o":"m 800 456 q 646 865 800 745 q 425 936 556 936 q 109 749 209 936 q 43 454 43 627 q 194 53 43 175 q 422 -20 286 -20 q 743 175 646 -20 q 800 456 800 293 m 233 456 q 330 749 233 673 q 425 780 372 780 q 597 595 559 780 q 610 454 610 532 q 510 161 610 233 q 422 136 471 136 q 245 319 285 136 q 233 456 233 381 m 431 1219 l 206 1053 l 277 964 l 427 1066 l 578 962 l 654 1053 l 431 1219 z "},"Ö":{"ha":844,"x_min":43,"x_max":800,"o":"m 800 456 q 646 865 800 745 q 425 936 556 936 q 109 749 209 936 q 43 454 43 627 q 194 53 43 175 q 422 -20 286 -20 q 743 175 646 -20 q 800 456 800 293 m 233 456 q 330 749 233 673 q 425 780 372 780 q 597 595 559 780 q 610 454 610 532 q 510 161 610 233 q 422 136 471 136 q 245 319 285 136 q 233 456 233 381 m 376 1086 q 316 1179 376 1158 q 285 1184 300 1184 q 201 1131 224 1184 q 193 1086 193 1111 q 252 990 193 1010 q 283 985 267 985 q 365 1035 340 985 q 376 1086 376 1058 m 656 1086 q 597 1179 656 1158 q 564 1184 581 1184 q 483 1134 506 1184 q 473 1086 473 1112 q 533 990 473 1010 q 563 985 548 985 q 647 1036 623 985 q 656 1086 656 1059 z "},"Ò":{"ha":844,"x_min":43,"x_max":800,"o":"m 800 456 q 646 865 800 745 q 425 936 556 936 q 109 749 209 936 q 43 454 43 627 q 194 53 43 175 q 422 -20 286 -20 q 743 175 646 -20 q 800 456 800 293 m 233 456 q 330 749 233 673 q 425 780 372 780 q 597 595 559 780 q 610 454 610 532 q 510 161 610 233 q 422 136 471 136 q 245 319 285 136 q 233 456 233 381 m 241 1118 l 327 1245 l 586 1063 l 518 959 l 241 1118 z "},"Ő":{"ha":844,"x_min":43,"x_max":804,"o":"m 800 456 q 646 865 800 745 q 425 936 556 936 q 109 749 209 936 q 43 454 43 627 q 194 53 43 175 q 422 -20 286 -20 q 743 175 646 -20 q 800 456 800 293 m 233 456 q 330 749 233 673 q 425 780 372 780 q 597 595 559 780 q 610 454 610 532 q 510 161 610 233 q 422 136 471 136 q 245 319 285 136 q 233 456 233 381 m 514 1131 l 425 1240 l 197 1046 l 269 959 l 514 1131 m 804 1131 l 715 1240 l 487 1046 l 559 959 l 804 1131 z "},"Ō":{"ha":844,"x_min":43,"x_max":800,"o":"m 800 456 q 646 865 800 745 q 425 936 556 936 q 109 749 209 936 q 43 454 43 627 q 194 53 43 175 q 422 -20 286 -20 q 743 175 646 -20 q 800 456 800 293 m 233 456 q 330 749 233 673 q 425 780 372 780 q 597 595 559 780 q 610 454 610 532 q 510 161 610 233 q 422 136 471 136 q 245 319 285 136 q 233 456 233 381 m 235 1152 l 235 1016 l 614 1016 l 614 1152 l 235 1152 z "},"Ø":{"ha":844,"x_min":43,"x_max":800,"o":"m 566 1039 l 524 925 q 425 936 475 936 q 109 749 209 936 q 43 454 43 627 q 190 57 43 179 q 206 45 199 50 l 159 -85 l 271 -119 l 312 -7 q 422 -20 369 -20 q 743 175 646 -20 q 800 456 800 293 q 650 864 800 741 q 631 878 639 872 l 677 1005 l 566 1039 m 233 456 q 330 749 233 673 q 425 780 372 780 q 469 773 448 780 l 274 233 q 233 456 233 317 m 422 136 q 366 145 391 136 l 564 692 q 610 454 610 608 q 510 161 610 233 q 422 136 471 136 z "},"Õ":{"ha":844,"x_min":43,"x_max":800,"o":"m 800 456 q 646 865 800 745 q 425 936 556 936 q 109 749 209 936 q 43 454 43 627 q 194 53 43 175 q 422 -20 286 -20 q 743 175 646 -20 q 800 456 800 293 m 233 456 q 330 749 233 673 q 425 780 372 780 q 597 595 559 780 q 610 454 610 532 q 510 161 610 233 q 422 136 471 136 q 245 319 285 136 q 233 456 233 381 m 510 1122 q 415 1153 481 1122 q 331 1176 365 1176 q 180 1099 262 1176 q 172 1090 176 1095 l 244 1006 q 338 1047 298 1047 q 439 1016 366 1047 q 526 993 492 993 q 678 1084 612 994 l 606 1162 q 510 1122 567 1123 z "},"P":{"ha":697,"x_min":88,"x_max":677,"o":"m 267 0 l 267 334 l 351 334 q 636 477 553 334 q 677 639 677 548 q 536 879 677 804 q 350 921 454 921 q 88 916 241 921 l 88 0 l 267 0 m 353 772 q 494 620 492 769 q 410 490 494 514 q 365 483 389 483 l 267 483 l 267 769 q 353 772 324 772 z "},"Q":{"ha":831,"x_min":43,"x_max":800,"o":"m 800 456 q 646 865 800 745 q 425 936 556 936 q 109 749 209 936 q 43 454 43 627 q 197 52 43 172 q 406 -20 282 -16 q 548 -198 415 -165 q 779 -179 644 -224 l 746 -35 q 572 -4 595 -87 q 570 8 571 3 q 787 307 741 80 q 800 456 800 377 m 233 456 q 330 749 233 673 q 425 780 372 780 q 597 595 559 780 q 610 454 610 532 q 510 161 610 233 q 422 136 471 136 q 245 319 285 136 q 233 456 233 381 z "},"R":{"ha":732,"x_min":88,"x_max":712,"o":"m 267 0 l 267 345 l 351 345 l 357 345 l 472 96 q 613 -18 521 -8 q 635 -19 624 -19 q 712 -9 677 -19 l 705 122 q 686 121 697 121 q 632 157 650 122 l 522 381 q 674 585 647 442 q 681 650 681 617 q 496 901 681 844 q 347 921 430 921 q 88 916 241 921 l 88 0 l 267 0 m 353 772 q 496 662 483 772 q 498 631 498 647 q 425 505 498 536 q 365 494 397 494 l 267 494 l 267 769 q 353 772 324 772 z "},"Ŕ":{"ha":732,"x_min":88,"x_max":712,"o":"m 267 0 l 267 345 l 357 345 l 472 96 q 613 -18 521 -8 q 635 -19 624 -19 q 712 -9 677 -19 l 705 122 q 686 121 697 121 q 632 157 650 122 l 522 381 q 674 585 647 442 q 681 650 681 617 q 496 901 681 844 q 347 921 430 921 q 88 916 241 921 l 88 0 l 267 0 m 353 772 q 496 662 483 772 q 498 631 498 647 q 425 505 498 536 q 365 494 397 494 l 267 494 l 267 769 q 353 772 324 772 m 575 1124 l 490 1252 l 231 1070 l 298 966 l 575 1124 z "},"Ř":{"ha":732,"x_min":88,"x_max":712,"o":"m 267 0 l 267 345 l 357 345 l 472 96 q 613 -18 521 -8 q 635 -19 624 -19 q 712 -9 677 -19 l 705 122 q 686 121 697 121 q 632 157 650 122 l 522 381 q 674 585 647 442 q 681 650 681 617 q 496 901 681 844 q 347 921 430 921 q 88 916 241 921 l 88 0 l 267 0 m 353 772 q 496 662 483 772 q 498 631 498 647 q 425 505 498 536 q 365 494 397 494 l 267 494 l 267 769 q 353 772 324 772 m 346 966 l 572 1142 l 505 1227 l 351 1119 l 195 1230 l 121 1142 l 346 966 z "},"S":{"ha":666,"x_min":47,"x_max":628,"o":"m 628 267 q 494 490 628 412 q 357 552 473 502 q 244 639 263 593 q 237 674 237 656 q 304 777 237 751 q 349 785 326 785 q 481 715 433 785 q 491 701 487 708 l 623 772 q 445 924 579 888 q 354 936 400 936 q 132 849 218 936 q 58 663 58 774 q 191 433 58 511 q 327 369 213 419 q 439 283 420 328 q 446 245 446 264 q 382 145 446 172 q 331 136 358 136 q 115 201 217 137 l 47 75 q 328 -20 178 -20 q 567 83 481 -20 q 628 267 628 159 z "},"Ś":{"ha":666,"x_min":47,"x_max":628,"o":"m 628 267 q 494 490 628 412 q 357 552 473 502 q 244 639 263 593 q 237 674 237 656 q 304 777 237 751 q 349 785 326 785 q 481 715 433 785 q 491 701 487 708 l 623 772 q 445 924 579 888 q 354 936 400 936 q 132 849 218 936 q 58 663 58 774 q 191 433 58 511 q 327 369 213 419 q 439 283 420 328 q 446 245 446 264 q 382 145 446 172 q 331 136 358 136 q 115 201 217 137 l 47 75 q 328 -20 178 -20 q 567 83 481 -20 q 628 267 628 159 m 578 1124 l 492 1252 l 233 1070 l 301 966 l 578 1124 z "},"Š":{"ha":666,"x_min":47,"x_max":628,"o":"m 628 267 q 494 490 628 412 q 357 552 473 502 q 244 639 263 593 q 237 674 237 656 q 304 777 237 751 q 349 785 326 785 q 481 715 433 785 q 491 701 487 708 l 623 772 q 445 924 579 888 q 354 936 400 936 q 132 849 218 936 q 58 663 58 774 q 191 433 58 511 q 327 369 213 419 q 439 283 420 328 q 446 245 446 264 q 382 145 446 172 q 331 136 358 136 q 115 201 217 137 l 47 75 q 328 -20 178 -20 q 567 83 481 -20 q 628 267 628 159 m 349 966 l 575 1142 l 507 1227 l 354 1119 l 198 1230 l 123 1142 l 349 966 z "},"T":{"ha":574,"x_min":7,"x_max":567,"o":"m 7 916 l 7 766 l 194 766 l 194 0 l 373 0 l 373 766 l 567 766 l 567 916 l 7 916 z "},"Ť":{"ha":574,"x_min":7,"x_max":567,"o":"m 7 916 l 7 766 l 194 766 l 194 0 l 373 0 l 373 766 l 567 766 l 567 916 l 7 916 m 286 966 l 513 1142 l 445 1227 l 292 1119 l 136 1230 l 61 1142 l 286 966 z "},"Þ":{"ha":704,"x_min":88,"x_max":677,"o":"m 351 168 q 636 312 553 168 q 677 473 677 382 q 536 713 677 639 q 350 755 454 755 l 267 755 l 267 916 l 88 916 l 88 0 l 267 0 l 267 168 l 351 168 m 353 606 q 494 454 492 604 q 410 324 494 349 q 365 317 389 317 l 267 317 l 267 606 l 353 606 z "},"U":{"ha":788,"x_min":61,"x_max":727,"o":"m 727 350 l 727 916 l 548 916 l 548 359 q 420 137 548 156 q 392 136 407 136 q 247 262 270 136 q 240 342 240 297 l 240 916 l 61 916 l 61 349 q 354 -19 61 0 q 387 -20 370 -20 q 688 148 606 -20 q 727 350 727 232 z "},"Ú":{"ha":788,"x_min":61,"x_max":727,"o":"m 727 350 l 727 916 l 548 916 l 548 359 q 420 137 548 156 q 392 136 407 136 q 247 262 270 136 q 240 342 240 297 l 240 916 l 61 916 l 61 349 q 354 -19 61 0 q 387 -20 370 -20 q 688 148 606 -20 q 727 350 727 232 m 623 1124 l 537 1252 l 278 1070 l 346 966 l 623 1124 z "},"Û":{"ha":788,"x_min":61,"x_max":727,"o":"m 727 350 l 727 916 l 548 916 l 548 359 q 420 137 548 156 q 392 136 407 136 q 247 262 270 136 q 240 342 240 297 l 240 916 l 61 916 l 61 349 q 354 -19 61 0 q 387 -20 370 -20 q 688 148 606 -20 q 727 350 727 232 m 401 1226 l 176 1059 l 247 971 l 397 1073 l 548 968 l 624 1059 l 401 1226 z "},"Ü":{"ha":788,"x_min":61,"x_max":727,"o":"m 727 350 l 727 916 l 548 916 l 548 359 q 420 137 548 156 q 392 136 407 136 q 247 262 270 136 q 240 342 240 297 l 240 916 l 61 916 l 61 349 q 354 -19 61 0 q 387 -20 370 -20 q 688 148 606 -20 q 727 350 727 232 m 346 1093 q 286 1185 346 1165 q 255 1191 270 1191 q 171 1138 194 1191 q 163 1093 163 1118 q 222 997 163 1017 q 254 991 237 991 q 335 1042 311 991 q 346 1093 346 1065 m 627 1093 q 567 1185 627 1165 q 534 1191 551 1191 q 453 1141 476 1191 q 444 1093 444 1119 q 503 997 444 1017 q 533 991 518 991 q 617 1043 593 991 q 627 1093 627 1066 z "},"Ù":{"ha":788,"x_min":61,"x_max":727,"o":"m 727 350 l 727 916 l 548 916 l 548 359 q 420 137 548 156 q 392 136 407 136 q 247 262 270 136 q 240 342 240 297 l 240 916 l 61 916 l 61 349 q 354 -19 61 0 q 387 -20 370 -20 q 688 148 606 -20 q 727 350 727 232 m 212 1124 l 297 1252 l 556 1070 l 488 966 l 212 1124 z "},"Ű":{"ha":788,"x_min":61,"x_max":774,"o":"m 727 350 l 727 916 l 548 916 l 548 359 q 420 137 548 156 q 392 136 407 136 q 247 262 270 136 q 240 342 240 297 l 240 916 l 61 916 l 61 349 q 354 -19 61 0 q 387 -20 370 -20 q 688 148 606 -20 q 727 350 727 232 m 484 1138 l 395 1246 l 167 1053 l 239 966 l 484 1138 m 774 1138 l 685 1246 l 457 1053 l 529 966 l 774 1138 z "},"Ū":{"ha":788,"x_min":61,"x_max":727,"o":"m 727 350 l 727 916 l 548 916 l 548 359 q 420 137 548 156 q 392 136 407 136 q 247 262 270 136 q 240 342 240 297 l 240 916 l 61 916 l 61 349 q 354 -19 61 0 q 387 -20 370 -20 q 688 148 606 -20 q 727 350 727 232 m 205 1158 l 205 1023 l 585 1023 l 585 1158 l 205 1158 z "},"Ų":{"ha":788,"x_min":61,"x_max":727,"o":"m 727 350 l 727 916 l 548 916 l 548 359 q 420 137 548 156 q 392 136 407 136 q 247 262 270 136 q 240 342 240 297 l 240 916 l 61 916 l 61 349 q 319 -16 62 23 q 245 -153 247 -84 q 353 -283 245 -256 q 419 -292 384 -292 q 528 -275 475 -292 l 519 -159 q 468 -167 492 -167 q 396 -121 403 -167 q 395 -111 395 -115 q 491 -8 397 -47 q 719 251 682 39 q 727 350 727 298 z "},"Ů":{"ha":788,"x_min":61,"x_max":727,"o":"m 727 350 l 727 916 l 548 916 l 548 359 q 420 137 548 156 q 392 136 407 136 q 247 262 270 136 q 240 342 240 297 l 240 916 l 61 916 l 61 349 q 354 -19 61 0 q 387 -20 370 -20 q 688 148 606 -20 q 727 350 727 232 m 557 1100 q 472 1245 557 1204 q 397 1263 437 1263 q 263 1198 312 1263 q 232 1097 232 1154 q 316 948 232 991 q 391 930 351 930 q 526 997 477 930 q 557 1100 557 1042 m 336 1097 q 378 1161 336 1149 q 395 1164 388 1164 q 449 1124 435 1164 q 453 1097 453 1111 q 411 1034 453 1046 q 395 1031 401 1031 q 340 1070 354 1031 q 336 1097 336 1084 z "},"V":{"ha":757,"x_min":0,"x_max":757,"o":"m 494 0 l 757 916 l 568 916 l 435 423 q 382 180 414 347 q 328 416 350 335 l 194 916 l 0 916 l 260 0 l 494 0 z "},"W":{"ha":1139,"x_min":27,"x_max":1112,"o":"m 410 0 l 544 492 q 570 605 559 548 q 594 496 585 532 l 724 0 l 878 0 l 1112 916 l 937 916 l 834 420 q 808 259 826 378 q 780 416 791 374 l 661 887 l 488 882 l 372 420 q 342 256 365 395 q 320 416 330 373 l 213 916 l 27 916 l 251 0 l 410 0 z "},"X":{"ha":772,"x_min":7,"x_max":772,"o":"m 765 129 q 692 160 716 127 q 685 170 688 165 l 500 456 l 761 916 l 585 916 l 406 608 l 221 916 l 14 916 l 294 472 l 7 0 l 208 0 l 388 323 l 532 95 q 678 -19 597 -8 q 704 -20 690 -20 q 772 -12 736 -20 l 765 129 z "},"Y":{"ha":743,"x_min":1,"x_max":742,"o":"m 458 0 l 458 343 l 742 916 l 551 916 l 431 648 q 373 498 408 597 q 313 648 328 616 l 193 916 l 1 916 l 279 345 l 279 0 l 458 0 z "},"Ý":{"ha":743,"x_min":1,"x_max":742,"o":"m 458 0 l 458 343 l 742 916 l 551 916 l 431 648 q 373 498 408 597 q 313 648 328 616 l 193 916 l 1 916 l 279 345 l 279 0 l 458 0 m 601 1124 l 515 1252 l 256 1070 l 324 966 l 601 1124 z "},"Ÿ":{"ha":743,"x_min":1,"x_max":742,"o":"m 458 0 l 458 343 l 742 916 l 551 916 l 431 648 q 373 498 408 597 q 313 648 328 616 l 193 916 l 1 916 l 279 345 l 279 0 l 458 0 m 324 1093 q 264 1185 324 1165 q 233 1191 248 1191 q 149 1138 172 1191 q 141 1093 141 1118 q 201 997 141 1017 q 232 991 217 991 q 313 1042 289 991 q 324 1093 324 1065 m 605 1093 q 545 1185 605 1165 q 513 1191 529 1191 q 431 1141 454 1191 q 422 1093 422 1119 q 481 997 422 1017 q 511 991 496 991 q 595 1043 571 991 q 605 1093 605 1066 z "},"Z":{"ha":652,"x_min":34,"x_max":618,"o":"m 236 157 l 617 765 l 618 916 l 47 916 l 47 761 l 418 761 l 34 145 l 34 0 l 618 0 l 618 157 l 236 157 z "},"Ź":{"ha":652,"x_min":34,"x_max":618,"o":"m 236 157 l 617 765 l 618 916 l 47 916 l 47 761 l 418 761 l 34 145 l 34 0 l 618 0 l 618 157 l 236 157 m 560 1124 l 475 1252 l 216 1070 l 283 966 l 560 1124 z "},"Ž":{"ha":652,"x_min":34,"x_max":618,"o":"m 236 157 l 617 765 l 618 916 l 47 916 l 47 761 l 418 761 l 34 145 l 34 0 l 618 0 l 618 157 l 236 157 m 331 966 l 557 1142 l 490 1227 l 336 1119 l 180 1230 l 106 1142 l 331 966 z "},"Ż":{"ha":652,"x_min":34,"x_max":618,"o":"m 236 157 l 617 765 l 618 916 l 47 916 l 47 761 l 418 761 l 34 145 l 34 0 l 618 0 l 618 157 l 236 157 m 331 978 q 427 1035 397 978 q 441 1096 441 1062 q 374 1202 441 1176 q 332 1210 354 1210 q 236 1154 264 1210 q 224 1096 224 1127 q 290 986 224 1012 q 331 978 311 978 z "},"a":{"ha":620,"x_min":20,"x_max":613,"o":"m 537 -20 q 613 -11 576 -20 l 608 118 q 589 117 600 117 q 543 160 548 117 q 541 180 541 170 l 541 456 q 406 681 541 632 q 307 697 361 697 q 49 629 170 697 q 41 624 45 627 l 99 496 q 264 551 201 551 q 365 449 363 548 l 365 414 q 315 415 345 415 q 52 305 123 415 q 20 193 20 256 q 118 9 20 66 q 228 -20 168 -20 q 385 54 328 -20 q 400 76 395 65 q 537 -20 427 -19 m 269 121 q 202 168 217 121 q 198 193 198 180 q 326 300 206 297 q 365 298 353 300 l 365 266 q 305 126 365 145 q 269 121 289 121 z "},"á":{"ha":620,"x_min":20,"x_max":613,"o":"m 537 -20 q 613 -11 576 -20 l 608 118 q 589 117 600 117 q 543 160 548 117 q 541 180 541 170 l 541 456 q 406 681 541 632 q 307 697 361 697 q 49 629 170 697 q 41 624 45 627 l 99 496 q 264 551 201 551 q 365 449 363 548 l 365 414 q 315 415 345 415 q 52 305 123 415 q 20 193 20 256 q 118 9 20 66 q 228 -20 168 -20 q 385 54 328 -20 q 400 76 395 65 q 537 -20 427 -19 m 269 121 q 202 168 217 121 q 198 193 198 180 q 326 300 206 297 q 365 298 353 300 l 365 266 q 305 126 365 145 q 269 121 289 121 m 529 907 l 444 1035 l 184 853 l 252 749 l 529 907 z "},"ă":{"ha":620,"x_min":20,"x_max":613,"o":"m 537 -20 q 613 -11 576 -20 l 608 118 q 589 117 600 117 q 543 160 548 117 q 541 180 541 170 l 541 456 q 406 681 541 632 q 307 697 361 697 q 49 629 170 697 q 41 624 45 627 l 99 496 q 264 551 201 551 q 365 449 363 548 l 365 414 q 315 415 345 415 q 52 305 123 415 q 20 193 20 256 q 118 9 20 66 q 228 -20 168 -20 q 385 54 328 -20 q 400 76 395 65 q 537 -20 427 -19 m 269 121 q 202 168 217 121 q 198 193 198 180 q 326 300 206 297 q 365 298 353 300 l 365 266 q 305 126 365 145 q 269 121 289 121 m 91 981 q 191 795 90 852 q 301 766 243 766 q 467 844 407 766 q 510 982 510 901 l 396 987 q 331 899 389 918 q 302 895 316 895 q 220 945 247 895 q 206 991 209 967 l 91 981 z "},"â":{"ha":620,"x_min":20,"x_max":613,"o":"m 537 -20 q 613 -11 576 -20 l 608 118 q 589 117 600 117 q 543 160 548 117 q 541 180 541 170 l 541 456 q 406 681 541 632 q 307 697 361 697 q 49 629 170 697 q 41 624 45 627 l 99 496 q 264 551 201 551 q 365 449 363 548 l 365 414 q 315 415 345 415 q 52 305 123 415 q 20 193 20 256 q 118 9 20 66 q 228 -20 168 -20 q 385 54 328 -20 q 400 76 395 65 q 537 -20 427 -19 m 269 121 q 202 168 217 121 q 198 193 198 180 q 326 300 206 297 q 365 298 353 300 l 365 266 q 305 126 365 145 q 269 121 289 121 m 308 1009 l 83 842 l 153 754 l 304 856 l 454 751 l 530 842 l 308 1009 z "},"´":{"ha":435,"x_min":60,"x_max":404,"o":"m 404 907 l 319 1035 l 60 853 l 127 749 l 404 907 z "},"ä":{"ha":620,"x_min":20,"x_max":613,"o":"m 537 -20 q 613 -11 576 -20 l 608 118 q 589 117 600 117 q 543 160 548 117 q 541 180 541 170 l 541 456 q 406 681 541 632 q 307 697 361 697 q 49 629 170 697 q 41 624 45 627 l 99 496 q 264 551 201 551 q 365 449 363 548 l 365 414 q 315 415 345 415 q 52 305 123 415 q 20 193 20 256 q 118 9 20 66 q 228 -20 168 -20 q 385 54 328 -20 q 400 76 395 65 q 537 -20 427 -19 m 269 121 q 202 168 217 121 q 198 193 198 180 q 326 300 206 297 q 365 298 353 300 l 365 266 q 305 126 365 145 q 269 121 289 121 m 252 876 q 193 968 252 948 q 161 974 176 974 q 77 921 100 974 q 69 876 69 901 q 129 780 69 800 q 160 774 145 774 q 241 825 217 774 q 252 876 252 848 m 533 876 q 473 968 533 948 q 441 974 457 974 q 359 924 382 974 q 350 876 350 902 q 410 780 350 800 q 439 774 425 774 q 524 826 499 774 q 533 876 533 849 z "},"æ":{"ha":971,"x_min":20,"x_max":944,"o":"m 665 563 q 762 465 746 563 q 766 419 766 444 l 547 418 q 644 560 566 544 q 665 563 655 563 m 930 57 l 879 174 q 701 122 784 122 q 555 240 590 122 q 544 292 548 264 l 944 292 l 944 339 q 730 694 944 661 q 673 699 703 699 q 479 625 557 697 q 307 697 422 697 q 49 629 170 697 q 41 624 45 627 l 99 496 q 264 551 201 551 q 365 449 363 548 l 365 414 q 315 415 345 415 q 52 305 123 415 q 20 193 20 256 q 118 9 20 66 q 228 -20 168 -20 q 388 43 324 -20 q 430 111 416 73 q 686 -20 515 -19 q 930 57 821 -19 m 269 121 q 202 168 217 121 q 198 193 198 180 q 302 297 198 289 q 326 298 313 298 q 365 297 353 298 l 365 266 q 305 126 365 145 q 269 121 289 121 z "},"à":{"ha":620,"x_min":20,"x_max":613,"o":"m 537 -20 q 613 -11 576 -20 l 608 118 q 589 117 600 117 q 543 160 548 117 q 541 180 541 170 l 541 456 q 406 681 541 632 q 307 697 361 697 q 49 629 170 697 q 41 624 45 627 l 99 496 q 264 551 201 551 q 365 449 363 548 l 365 414 q 315 415 345 415 q 52 305 123 415 q 20 193 20 256 q 118 9 20 66 q 228 -20 168 -20 q 385 54 328 -20 q 400 76 395 65 q 537 -20 427 -19 m 269 121 q 202 168 217 121 q 198 193 198 180 q 326 300 206 297 q 365 298 353 300 l 365 266 q 305 126 365 145 q 269 121 289 121 m 118 907 l 203 1035 l 463 853 l 395 749 l 118 907 z "},"ā":{"ha":620,"x_min":20,"x_max":613,"o":"m 537 -20 q 613 -11 576 -20 l 608 118 q 589 117 600 117 q 543 160 548 117 q 541 180 541 170 l 541 456 q 406 681 541 632 q 307 697 361 697 q 49 629 170 697 q 41 624 45 627 l 99 496 q 264 551 201 551 q 365 449 363 548 l 365 414 q 315 415 345 415 q 52 305 123 415 q 20 193 20 256 q 118 9 20 66 q 228 -20 168 -20 q 385 54 328 -20 q 400 76 395 65 q 537 -20 427 -19 m 269 121 q 202 168 217 121 q 198 193 198 180 q 326 300 206 297 q 365 298 353 300 l 365 266 q 305 126 365 145 q 269 121 289 121 m 111 941 l 111 806 l 491 806 l 491 941 l 111 941 z "},"&":{"ha":907,"x_min":41,"x_max":867,"o":"m 289 803 q 347 875 289 864 q 365 876 355 876 q 433 804 430 871 q 355 651 431 728 q 289 803 289 747 m 384 115 q 231 208 263 117 q 220 270 220 236 q 315 425 221 338 q 552 183 372 361 q 384 115 487 115 m 818 503 l 644 503 q 628 339 644 408 q 445 536 515 454 q 605 751 581 655 q 612 804 612 779 q 496 978 612 926 q 366 1004 438 1004 q 156 922 227 1004 q 111 800 111 871 q 222 534 113 684 q 68 368 103 434 q 41 266 41 316 q 163 38 41 118 q 381 -20 254 -20 q 662 79 553 -18 q 754 -11 693 47 l 867 104 q 760 209 793 175 q 818 503 818 331 z "},"ං":{"ha":464,"x_min":30,"x_max":435,"o":"m 163 361 q 232 228 165 231 q 302 361 301 231 q 232 492 300 490 q 163 361 167 481 m 30 361 q 118 590 30 519 q 232 629 167 629 q 408 505 357 629 q 435 361 435 441 q 311 104 435 155 q 232 91 274 91 q 41 259 77 91 q 30 361 30 307 z "},"ą":{"ha":624,"x_min":20,"x_max":628,"o":"m 628 -275 l 620 -159 q 568 -167 593 -167 q 496 -121 503 -167 q 495 -111 495 -115 q 613 -11 498 -45 l 608 118 q 589 117 600 117 q 543 160 548 117 q 541 180 541 170 l 541 456 q 406 681 541 632 q 307 697 361 697 q 49 629 170 697 q 41 624 45 627 l 99 496 q 264 551 201 551 q 365 449 363 548 l 365 414 q 315 415 345 415 q 52 305 123 415 q 20 193 20 256 q 118 9 20 66 q 228 -20 168 -20 q 385 54 328 -20 q 400 76 395 65 q 467 -7 416 16 q 350 -141 366 -60 q 347 -165 347 -155 q 427 -274 347 -241 q 524 -292 469 -292 q 628 -275 576 -292 m 269 121 q 202 168 217 121 q 198 193 198 180 q 326 300 206 297 q 365 298 353 300 l 365 266 q 305 126 365 145 q 269 121 289 121 z "},"≈":{"ha":727,"x_min":31,"x_max":693,"o":"m 494 529 q 361 567 453 529 q 228 600 278 600 q 31 490 125 598 l 115 393 q 231 444 174 444 q 361 407 270 444 q 495 373 444 373 q 684 479 593 373 q 690 487 688 483 l 606 579 q 494 529 555 529 m 496 273 q 363 311 456 273 q 231 343 281 343 q 34 233 127 342 l 118 137 q 233 187 176 187 q 363 151 273 187 q 498 117 446 117 q 686 222 595 117 q 693 231 690 227 l 609 323 q 496 273 557 273 z "},"å":{"ha":620,"x_min":20,"x_max":613,"o":"m 537 -20 q 613 -11 576 -20 l 608 118 q 589 117 600 117 q 543 160 548 117 q 541 180 541 170 l 541 456 q 406 681 541 632 q 307 697 361 697 q 49 629 170 697 q 41 624 45 627 l 99 496 q 264 551 201 551 q 365 449 363 548 l 365 414 q 315 415 345 415 q 52 305 123 415 q 20 193 20 256 q 118 9 20 66 q 228 -20 168 -20 q 385 54 328 -20 q 400 76 395 65 q 537 -20 427 -19 m 269 121 q 202 168 217 121 q 198 193 198 180 q 326 300 206 297 q 365 298 353 300 l 365 266 q 305 126 365 145 q 269 121 289 121 m 464 883 q 378 1028 464 987 q 304 1046 343 1046 q 170 981 218 1046 q 138 880 138 937 q 222 731 138 774 q 297 713 258 713 q 433 780 384 713 q 464 883 464 825 m 243 880 q 285 944 243 932 q 301 947 294 947 q 355 907 342 947 q 359 880 359 894 q 317 817 359 829 q 301 814 308 814 q 247 853 260 814 q 243 880 243 867 z "},"^":{"ha":712,"x_min":54,"x_max":658,"o":"m 357 936 l 54 515 l 159 448 l 355 730 l 549 448 l 658 519 l 357 936 z "},"~":{"ha":727,"x_min":34,"x_max":693,"o":"m 693 361 l 609 458 q 496 408 557 408 q 363 446 456 408 q 231 479 281 479 q 34 369 127 477 l 118 267 q 233 317 176 317 q 363 281 273 317 q 498 247 446 247 q 686 353 595 247 q 693 361 690 357 z "},"*":{"ha":487,"x_min":19,"x_max":460,"o":"m 269 815 l 296 913 q 267 990 312 972 q 176 974 228 1004 l 218 815 l 269 815 m 212 810 l 127 867 q 46 865 77 902 q 33 773 20 833 l 197 765 l 212 810 m 199 755 l 118 693 q 95 614 69 655 q 179 574 119 581 l 237 727 l 199 755 m 247 726 l 282 629 q 346 582 301 572 q 414 650 388 594 l 285 753 l 247 726 m 288 762 l 391 765 q 454 810 449 766 q 412 897 460 853 l 274 807 l 288 762 z "},"@":{"ha":1063,"x_min":45,"x_max":1023,"o":"m 785 -52 l 746 61 q 533 20 635 20 q 251 178 343 20 q 194 407 194 277 q 304 713 194 600 q 553 812 401 812 q 811 688 726 812 q 873 457 873 597 q 807 254 873 283 q 768 247 789 247 q 736 279 739 247 q 735 297 735 288 l 735 513 q 620 699 735 659 q 545 709 585 709 q 335 652 427 708 l 381 543 q 511 586 464 586 q 589 509 587 583 l 589 484 q 551 486 572 486 q 332 387 387 486 q 312 305 312 350 q 403 149 312 191 q 483 133 439 133 q 614 203 570 133 q 618 212 617 209 q 754 133 642 134 q 972 255 898 133 q 1023 458 1023 340 q 837 854 1023 728 q 552 936 719 936 q 153 750 293 936 q 45 408 45 606 q 170 45 45 187 q 514 -103 298 -103 q 785 -52 637 -103 m 514 251 q 464 288 476 251 q 461 305 461 297 q 559 388 464 387 q 589 387 579 388 l 589 363 q 545 255 589 270 q 514 251 532 251 z "},"ã":{"ha":620,"x_min":20,"x_max":613,"o":"m 537 -20 q 613 -11 576 -20 l 608 118 q 589 117 600 117 q 543 160 548 117 q 541 180 541 170 l 541 456 q 406 681 541 632 q 307 697 361 697 q 49 629 170 697 q 41 624 45 627 l 99 496 q 264 551 201 551 q 365 449 363 548 l 365 414 q 315 415 345 415 q 52 305 123 415 q 20 193 20 256 q 118 9 20 66 q 228 -20 168 -20 q 385 54 328 -20 q 400 76 395 65 q 537 -20 427 -19 m 269 121 q 202 168 217 121 q 198 193 198 180 q 326 300 206 297 q 365 298 353 300 l 365 266 q 305 126 365 145 q 269 121 289 121 m 387 911 q 292 943 358 911 q 208 966 241 966 q 57 888 138 966 q 49 880 53 884 l 121 796 q 214 837 175 837 q 316 806 243 837 q 403 783 369 783 q 555 873 488 784 l 483 952 q 387 911 444 913 z "},"b":{"ha":693,"x_min":81,"x_max":662,"o":"m 662 374 q 549 655 662 571 q 414 699 491 699 q 262 632 321 697 l 259 983 l 83 983 l 81 41 q 332 -20 214 -20 q 606 130 519 -20 q 662 374 662 228 m 258 141 l 259 385 q 339 555 259 530 q 369 559 354 559 q 469 467 441 559 q 481 372 481 425 q 365 125 481 146 q 340 122 353 122 q 258 141 304 122 z "},"\\":{"ha":563,"x_min":4,"x_max":560,"o":"m 399 -95 l 560 -94 l 163 983 l 4 983 l 399 -95 z "},"|":{"ha":355,"x_min":109,"x_max":247,"o":"m 111 983 l 109 -95 l 247 -95 l 247 983 l 111 983 z "},"{":{"ha":492,"x_min":61,"x_max":463,"o":"m 463 -262 l 457 -127 q 426 -129 445 -129 q 342 -79 351 -129 q 340 -57 340 -68 l 340 232 q 218 399 340 359 q 213 400 216 400 q 339 570 338 438 l 339 852 q 393 921 339 911 q 427 924 408 924 q 456 922 445 924 l 461 1057 q 353 1069 401 1069 q 176 895 178 1066 l 176 582 q 103 472 176 496 q 61 464 83 465 l 61 336 q 171 260 148 334 q 178 218 178 240 l 178 -100 q 354 -274 180 -273 q 463 -262 404 -274 z "},"}":{"ha":481,"x_min":19,"x_max":420,"o":"m 19 1057 l 24 922 q 56 924 37 924 q 140 873 130 924 q 141 852 141 863 l 141 563 q 263 396 141 435 q 269 395 266 395 q 142 225 144 357 l 142 -57 q 88 -126 142 -117 q 54 -129 73 -129 q 26 -127 37 -129 l 20 -262 q 129 -274 80 -274 q 305 -100 304 -271 l 305 213 q 378 323 305 298 q 420 331 399 330 l 420 458 q 311 534 334 461 q 304 576 304 555 l 304 895 q 127 1069 301 1067 q 19 1057 77 1069 z "},"[":{"ha":445,"x_min":102,"x_max":411,"o":"m 411 -252 l 411 -90 l 266 -90 l 266 886 l 411 886 l 411 1048 l 102 1048 l 102 -252 l 411 -252 z "},"]":{"ha":431,"x_min":20,"x_max":330,"o":"m 20 1055 l 20 892 l 165 892 l 165 -83 l 20 -83 l 20 -245 l 330 -245 l 330 1055 l 20 1055 z "},"˘":{"ha":555,"x_min":66,"x_max":488,"o":"m 68 981 q 168 795 66 852 q 278 766 220 766 q 444 844 384 766 q 487 982 487 901 l 373 987 q 308 899 366 918 q 279 895 293 895 q 197 945 224 895 q 183 991 186 967 l 68 981 z "},"¦":{"ha":355,"x_min":109,"x_max":247,"o":"m 111 319 l 109 -95 l 247 -95 l 247 319 l 111 319 m 111 983 l 109 570 l 247 570 l 247 983 l 111 983 z "},"•":{"ha":469,"x_min":61,"x_max":408,"o":"m 408 399 q 335 545 408 492 q 235 578 292 578 q 91 502 142 578 q 61 399 61 456 q 134 252 61 305 q 235 220 179 220 q 378 296 327 220 q 408 399 408 342 z "},"c":{"ha":574,"x_min":33,"x_max":572,"o":"m 560 53 l 511 172 q 363 127 422 127 q 213 340 214 130 q 330 555 214 553 q 418 480 385 555 q 427 454 422 468 l 572 509 q 366 694 514 678 q 328 697 347 697 q 85 564 165 697 q 33 343 33 473 q 180 15 33 98 q 326 -20 244 -20 q 560 53 437 -19 z "},"ć":{"ha":574,"x_min":33,"x_max":572,"o":"m 560 53 l 511 172 q 363 127 422 127 q 213 340 214 130 q 330 555 214 553 q 418 480 385 555 q 427 454 422 468 l 572 509 q 366 694 514 678 q 328 697 347 697 q 85 564 165 697 q 33 343 33 473 q 180 15 33 98 q 326 -20 244 -20 q 560 53 437 -19 m 560 907 l 475 1035 l 216 853 l 283 749 l 560 907 z "},"ˇ":{"ha":614,"x_min":81,"x_max":533,"o":"m 307 749 l 533 925 l 465 1010 l 312 902 l 156 1013 l 81 925 l 307 749 z "},"č":{"ha":574,"x_min":33,"x_max":572,"o":"m 560 53 l 511 172 q 363 127 422 127 q 213 340 214 130 q 330 555 214 553 q 418 480 385 555 q 427 454 422 468 l 572 509 q 366 694 514 678 q 328 697 347 697 q 85 564 165 697 q 33 343 33 473 q 180 15 33 98 q 326 -20 244 -20 q 560 53 437 -19 m 331 749 l 557 925 l 490 1010 l 336 902 l 180 1013 l 106 925 l 331 749 z "},"ç":{"ha":574,"x_min":33,"x_max":572,"o":"m 269 -298 q 452 -218 397 -298 q 473 -148 473 -186 q 389 -22 473 -68 q 380 -16 384 -19 q 560 53 463 -4 l 511 172 q 363 127 422 127 q 213 340 214 130 q 330 555 214 553 q 418 480 385 555 q 427 454 422 468 l 572 509 q 366 694 514 678 q 328 697 347 697 q 85 564 165 697 q 33 343 33 473 q 187 11 33 92 q 202 4 195 7 l 199 4 l 205 3 q 252 -12 229 -8 q 340 -106 332 -53 q 247 -172 338 -171 q 198 -168 222 -172 l 195 -290 q 269 -298 232 -298 z "},"¸":{"ha":576,"x_min":159,"x_max":437,"o":"m 232 -298 q 415 -218 361 -298 q 437 -148 437 -186 q 355 -22 437 -69 q 271 7 317 -1 l 163 4 q 298 -81 273 -22 q 304 -106 304 -95 q 210 -172 301 -171 q 161 -168 186 -172 l 159 -290 q 232 -298 195 -298 z "},"¢":{"ha":589,"x_min":28,"x_max":568,"o":"m 556 80 l 507 199 q 359 155 418 155 q 209 330 218 155 q 209 354 209 342 q 305 553 209 534 q 326 555 316 555 q 414 480 381 555 q 423 454 418 468 l 568 509 q 377 693 513 669 l 377 796 l 258 796 l 258 690 q 61 526 119 662 q 28 357 28 450 q 165 47 28 133 q 258 12 208 22 l 258 -98 l 377 -98 l 377 11 q 556 80 463 26 z "},"ˆ":{"ha":614,"x_min":83,"x_max":530,"o":"m 308 1009 l 83 842 l 153 754 l 304 856 l 454 751 l 530 842 l 308 1009 z "},":":{"ha":336,"x_min":61,"x_max":275,"o":"m 275 456 q 209 564 275 538 q 168 572 189 572 q 73 514 100 572 q 61 456 61 488 q 129 342 61 366 q 167 335 148 335 q 262 393 233 335 q 275 456 275 422 m 275 100 q 209 209 275 183 q 168 217 189 217 q 73 159 100 217 q 61 100 61 133 q 129 -14 61 11 q 167 -20 148 -20 q 262 38 233 -20 q 275 100 275 66 z "},",":{"ha":315,"x_min":38,"x_max":270,"o":"m 270 90 q 201 209 270 179 q 152 220 176 220 q 53 161 85 220 q 38 96 38 133 q 95 -1 38 27 q 118 -9 107 -7 q 45 -171 106 -60 q 41 -178 42 -175 l 111 -222 q 262 31 231 -98 q 270 90 270 64 z "},"©":{"ha":1051,"x_min":46,"x_max":1010,"o":"m 1010 460 q 840 834 1010 701 q 533 936 708 936 q 202 818 339 936 q 46 456 46 682 q 218 80 46 213 q 525 -20 350 -20 q 854 98 719 -20 q 1010 460 1010 233 m 726 228 l 671 326 q 544 283 600 283 q 429 396 449 283 q 425 452 425 422 q 530 627 426 625 q 612 566 585 627 q 617 551 614 557 l 738 583 q 548 739 700 730 q 529 739 538 739 q 339 644 410 739 q 281 450 281 566 q 389 214 281 293 q 537 168 453 168 q 726 228 633 170 m 189 458 q 330 761 189 663 q 526 821 416 821 q 781 712 684 821 q 868 457 868 612 q 724 152 868 248 q 532 95 640 95 q 275 205 372 95 q 189 458 189 304 z "},"¤":{"ha":696,"x_min":20,"x_max":671,"o":"m 654 339 q 589 552 652 467 l 671 661 l 575 734 l 496 627 q 351 658 433 658 q 199 624 267 658 l 118 734 l 20 661 l 106 549 q 38 336 38 463 q 103 126 39 209 l 20 18 l 118 -54 l 197 52 q 339 20 258 20 q 494 53 425 20 l 576 -56 l 671 18 l 587 127 q 654 339 654 214 m 218 339 q 285 496 218 452 q 347 515 313 515 q 460 429 427 515 q 475 336 475 388 q 407 180 475 222 q 346 163 378 163 q 233 250 266 163 q 218 339 218 290 z "},"d":{"ha":697,"x_min":39,"x_max":673,"o":"m 448 983 l 448 689 q 361 699 406 699 q 87 534 170 699 q 39 320 39 442 q 136 41 39 134 q 289 -20 199 -20 q 467 77 401 -19 q 647 -18 496 -42 q 673 -12 661 -15 l 666 117 q 624 155 625 114 l 624 983 l 448 983 m 334 119 q 229 241 254 119 q 220 336 220 285 q 313 547 220 509 q 362 556 336 556 q 448 540 407 556 l 448 293 q 368 125 448 152 q 334 119 351 119 z "},"†":{"ha":621,"x_min":34,"x_max":587,"o":"m 382 -75 l 406 330 l 385 574 l 587 566 l 587 708 l 384 700 l 406 944 l 216 944 l 237 700 l 34 708 l 34 566 l 236 574 l 216 330 l 239 -75 l 382 -75 z "},"‡":{"ha":621,"x_min":34,"x_max":587,"o":"m 587 161 l 587 304 l 385 296 l 406 438 l 385 574 l 587 566 l 587 708 l 384 700 l 406 944 l 216 944 l 237 700 l 34 708 l 34 566 l 236 574 l 216 438 l 236 296 l 34 304 l 34 161 l 237 170 l 216 -75 l 406 -75 l 384 170 l 587 161 z "},"ď":{"ha":829,"x_min":39,"x_max":854,"o":"m 448 983 l 448 689 q 361 699 406 699 q 87 534 170 699 q 39 320 39 442 q 136 41 39 134 q 289 -20 199 -20 q 467 77 401 -19 q 647 -18 496 -42 q 673 -12 661 -15 l 666 117 q 624 155 625 114 l 624 983 l 448 983 m 334 119 q 229 241 254 119 q 220 336 220 285 q 313 547 220 509 q 362 556 336 556 q 448 540 407 556 l 448 293 q 368 125 448 152 q 334 119 351 119 m 854 854 q 793 956 854 932 q 757 963 774 963 q 673 911 699 963 q 662 860 663 888 q 713 779 662 802 q 728 773 722 774 q 666 637 719 728 q 665 633 665 635 l 723 597 q 850 817 827 707 q 854 854 854 837 z "},"đ":{"ha":684,"x_min":39,"x_max":696,"o":"m 273 886 l 273 770 l 448 770 l 448 689 q 361 699 406 699 q 87 534 170 699 q 39 320 39 442 q 136 41 39 134 q 289 -20 199 -20 q 467 77 401 -19 q 647 -18 496 -42 q 673 -12 661 -15 l 666 117 q 624 155 625 114 l 624 770 l 696 770 l 696 886 l 624 886 l 624 983 l 448 983 l 448 886 l 273 886 m 334 119 q 229 241 254 119 q 220 336 220 285 q 313 547 220 509 q 362 556 336 556 q 448 540 407 556 l 448 293 q 368 125 448 152 q 334 119 351 119 z "},"°":{"ha":517,"x_min":41,"x_max":476,"o":"m 260 1023 q 88 944 152 1023 q 41 798 41 883 q 142 613 41 671 q 254 585 193 585 q 427 661 361 585 q 476 802 476 720 q 373 993 476 935 q 260 1023 321 1023 m 258 705 q 178 758 201 705 q 170 806 170 780 q 225 895 170 873 q 259 902 243 902 q 338 850 313 902 q 347 799 347 827 q 292 712 347 734 q 258 705 275 705 z "},"¨":{"ha":689,"x_min":113,"x_max":576,"o":"m 296 876 q 236 968 296 948 q 205 974 220 974 q 121 921 144 974 q 113 876 113 901 q 172 780 113 800 q 203 774 187 774 q 285 825 260 774 q 296 876 296 848 m 576 876 q 517 968 576 948 q 484 974 500 974 q 403 924 426 974 q 393 876 393 902 q 453 780 393 800 q 483 774 468 774 q 567 826 543 774 q 576 876 576 849 z "},"÷":{"ha":779,"x_min":54,"x_max":724,"o":"m 724 289 l 724 438 l 54 438 l 54 289 l 724 289 m 491 115 q 427 220 491 194 q 389 227 408 227 q 300 171 326 227 q 288 115 288 145 q 353 7 288 30 q 388 0 370 0 q 477 56 450 0 q 491 115 491 83 m 491 616 q 427 720 491 694 q 389 727 410 727 q 300 671 326 727 q 288 616 288 646 q 353 507 288 530 q 388 500 370 500 q 477 556 450 500 q 491 616 491 583 z "},"$":{"ha":747,"x_min":81,"x_max":666,"o":"m 445 -132 l 445 -12 q 637 136 582 19 q 666 267 666 195 q 532 490 666 412 q 395 552 511 502 q 282 639 301 593 q 275 674 275 656 q 342 777 275 751 q 387 785 363 785 q 519 715 471 785 q 529 701 525 708 l 661 772 q 487 922 617 887 q 445 932 465 929 l 445 1047 l 323 1047 l 323 929 q 130 798 191 902 q 96 663 96 738 q 229 433 96 511 q 365 369 251 419 q 477 283 458 328 q 484 245 484 264 q 420 145 484 172 q 369 136 396 136 q 157 202 264 136 q 153 205 155 203 l 81 79 q 323 -18 198 -4 l 323 -132 l 445 -132 z "},"˙":{"ha":334,"x_min":58,"x_max":275,"o":"m 165 761 q 262 818 232 761 q 275 879 275 845 q 209 985 275 959 q 167 993 189 993 q 71 937 99 993 q 58 879 58 910 q 125 769 58 795 q 165 761 145 761 z "},"ı":{"ha":332,"x_min":77,"x_max":254,"o":"m 254 0 l 254 678 l 77 678 l 77 0 l 254 0 z "},"◌":{"ha":935,"x_min":30,"x_max":905,"o":"m 77 225 q 121 297 77 274 q 159 307 140 307 q 233 260 212 307 q 241 225 241 243 q 197 152 241 175 q 159 142 178 142 q 87 189 109 142 q 77 225 77 206 m 208 95 q 254 167 208 145 q 290 176 271 176 q 362 133 339 176 q 372 95 372 114 q 327 22 372 45 q 290 12 309 12 q 217 56 241 12 q 208 95 208 75 m 693 225 q 738 297 693 275 q 776 307 757 307 q 848 263 825 307 q 857 225 857 244 q 812 152 857 175 q 776 142 795 142 q 703 189 726 142 q 693 225 693 206 m 563 95 q 606 167 563 144 q 644 176 625 176 q 718 132 694 176 q 727 95 727 114 q 684 22 727 46 q 644 12 665 12 q 572 58 594 12 q 563 95 563 76 m 77 581 q 122 654 77 631 q 159 663 140 663 q 232 617 209 663 q 241 581 241 600 q 197 509 241 530 q 159 499 178 499 q 87 543 110 499 q 77 581 77 562 m 208 711 q 251 784 208 760 q 290 793 270 793 q 362 747 340 793 q 372 711 372 730 q 328 639 372 662 q 290 629 309 629 q 217 674 240 629 q 208 711 208 692 m 693 581 q 738 654 693 631 q 776 663 757 663 q 848 617 826 663 q 857 581 857 600 q 814 509 857 532 q 776 499 795 499 q 701 545 723 499 q 693 581 693 563 m 563 711 q 608 784 563 761 q 644 793 625 793 q 718 750 693 793 q 727 711 727 731 q 681 639 727 661 q 644 629 663 629 q 572 673 595 629 q 563 711 563 692 m 30 403 q 75 476 30 453 q 113 486 94 486 q 184 439 163 486 q 194 403 194 422 q 151 331 194 354 q 113 321 132 321 q 38 368 60 321 q 30 403 30 385 m 741 403 q 785 476 741 453 q 823 486 804 486 q 895 439 873 486 q 905 403 905 422 q 861 331 905 354 q 823 321 842 321 q 749 368 770 321 q 741 403 741 385 m 385 758 q 430 831 385 808 q 468 841 449 841 q 540 795 518 841 q 549 758 549 777 q 506 686 549 709 q 468 677 487 677 q 393 723 415 677 q 385 758 385 741 m 385 47 q 430 121 385 98 q 468 130 449 130 q 540 84 518 130 q 549 47 549 66 q 505 -26 549 -3 q 468 -35 487 -35 q 395 11 418 -35 q 385 47 385 28 z "},"e":{"ha":650,"x_min":39,"x_max":623,"o":"m 609 57 l 557 174 q 380 122 463 122 q 235 232 273 122 q 222 289 227 259 l 623 289 l 623 339 q 433 689 623 640 q 345 699 392 699 q 107 583 191 699 q 39 347 39 491 q 178 34 39 130 q 365 -20 258 -20 q 609 57 499 -19 m 343 563 q 441 465 425 563 q 445 419 445 444 l 225 418 q 323 560 244 544 q 343 563 334 563 z "},"é":{"ha":650,"x_min":39,"x_max":623,"o":"m 609 57 l 557 174 q 380 122 463 122 q 235 232 273 122 q 222 289 227 259 l 623 289 l 623 339 q 433 689 623 640 q 345 699 392 699 q 107 583 191 699 q 39 347 39 491 q 178 34 39 130 q 365 -20 258 -20 q 609 57 499 -19 m 343 563 q 441 465 425 563 q 445 419 445 444 l 225 418 q 323 560 244 544 q 343 563 334 563 m 572 907 l 487 1035 l 228 853 l 296 749 l 572 907 z "},"ě":{"ha":650,"x_min":39,"x_max":623,"o":"m 609 57 l 557 174 q 380 122 463 122 q 235 232 273 122 q 222 289 227 259 l 623 289 l 623 339 q 433 689 623 640 q 345 699 392 699 q 107 583 191 699 q 39 347 39 491 q 178 34 39 130 q 365 -20 258 -20 q 609 57 499 -19 m 343 563 q 441 465 425 563 q 445 419 445 444 l 225 418 q 323 560 244 544 q 343 563 334 563 m 343 749 l 570 925 l 502 1010 l 349 902 l 193 1013 l 118 925 l 343 749 z "},"ê":{"ha":650,"x_min":39,"x_max":623,"o":"m 609 57 l 557 174 q 380 122 463 122 q 235 232 273 122 q 222 289 227 259 l 623 289 l 623 339 q 433 689 623 640 q 345 699 392 699 q 107 583 191 699 q 39 347 39 491 q 178 34 39 130 q 365 -20 258 -20 q 609 57 499 -19 m 343 563 q 441 465 425 563 q 445 419 445 444 l 225 418 q 323 560 244 544 q 343 563 334 563 m 351 1009 l 126 842 l 197 754 l 347 856 l 498 751 l 574 842 l 351 1009 z "},"ë":{"ha":650,"x_min":39,"x_max":623,"o":"m 609 57 l 557 174 q 380 122 463 122 q 235 232 273 122 q 222 289 227 259 l 623 289 l 623 339 q 433 689 623 640 q 345 699 392 699 q 107 583 191 699 q 39 347 39 491 q 178 34 39 130 q 365 -20 258 -20 q 609 57 499 -19 m 343 563 q 441 465 425 563 q 445 419 445 444 l 225 418 q 323 560 244 544 q 343 563 334 563 m 296 876 q 236 968 296 948 q 205 974 220 974 q 121 921 144 974 q 113 876 113 901 q 172 780 113 800 q 203 774 187 774 q 285 825 260 774 q 296 876 296 848 m 576 876 q 517 968 576 948 q 484 974 500 974 q 403 924 426 974 q 393 876 393 902 q 453 780 393 800 q 483 774 468 774 q 567 826 543 774 q 576 876 576 849 z "},"ė":{"ha":650,"x_min":39,"x_max":623,"o":"m 609 57 l 557 174 q 380 122 463 122 q 235 232 273 122 q 222 289 227 259 l 623 289 l 623 339 q 433 689 623 640 q 345 699 392 699 q 107 583 191 699 q 39 347 39 491 q 178 34 39 130 q 365 -20 258 -20 q 609 57 499 -19 m 343 563 q 441 465 425 563 q 445 419 445 444 l 225 418 q 323 560 244 544 q 343 563 334 563 m 343 761 q 439 818 410 761 q 453 879 453 845 q 387 985 453 959 q 345 993 366 993 q 248 937 277 993 q 236 879 236 910 q 302 769 236 795 q 343 761 323 761 z "},"è":{"ha":650,"x_min":39,"x_max":623,"o":"m 609 57 l 557 174 q 380 122 463 122 q 235 232 273 122 q 222 289 227 259 l 623 289 l 623 339 q 433 689 623 640 q 345 699 392 699 q 107 583 191 699 q 39 347 39 491 q 178 34 39 130 q 365 -20 258 -20 q 609 57 499 -19 m 343 563 q 441 465 425 563 q 445 419 445 444 l 225 418 q 323 560 244 544 q 343 563 334 563 m 161 907 l 247 1035 l 506 853 l 438 749 l 161 907 z "},"…":{"ha":963,"x_min":62,"x_max":901,"o":"m 589 100 q 522 209 589 183 q 481 217 502 217 q 387 159 414 217 q 374 100 374 133 q 442 -14 374 11 q 480 -20 461 -20 q 575 38 547 -20 q 589 100 589 66 m 901 100 q 834 209 901 183 q 793 217 814 217 q 699 159 726 217 q 686 100 686 133 q 754 -14 686 11 q 792 -20 773 -20 q 887 38 859 -20 q 901 100 901 66 m 277 100 q 210 209 277 183 q 170 217 190 217 q 75 159 102 217 q 62 100 62 133 q 130 -14 62 11 q 168 -20 149 -20 q 263 38 235 -20 q 277 100 277 66 z "},"ē":{"ha":650,"x_min":39,"x_max":623,"o":"m 609 57 l 557 174 q 380 122 463 122 q 235 232 273 122 q 222 289 227 259 l 623 289 l 623 339 q 433 689 623 640 q 345 699 392 699 q 107 583 191 699 q 39 347 39 491 q 178 34 39 130 q 365 -20 258 -20 q 609 57 499 -19 m 343 563 q 441 465 425 563 q 445 419 445 444 l 225 418 q 323 560 244 544 q 343 563 334 563 m 155 941 l 155 806 l 534 806 l 534 941 l 155 941 z "},"—":{"ha":1356,"x_min":-1,"x_max":1358,"o":"m -1 480 l -1 327 l 1358 327 l 1358 480 l -1 480 z "},"–":{"ha":678,"x_min":-1,"x_max":680,"o":"m -1 480 l -1 327 l 680 327 l 680 480 l -1 480 z "},"ę":{"ha":644,"x_min":39,"x_max":623,"o":"m 601 -275 l 593 -159 q 540 -167 566 -167 q 468 -104 469 -164 q 563 28 469 -42 q 609 57 586 41 l 557 174 q 380 122 463 122 q 235 232 273 122 q 222 289 227 259 l 623 289 l 623 339 q 433 689 623 640 q 345 699 392 699 q 107 583 191 699 q 39 347 39 491 q 178 34 39 130 q 365 -20 258 -20 q 392 -19 384 -20 q 319 -157 320 -85 q 396 -273 319 -237 q 492 -292 438 -292 q 601 -275 548 -292 m 343 563 q 441 465 425 563 q 445 419 445 444 l 225 418 q 323 560 244 544 q 343 563 334 563 z "},"=":{"ha":779,"x_min":81,"x_max":697,"o":"m 697 397 l 697 540 l 81 540 l 81 397 l 697 397 m 697 152 l 697 294 l 81 294 l 81 152 l 697 152 z "},"℮":{"ha":954,"x_min":54,"x_max":913,"o":"m 278 99 l 278 483 l 913 483 q 753 848 913 723 q 496 933 642 933 q 148 761 271 933 q 54 457 54 631 q 168 126 54 259 q 484 -14 289 -14 q 774 79 642 -14 q 852 146 821 110 l 818 180 q 586 46 732 80 q 484 34 534 34 q 278 99 366 35 m 685 836 l 685 530 l 278 530 l 278 817 q 499 886 372 886 q 685 836 612 884 z "},"ð":{"ha":694,"x_min":34,"x_max":658,"o":"m 658 431 q 521 878 656 722 l 606 937 l 537 1028 l 431 954 q 240 1004 345 1004 q 90 979 164 1004 l 126 857 q 220 868 179 868 q 296 859 264 868 l 198 789 l 266 699 l 401 793 q 477 595 461 724 q 326 656 426 656 q 100 543 184 656 q 34 319 34 450 q 149 42 34 134 q 340 -20 228 -20 q 658 400 647 -20 q 658 431 658 416 m 214 319 q 288 498 214 450 q 349 515 316 515 q 475 391 450 515 q 481 316 481 357 q 406 138 481 183 q 347 122 378 122 q 233 209 269 122 q 214 319 214 256 z "},"!":{"ha":339,"x_min":62,"x_max":277,"o":"m 270 966 l 66 966 l 94 278 l 243 278 l 270 966 m 277 100 q 210 209 277 183 q 170 217 190 217 q 75 159 102 217 q 62 100 62 133 q 130 -14 62 11 q 168 -20 149 -20 q 263 38 235 -20 q 277 100 277 66 z "},"¡":{"ha":339,"x_min":62,"x_max":277,"o":"m 69 -288 l 273 -288 l 245 400 l 96 400 l 69 -288 m 62 578 q 129 469 62 495 q 170 461 149 461 q 264 519 237 461 q 277 578 277 545 q 209 692 277 667 q 171 699 190 699 q 76 640 104 699 q 62 578 62 613 z "},"f":{"ha":457,"x_min":37,"x_max":484,"o":"m 430 549 l 430 678 l 292 678 l 292 770 q 359 860 296 857 q 431 838 393 859 l 484 959 q 315 1004 396 1004 q 138 901 187 1004 q 115 785 115 850 l 115 678 l 37 678 l 37 549 l 115 549 l 115 0 l 292 0 l 292 549 l 430 549 z "},"ﬁ":{"ha":758,"x_min":37,"x_max":703,"o":"m 292 0 l 292 549 l 503 549 l 503 0 l 680 0 l 680 678 l 292 678 l 292 770 q 359 860 296 857 q 400 852 372 860 l 450 970 q 309 1004 373 1004 q 138 901 186 1004 q 115 785 115 850 l 115 678 l 37 678 l 37 549 l 115 549 l 115 0 l 292 0 m 703 876 q 635 983 703 958 q 593 991 614 991 q 495 932 522 991 q 483 876 483 907 q 551 764 483 791 q 591 757 571 757 q 689 815 659 757 q 703 876 703 842 z "},"ﬂ":{"ha":823,"x_min":37,"x_max":812,"o":"m 411 549 l 411 678 l 292 678 l 292 770 q 359 860 296 857 q 400 852 372 860 l 450 970 q 309 1004 373 1004 q 138 901 186 1004 q 115 785 115 850 l 115 678 l 37 678 l 37 549 l 115 549 l 115 0 l 292 0 l 292 549 l 411 549 m 812 -3 l 781 129 q 738 122 754 122 q 684 183 688 122 q 684 197 684 190 l 684 983 l 507 983 l 507 180 q 674 -20 507 -9 q 693 -20 684 -20 q 812 -3 747 -20 z "},"ƒ":{"ha":602,"x_min":-81,"x_max":602,"o":"m 281 -73 l 346 450 l 507 450 l 507 579 l 362 579 l 385 761 q 479 860 400 859 q 553 842 509 860 l 602 974 q 457 1004 528 1004 q 250 892 315 1004 q 212 776 220 842 l 187 579 l 53 579 l 53 450 l 171 450 l 107 -56 q 30 -145 94 -144 q -27 -132 3 -145 l -81 -258 q 58 -290 -8 -290 q 250 -178 190 -290 q 281 -73 273 -132 z "},"⁄":{"ha":781,"x_min":27,"x_max":754,"o":"m 191 -15 l 27 -14 l 593 997 l 754 997 l 191 -15 z "},"g":{"ha":682,"x_min":27,"x_max":669,"o":"m 326 313 q 235 382 256 313 q 228 433 228 406 q 298 552 228 534 q 323 555 311 555 q 414 484 393 555 q 420 434 420 461 q 351 316 420 335 q 326 313 339 313 m 326 690 q 95 582 168 690 q 52 430 52 517 q 127 248 53 320 q 57 118 58 195 q 118 3 58 47 q 27 -134 28 -61 q 151 -270 27 -228 q 300 -292 217 -292 q 610 -180 517 -292 q 655 -62 655 -126 q 556 87 655 39 q 406 115 494 117 l 274 113 q 197 153 198 113 q 222 194 198 175 q 326 178 270 178 q 551 281 476 178 q 597 433 597 346 q 563 559 595 502 l 669 555 l 669 689 l 408 678 q 326 690 369 690 m 324 -155 q 190 -88 194 -151 q 225 -31 191 -60 l 245 -31 l 381 -28 q 484 -77 483 -27 q 406 -145 484 -125 q 324 -155 369 -155 z "},"ğ":{"ha":682,"x_min":27,"x_max":669,"o":"m 326 313 q 235 382 256 313 q 228 433 228 406 q 298 552 228 534 q 323 555 311 555 q 414 484 393 555 q 420 434 420 461 q 351 316 420 335 q 326 313 339 313 m 326 690 q 95 582 168 690 q 52 430 52 517 q 127 248 53 320 q 57 118 58 195 q 118 3 58 47 q 27 -134 28 -61 q 151 -270 27 -228 q 300 -292 217 -292 q 610 -180 517 -292 q 655 -62 655 -126 q 556 87 655 39 q 406 115 494 117 l 274 113 q 197 153 198 113 q 222 194 198 175 q 326 178 270 178 q 551 281 476 178 q 597 433 597 346 q 563 559 595 502 l 669 555 l 669 689 l 408 678 q 326 690 369 690 m 324 -155 q 190 -88 194 -151 q 225 -31 191 -60 l 245 -31 l 381 -28 q 484 -77 483 -27 q 406 -145 484 -125 q 324 -155 369 -155 m 110 981 q 210 795 109 852 q 320 766 260 766 q 486 844 426 766 q 529 982 529 901 l 415 987 q 350 899 408 918 q 321 895 335 895 q 239 945 266 895 q 225 991 228 967 l 110 981 z "},"ß":{"ha":827,"x_min":37,"x_max":792,"o":"m 792 202 q 677 422 792 317 q 636 457 663 435 q 562 538 571 513 q 559 553 559 545 q 609 628 559 583 q 689 713 671 682 q 712 798 712 753 q 594 970 712 913 q 434 1004 522 1004 q 193 921 285 1004 q 115 751 115 852 l 115 678 l 37 678 l 37 549 l 115 549 l 115 0 l 292 0 l 292 743 q 365 864 292 834 q 412 873 388 873 q 526 827 492 873 q 541 785 541 808 q 490 705 541 746 q 416 637 433 659 q 384 533 384 594 q 476 363 384 445 q 515 330 488 351 q 606 235 589 270 q 617 189 617 212 q 568 118 617 134 q 548 115 559 115 q 423 159 495 117 l 373 43 q 557 -20 468 -20 q 738 56 667 -20 q 792 202 792 117 z "},"`":{"ha":442,"x_min":58,"x_max":403,"o":"m 58 907 l 144 1035 l 403 853 l 335 749 l 58 907 z "},">":{"ha":600,"x_min":54,"x_max":559,"o":"m 559 343 l 179 732 l 54 628 l 345 342 l 56 50 l 186 -52 l 559 343 z "},"≥":{"ha":532,"x_min":61,"x_max":491,"o":"m 491 452 l 167 731 l 61 618 l 271 452 l 61 281 l 157 164 l 491 452 m 479 -14 l 479 136 l 71 136 l 71 -14 l 479 -14 z "},"«":{"ha":718,"x_min":34,"x_max":662,"o":"m 347 562 l 222 647 l 34 359 l 218 68 l 345 155 l 218 361 l 347 562 m 662 560 l 540 647 l 338 359 l 536 68 l 659 156 l 522 361 l 662 560 z "},"»":{"ha":711,"x_min":35,"x_max":663,"o":"m 350 153 l 475 68 l 663 355 l 479 647 l 353 560 l 479 354 l 350 153 m 35 155 l 157 68 l 359 355 l 161 647 l 38 559 l 175 354 l 35 155 z "},"‹":{"ha":416,"x_min":35,"x_max":362,"o":"m 362 555 l 231 647 l 35 359 l 227 68 l 358 161 l 224 361 l 362 555 z "},"›":{"ha":416,"x_min":54,"x_max":381,"o":"m 54 156 l 186 64 l 381 351 l 190 643 l 58 549 l 193 350 l 54 156 z "},"h":{"ha":718,"x_min":79,"x_max":690,"o":"m 684 117 q 635 159 636 114 l 635 456 q 525 678 635 623 q 437 699 484 699 q 255 608 327 697 l 255 983 l 79 983 l 79 0 l 255 0 l 255 349 q 335 549 255 510 q 374 559 354 559 q 453 486 437 559 q 458 438 458 463 l 458 149 q 605 -20 458 -12 q 690 -12 644 -22 l 684 117 z "},"˝":{"ha":719,"x_min":66,"x_max":674,"o":"m 384 921 l 294 1029 l 66 836 l 138 749 l 384 921 m 674 921 l 585 1029 l 357 836 l 429 749 l 674 921 z "},"-":{"ha":449,"x_min":54,"x_max":395,"o":"m 54 434 l 54 298 l 395 298 l 395 434 l 54 434 z "},"i":{"ha":332,"x_min":57,"x_max":277,"o":"m 254 0 l 254 678 l 77 678 l 77 0 l 254 0 m 277 876 q 209 983 277 958 q 167 991 189 991 q 69 932 96 991 q 57 876 57 907 q 125 764 57 791 q 165 757 145 757 q 263 815 233 757 q 277 876 277 842 z "},"í":{"ha":332,"x_min":37,"x_max":381,"o":"m 254 0 l 254 678 l 77 678 l 77 0 l 254 0 m 381 907 l 296 1035 l 37 853 l 104 749 l 381 907 z "},"î":{"ha":332,"x_min":-31,"x_max":370,"o":"m 171 1009 l -31 842 l 42 754 l 167 854 l 292 751 l 370 842 l 171 1009 m 254 0 l 254 678 l 77 678 l 77 0 l 254 0 z "},"ï":{"ha":332,"x_min":-47,"x_max":380,"o":"m 136 876 q 76 968 136 948 q 45 974 60 974 q -39 921 -16 974 q -47 876 -47 901 q 12 780 -47 800 q 43 774 28 774 q 125 825 100 774 q 136 876 136 848 m 380 876 q 320 968 380 948 q 288 974 304 974 q 206 924 229 974 q 197 876 197 902 q 256 780 197 800 q 286 774 271 774 q 370 826 346 774 q 380 876 380 849 m 254 0 l 254 678 l 77 678 l 77 0 l 254 0 z "},"ì":{"ha":332,"x_min":-30,"x_max":315,"o":"m 254 0 l 254 678 l 77 678 l 77 0 l 254 0 m -30 907 l 56 1035 l 315 853 l 247 749 l -30 907 z "},"ī":{"ha":332,"x_min":1,"x_max":331,"o":"m 1 941 l 1 806 l 331 806 l 331 941 l 1 941 m 254 0 l 254 678 l 77 678 l 77 0 l 254 0 z "},"∞":{"ha":1176,"x_min":41,"x_max":1135,"o":"m 871 114 q 1088 218 1015 114 q 1135 373 1135 286 q 1046 572 1135 500 q 876 625 978 625 q 595 480 761 624 q 305 625 439 624 q 88 521 161 625 q 41 366 41 453 q 129 170 41 241 q 301 114 198 114 q 581 254 415 114 q 585 258 583 256 q 871 114 741 114 m 863 266 q 720 357 811 266 q 694 382 708 368 q 856 473 802 472 q 951 410 926 473 q 959 365 959 388 q 906 274 959 298 q 863 266 886 266 m 320 266 q 225 330 250 266 q 217 374 217 351 q 273 464 217 441 q 313 472 292 472 q 457 381 362 472 q 481 358 468 372 q 320 266 380 266 z "},"∫":{"ha":463,"x_min":22,"x_max":422,"o":"m 323 -19 q 297 674 323 73 q 294 757 296 723 q 332 871 290 836 q 372 884 350 884 q 396 880 384 884 l 422 1017 q 330 1032 370 1032 q 140 903 193 1032 q 115 758 115 841 q 141 65 115 666 q 144 -18 142 16 q 75 -145 149 -144 q 41 -140 57 -145 l 22 -279 q 109 -293 66 -293 q 294 -171 240 -293 q 323 -19 323 -106 z "},"į":{"ha":332,"x_min":-14,"x_max":275,"o":"m 254 0 l 254 678 l 77 678 l 77 0 q -14 -153 -12 -76 q 94 -283 -14 -256 q 160 -292 125 -292 q 269 -275 216 -292 l 260 -159 q 209 -167 233 -167 q 137 -121 144 -167 q 136 -111 136 -115 q 254 0 138 -42 m 165 761 q 262 818 232 761 q 275 879 275 845 q 209 985 275 959 q 167 993 189 993 q 71 937 99 993 q 58 879 58 910 q 125 769 58 795 q 165 761 145 761 z "},"j":{"ha":342,"x_min":-88,"x_max":286,"o":"m 263 -65 l 263 678 l 87 678 l 87 -69 q 46 -148 87 -140 q 30 -149 38 -149 q -39 -127 5 -148 l -88 -260 q 60 -292 -24 -292 q 239 -186 187 -292 q 263 -65 263 -133 m 286 876 q 218 983 286 958 q 176 991 198 991 q 79 932 106 991 q 66 876 66 907 q 134 764 66 791 q 175 757 155 757 q 273 815 243 757 q 286 876 286 842 z "},"k":{"ha":689,"x_min":81,"x_max":689,"o":"m 620 -20 q 689 -12 651 -20 l 682 117 q 662 115 671 115 q 609 151 629 118 l 480 377 l 663 678 l 490 678 l 363 460 l 258 458 l 258 983 l 81 983 l 81 0 l 258 0 l 258 317 l 342 317 l 465 90 q 564 -12 510 7 q 620 -20 590 -20 z "},"l":{"ha":382,"x_min":77,"x_max":382,"o":"m 263 -20 q 382 -3 317 -20 l 351 129 q 308 122 324 122 q 254 183 258 122 q 254 197 254 190 l 254 983 l 77 983 l 77 180 q 244 -20 77 -9 q 263 -20 254 -20 z "},"ĺ":{"ha":382,"x_min":39,"x_max":384,"o":"m 263 -20 q 382 -3 317 -20 l 351 129 q 308 122 324 122 q 254 183 258 122 q 254 197 254 190 l 254 983 l 77 983 l 77 180 q 244 -20 77 -9 q 263 -20 254 -20 m 384 1192 l 298 1320 l 39 1138 l 107 1034 l 384 1192 z "},"ľ":{"ha":460,"x_min":77,"x_max":486,"o":"m 263 -20 q 382 -3 317 -20 l 351 129 q 308 122 324 122 q 254 183 258 122 q 254 197 254 190 l 254 983 l 77 983 l 77 180 q 244 -20 77 -9 q 263 -20 254 -20 m 486 854 q 425 956 486 932 q 388 963 406 963 q 304 911 330 963 q 293 860 294 888 q 345 779 293 802 q 359 773 353 774 q 297 637 350 728 q 296 633 296 635 l 354 597 q 481 817 458 707 q 486 854 486 837 z "},"<":{"ha":572,"x_min":14,"x_max":518,"o":"m 14 335 l 393 -54 l 518 50 l 228 336 l 517 628 l 387 730 l 14 335 z "},"≤":{"ha":532,"x_min":41,"x_max":471,"o":"m 461 -14 l 461 136 l 53 136 l 53 -14 l 461 -14 m 41 444 l 365 164 l 471 277 l 260 444 l 471 614 l 374 731 l 41 444 z "},"¬":{"ha":684,"x_min":41,"x_max":629,"o":"m 629 138 l 629 439 l 41 439 l 41 297 l 460 297 l 460 138 l 629 138 z "},"◊":{"ha":757,"x_min":14,"x_max":743,"o":"m 439 -5 l 743 456 l 441 921 l 317 921 l 14 449 l 321 -5 l 439 -5 m 384 184 l 203 457 l 370 728 l 557 452 l 384 184 z "},"ł":{"ha":391,"x_min":-39,"x_max":385,"o":"m 263 -20 q 382 -3 317 -20 l 351 129 q 308 122 324 122 q 254 183 258 122 q 254 197 254 190 l 254 411 l 385 465 l 336 585 l 254 551 l 254 983 l 77 983 l 77 479 l -39 431 l 9 312 l 77 339 l 77 180 q 244 -20 77 -9 q 263 -20 254 -20 z "},"m":{"ha":1076,"x_min":75,"x_max":1047,"o":"m 991 460 q 892 675 991 616 q 802 700 850 700 q 624 602 696 700 q 606 575 614 589 q 458 699 564 684 q 431 700 445 700 q 260 613 332 700 q 247 595 252 604 l 244 678 l 75 678 l 75 0 l 251 0 l 251 350 q 334 552 251 515 q 372 560 353 560 q 446 477 434 560 q 449 444 449 461 l 449 0 l 625 0 l 625 350 q 711 555 625 522 q 742 560 726 560 q 811 488 796 560 q 815 444 815 468 l 815 149 q 962 -20 815 -12 q 1047 -12 1001 -22 l 1040 117 q 991 159 993 114 l 991 460 z "},"¯":{"ha":515,"x_min":68,"x_max":448,"o":"m 68 941 l 68 806 l 448 806 l 448 941 l 68 941 z "},"−":{"ha":738,"x_min":81,"x_max":656,"o":"m 81 283 l 656 283 l 656 439 l 81 439 l 81 283 z "},"×":{"ha":684,"x_min":81,"x_max":602,"o":"m 81 521 l 239 363 l 83 208 l 184 106 l 340 262 l 498 104 l 602 209 l 445 366 l 601 522 l 499 624 l 343 468 l 186 625 l 81 521 z "},"n":{"ha":715,"x_min":75,"x_max":686,"o":"m 680 117 q 631 159 632 114 l 631 460 q 526 675 631 618 q 433 699 483 699 q 247 593 317 697 l 244 678 l 75 678 l 75 0 l 251 0 l 251 346 q 335 551 251 511 q 374 559 354 559 q 450 484 434 559 q 454 442 454 464 l 454 149 q 614 -19 458 -16 q 686 -11 648 -19 l 680 117 z "},"ń":{"ha":715,"x_min":75,"x_max":686,"o":"m 680 117 q 631 159 632 114 l 631 460 q 526 675 631 618 q 433 699 483 699 q 247 593 317 697 l 244 678 l 75 678 l 75 0 l 251 0 l 251 346 q 335 551 251 511 q 374 559 354 559 q 450 484 434 559 q 454 442 454 464 l 454 149 q 614 -19 458 -16 q 686 -11 648 -19 l 680 117 m 586 907 l 500 1035 l 241 853 l 309 749 l 586 907 z "},"ň":{"ha":715,"x_min":75,"x_max":686,"o":"m 680 117 q 631 159 632 114 l 631 460 q 526 675 631 618 q 433 699 483 699 q 247 593 317 697 l 244 678 l 75 678 l 75 0 l 251 0 l 251 346 q 335 551 251 511 q 374 559 354 559 q 450 484 434 559 q 454 442 454 464 l 454 149 q 614 -19 458 -16 q 686 -11 648 -19 l 680 117 m 357 749 l 583 925 l 515 1010 l 362 902 l 206 1013 l 132 925 l 357 749 z "},"≠":{"ha":779,"x_min":81,"x_max":697,"o":"m 697 152 l 697 294 l 448 294 l 486 397 l 697 397 l 697 540 l 536 540 l 586 678 l 429 678 l 378 540 l 81 540 l 81 397 l 327 397 l 289 294 l 81 294 l 81 152 l 237 152 l 187 14 l 347 14 l 397 152 l 697 152 z "},"ñ":{"ha":715,"x_min":75,"x_max":686,"o":"m 680 117 q 631 159 632 114 l 631 460 q 526 675 631 618 q 433 699 483 699 q 247 593 317 697 l 244 678 l 75 678 l 75 0 l 251 0 l 251 346 q 335 551 251 511 q 374 559 354 559 q 450 484 434 559 q 454 442 454 464 l 454 149 q 614 -19 458 -16 q 686 -11 648 -19 l 680 117 m 444 911 q 349 943 415 911 q 264 966 298 966 q 114 888 195 966 q 106 880 110 884 l 178 796 q 271 837 232 837 q 373 806 300 837 q 460 783 426 783 q 612 873 545 784 l 540 952 q 444 911 500 913 z "},"#":{"ha":887,"x_min":27,"x_max":860,"o":"m 349 916 l 285 694 l 118 694 l 118 571 l 248 571 l 190 368 l 27 368 l 27 244 l 153 244 l 83 0 l 231 0 l 301 244 l 454 245 l 384 0 l 532 0 l 602 245 l 768 245 l 768 368 l 637 368 l 696 571 l 860 571 l 860 694 l 731 694 l 795 916 l 648 916 l 585 694 l 431 694 l 495 916 l 349 916 m 490 368 l 336 368 l 396 571 l 549 571 l 490 368 z "},"o":{"ha":694,"x_min":39,"x_max":655,"o":"m 347 122 q 229 240 256 122 q 220 339 220 283 q 309 549 220 514 q 349 556 328 556 q 468 430 442 556 q 476 336 476 388 q 381 127 476 157 q 347 122 365 122 m 353 699 q 84 544 164 699 q 39 336 39 457 q 176 23 39 110 q 340 -20 245 -20 q 620 148 544 -20 q 655 339 655 229 q 507 662 655 579 q 353 699 441 699 z "},"ó":{"ha":694,"x_min":39,"x_max":655,"o":"m 347 122 q 229 240 256 122 q 220 339 220 283 q 309 549 220 514 q 349 556 328 556 q 468 430 442 556 q 476 336 476 388 q 381 127 476 157 q 347 122 365 122 m 353 699 q 84 544 164 699 q 39 336 39 457 q 176 23 39 110 q 340 -20 245 -20 q 620 148 544 -20 q 655 339 655 229 q 507 662 655 579 q 353 699 441 699 m 578 907 l 492 1035 l 233 853 l 301 749 l 578 907 z "},"ô":{"ha":694,"x_min":39,"x_max":655,"o":"m 347 122 q 229 240 256 122 q 220 339 220 283 q 309 549 220 514 q 349 556 328 556 q 468 430 442 556 q 476 336 476 388 q 381 127 476 157 q 347 122 365 122 m 353 699 q 84 544 164 699 q 39 336 39 457 q 176 23 39 110 q 340 -20 245 -20 q 620 148 544 -20 q 655 339 655 229 q 507 662 655 579 q 353 699 441 699 m 357 1009 l 132 842 l 202 754 l 353 856 l 503 751 l 579 842 l 357 1009 z "},"ö":{"ha":694,"x_min":39,"x_max":655,"o":"m 347 122 q 229 240 256 122 q 220 339 220 283 q 309 549 220 514 q 349 556 328 556 q 468 430 442 556 q 476 336 476 388 q 381 127 476 157 q 347 122 365 122 m 353 699 q 84 544 164 699 q 39 336 39 457 q 176 23 39 110 q 340 -20 245 -20 q 620 148 544 -20 q 655 339 655 229 q 507 662 655 579 q 353 699 441 699 m 301 876 q 241 968 301 948 q 210 974 225 974 q 126 921 149 974 q 118 876 118 901 q 178 780 118 800 q 209 774 194 774 q 290 825 266 774 q 301 876 301 848 m 582 876 q 522 968 582 948 q 490 974 506 974 q 408 924 431 974 q 399 876 399 902 q 458 780 399 800 q 488 774 473 774 q 572 826 548 774 q 582 876 582 849 z "},"œ":{"ha":1086,"x_min":39,"x_max":1059,"o":"m 1046 57 l 994 174 q 817 122 899 122 q 671 232 709 122 q 659 289 663 259 l 1059 289 l 1059 339 q 788 699 1057 697 q 572 605 655 699 q 568 601 570 602 q 353 699 491 699 q 84 544 164 699 q 39 336 39 457 q 176 23 39 110 q 340 -20 245 -20 q 570 87 491 -19 q 803 -20 658 -20 q 1046 57 933 -19 m 780 563 q 878 465 861 563 q 882 419 882 444 l 662 418 q 760 560 681 544 q 780 563 770 563 m 220 339 q 309 549 220 514 q 349 556 328 556 q 468 430 442 556 q 476 336 476 388 q 381 127 476 157 q 347 122 365 122 q 229 240 256 122 q 220 339 220 283 z "},"˛":{"ha":374,"x_min":57,"x_max":339,"o":"m 339 -275 l 331 -159 q 279 -167 304 -167 q 208 -121 214 -167 q 206 -111 206 -115 q 324 0 209 -42 l 148 0 q 57 -153 58 -76 q 164 -283 57 -256 q 231 -292 195 -292 q 339 -275 286 -292 z "},"ò":{"ha":694,"x_min":39,"x_max":655,"o":"m 347 122 q 229 240 256 122 q 220 339 220 283 q 309 549 220 514 q 349 556 328 556 q 468 430 442 556 q 476 336 476 388 q 381 127 476 157 q 347 122 365 122 m 353 699 q 84 544 164 699 q 39 336 39 457 q 176 23 39 110 q 340 -20 245 -20 q 620 148 544 -20 q 655 339 655 229 q 507 662 655 579 q 353 699 441 699 m 167 907 l 252 1035 l 511 853 l 444 749 l 167 907 z "},"ő":{"ha":694,"x_min":39,"x_max":730,"o":"m 347 122 q 229 240 256 122 q 220 339 220 283 q 309 549 220 514 q 349 556 328 556 q 468 430 442 556 q 476 336 476 388 q 381 127 476 157 q 347 122 365 122 m 353 699 q 84 544 164 699 q 39 336 39 457 q 176 23 39 110 q 340 -20 245 -20 q 620 148 544 -20 q 655 339 655 229 q 507 662 655 579 q 353 699 441 699 m 439 921 l 350 1029 l 122 836 l 194 749 l 439 921 m 730 921 l 640 1029 l 412 836 l 484 749 l 730 921 z "},"ō":{"ha":694,"x_min":39,"x_max":655,"o":"m 347 122 q 229 240 256 122 q 220 339 220 283 q 309 549 220 514 q 349 556 328 556 q 468 430 442 556 q 476 336 476 388 q 381 127 476 157 q 347 122 365 122 m 353 699 q 84 544 164 699 q 39 336 39 457 q 176 23 39 110 q 340 -20 245 -20 q 620 148 544 -20 q 655 339 655 229 q 507 662 655 579 q 353 699 441 699 m 160 941 l 160 806 l 540 806 l 540 941 l 160 941 z "},"½":{"ha":1194,"x_min":9,"x_max":1166,"o":"m 387 -15 l 949 997 l 788 997 l 222 -14 l 387 -15 m 1166 0 l 1166 129 l 986 129 l 1001 146 q 1043 193 1013 161 q 1145 331 1126 278 q 1157 391 1157 361 q 1067 540 1157 488 q 954 570 1015 570 q 764 475 831 570 q 750 454 755 464 l 848 393 q 932 446 884 445 q 1001 404 987 446 q 1004 385 1004 395 q 943 271 1004 340 q 918 244 935 263 q 887 210 898 222 l 768 75 l 768 0 l 1166 0 m 57 724 l 163 765 l 163 486 l 57 486 l 57 366 l 395 366 l 395 486 l 312 486 l 312 916 l 178 916 l 9 844 l 57 724 z "},"¼":{"ha":1204,"x_min":9,"x_max":1184,"o":"m 1115 1 l 1115 95 l 1184 95 l 1184 217 l 1115 217 l 1115 553 l 926 553 l 704 193 l 719 95 l 964 95 l 964 1 l 1115 1 m 387 -15 l 949 997 l 788 997 l 222 -14 l 387 -15 m 57 724 l 163 765 l 163 486 l 57 486 l 57 366 l 395 366 l 395 486 l 312 486 l 312 916 l 178 916 l 9 844 l 57 724 m 964 217 l 854 217 l 964 410 l 964 217 z "},"¹":{"ha":464,"x_min":38,"x_max":423,"o":"m 85 724 l 191 765 l 191 486 l 85 486 l 85 366 l 423 366 l 423 486 l 340 486 l 340 916 l 206 916 l 38 844 l 85 724 z "},"ª":{"ha":477,"x_min":20,"x_max":464,"o":"m 404 404 q 464 411 439 404 l 460 518 l 446 518 q 418 564 419 521 l 418 755 q 311 924 418 886 q 236 936 275 936 q 28 879 134 935 l 76 774 q 203 814 151 814 q 270 750 263 804 l 270 728 l 240 728 q 33 628 77 728 q 20 563 20 598 q 102 422 20 463 q 178 404 137 404 q 300 471 258 404 q 304 479 302 476 q 404 404 323 406 m 210 521 q 170 559 176 521 q 168 571 168 566 q 214 632 168 618 q 240 635 227 635 l 270 635 l 270 617 q 210 521 269 522 z "},"º":{"ha":540,"x_min":34,"x_max":506,"o":"m 270 522 q 191 616 208 522 q 187 670 187 640 q 248 812 187 788 q 271 817 259 817 q 349 724 332 817 q 353 667 353 699 q 289 525 353 544 q 270 522 279 522 m 274 936 q 54 793 109 936 q 34 667 34 738 q 164 420 34 476 q 264 403 209 403 q 492 562 445 403 q 506 670 506 609 q 359 924 506 876 q 274 936 320 936 z "},"ø":{"ha":694,"x_min":39,"x_max":655,"o":"m 457 815 l 414 694 q 353 699 385 699 q 84 544 164 699 q 39 336 39 457 q 172 26 41 114 l 132 -85 l 236 -119 l 274 -15 q 340 -20 302 -20 q 620 148 544 -20 q 655 339 655 229 q 515 656 654 570 l 560 781 l 457 815 m 220 339 q 309 549 220 514 q 349 556 328 556 q 363 555 359 556 l 239 210 q 220 339 220 263 m 347 122 q 324 125 336 122 l 452 481 q 476 336 476 426 q 381 127 476 157 q 347 122 365 122 z "},"õ":{"ha":694,"x_min":39,"x_max":655,"o":"m 347 122 q 229 240 256 122 q 220 339 220 283 q 309 549 220 514 q 349 556 328 556 q 468 430 442 556 q 476 336 476 388 q 381 127 476 157 q 347 122 365 122 m 353 699 q 84 544 164 699 q 39 336 39 457 q 176 23 39 110 q 340 -20 245 -20 q 620 148 544 -20 q 655 339 655 229 q 507 662 655 579 q 353 699 441 699 m 435 911 q 340 943 407 911 q 256 966 290 966 q 106 888 187 966 q 98 880 102 884 l 170 796 q 263 837 224 837 q 365 806 292 837 q 452 783 418 783 q 604 873 537 784 l 532 952 q 435 911 492 913 z "},"p":{"ha":700,"x_min":81,"x_max":662,"o":"m 340 122 q 259 138 298 122 l 259 385 q 332 551 259 518 q 369 559 350 559 q 469 468 441 559 q 481 372 481 426 q 340 122 472 132 m 258 -271 l 258 -11 q 342 -20 298 -20 q 609 134 526 -20 q 662 374 662 232 q 552 651 662 563 q 415 699 492 699 q 250 614 312 697 l 245 678 l 83 678 l 81 -271 l 258 -271 z "},"¶":{"ha":781,"x_min":27,"x_max":693,"o":"m 435 0 l 435 916 l 270 916 q 53 800 114 911 q 27 693 27 751 q 118 514 27 579 q 270 464 180 469 l 270 0 l 435 0 m 693 0 l 693 916 l 528 916 l 528 0 l 693 0 z "},"(":{"ha":444,"x_min":102,"x_max":423,"o":"m 269 404 q 422 983 270 726 l 286 1053 q 102 397 102 750 q 285 -254 103 49 l 423 -180 q 269 404 269 81 z "},")":{"ha":438,"x_min":15,"x_max":336,"o":"m 170 408 q 16 -171 168 87 l 152 -240 q 336 415 336 62 q 153 1066 335 764 l 15 993 q 170 408 170 731 z "},"∂":{"ha":704,"x_min":47,"x_max":662,"o":"m 662 475 q 435 940 662 791 q 326 998 385 972 l 256 869 q 488 598 458 770 q 494 541 492 570 q 328 608 429 608 q 103 476 184 608 q 47 273 47 385 q 144 38 47 119 q 316 -20 213 -20 q 602 174 511 -20 q 662 475 662 300 m 228 283 q 321 460 228 435 q 351 464 336 464 q 460 359 442 464 q 464 311 464 336 q 373 133 464 160 q 340 129 357 129 q 233 228 254 129 q 228 283 228 254 z "},"%":{"ha":1234,"x_min":27,"x_max":1207,"o":"m 278 566 q 183 661 205 566 q 176 730 176 692 q 250 883 176 859 q 279 888 264 888 q 377 774 361 888 q 380 727 380 753 q 309 571 380 598 q 278 566 294 566 m 283 1004 q 61 879 126 1004 q 27 727 27 812 q 153 477 27 541 q 277 452 208 452 q 494 575 427 452 q 529 731 529 643 q 399 981 529 921 q 283 1004 347 1004 m 956 94 q 861 189 883 94 q 854 258 854 220 q 928 411 854 387 q 958 416 943 416 q 1055 302 1039 416 q 1058 255 1058 281 q 987 99 1058 126 q 956 94 971 94 m 962 532 q 739 407 804 532 q 705 255 705 340 q 831 5 705 69 q 955 -20 886 -20 q 1172 103 1105 -20 q 1207 259 1207 171 q 1077 509 1207 449 q 962 532 1025 532 m 415 -15 l 251 -14 l 817 997 l 978 997 l 415 -15 z "},".":{"ha":339,"x_min":62,"x_max":277,"o":"m 277 100 q 210 209 277 183 q 170 217 190 217 q 75 159 102 217 q 62 100 62 133 q 130 -14 62 11 q 168 -20 149 -20 q 263 38 235 -20 q 277 100 277 66 z "},"·":{"ha":363,"x_min":62,"x_max":301,"o":"m 180 241 q 282 298 247 241 q 301 374 301 332 q 231 492 301 463 q 182 502 206 502 q 79 444 111 502 q 62 374 62 412 q 133 251 62 283 q 180 241 156 241 z "},"‰":{"ha":1790,"x_min":27,"x_max":1770,"o":"m 1519 94 q 1424 189 1446 94 q 1417 258 1417 218 q 1491 411 1417 387 q 1520 416 1506 416 q 1618 302 1602 416 q 1621 255 1621 279 q 1550 99 1621 126 q 1519 94 1534 94 m 1525 532 q 1302 407 1367 532 q 1268 255 1268 340 q 1394 5 1268 69 q 1518 -20 1449 -20 q 1735 103 1668 -20 q 1770 259 1770 171 q 1640 509 1770 449 q 1525 532 1588 532 m 278 566 q 183 661 205 566 q 176 730 176 692 q 250 883 176 859 q 279 888 264 888 q 377 774 361 888 q 380 727 380 753 q 309 571 380 598 q 278 566 294 566 m 283 1004 q 61 879 126 1004 q 27 727 27 812 q 153 477 27 541 q 277 452 208 452 q 494 575 427 452 q 529 731 529 643 q 399 981 529 921 q 283 1004 347 1004 m 956 94 q 861 189 883 94 q 854 258 854 220 q 928 411 854 387 q 958 416 943 416 q 1055 302 1039 416 q 1058 255 1058 281 q 987 99 1058 126 q 956 94 971 94 m 962 532 q 739 407 804 532 q 705 255 705 340 q 831 5 705 69 q 955 -20 886 -20 q 1172 103 1105 -20 q 1207 259 1207 171 q 1077 509 1207 449 q 962 532 1025 532 m 415 -15 l 251 -14 l 817 997 l 978 997 l 415 -15 z "},"π":{"ha":808,"x_min":27,"x_max":808,"o":"m 781 549 l 781 678 l 27 678 l 27 549 l 129 549 l 129 0 l 305 0 l 305 549 l 503 549 l 503 180 q 670 -20 503 -9 q 689 -20 680 -20 q 808 -3 743 -20 l 777 129 q 734 122 750 122 q 680 183 684 122 q 680 197 680 190 l 680 549 l 781 549 z "},"+":{"ha":670,"x_min":34,"x_max":636,"o":"m 636 283 l 636 430 l 420 430 l 420 639 l 251 639 l 251 430 l 34 430 l 34 283 l 251 283 l 251 75 l 420 75 l 420 283 l 636 283 z "},"±":{"ha":670,"x_min":47,"x_max":623,"o":"m 623 -14 l 623 136 l 47 136 l 47 -14 l 623 -14 m 623 381 l 623 528 l 420 528 l 420 709 l 251 709 l 251 528 l 47 528 l 47 381 l 251 381 l 251 199 l 420 199 l 420 381 l 623 381 z "},"∏":{"ha":926,"x_min":27,"x_max":899,"o":"m 594 -237 l 773 -237 l 773 766 l 899 766 l 899 916 l 27 916 l 27 766 l 160 766 l 160 -237 l 339 -237 l 339 766 l 594 766 l 594 -237 z "},"q":{"ha":693,"x_min":38,"x_max":618,"o":"m 38 304 q 149 26 38 110 q 286 -20 209 -20 q 438 49 381 -19 l 441 -305 l 617 -305 l 618 637 q 358 699 491 699 q 95 551 180 699 q 38 304 38 450 m 442 537 l 441 286 q 331 119 431 127 q 227 224 252 119 q 218 307 218 260 q 335 553 218 532 q 359 556 347 556 q 442 537 396 556 z "},"?":{"ha":656,"x_min":7,"x_max":575,"o":"m 297 270 q 296 300 296 282 q 381 471 296 393 q 430 510 396 484 q 541 624 513 578 q 575 749 575 680 q 452 970 575 895 q 285 1015 377 1015 q 64 921 146 1015 q 7 819 24 876 l 160 768 q 251 864 180 846 q 278 867 264 867 q 381 810 346 867 q 399 742 399 779 q 330 624 399 681 q 294 597 319 614 q 175 480 208 532 q 127 304 127 406 q 130 262 127 288 l 297 270 m 339 100 q 273 209 339 183 q 232 217 252 217 q 137 159 164 217 q 125 100 125 133 q 193 -14 125 11 q 231 -20 212 -20 q 326 38 297 -20 q 339 100 339 66 z "},"¿":{"ha":656,"x_min":81,"x_max":650,"o":"m 359 411 q 361 381 361 399 q 275 210 361 288 q 227 171 260 197 q 115 57 144 103 q 81 -68 81 1 q 205 -289 81 -214 q 372 -334 279 -334 q 593 -240 510 -334 q 650 -138 632 -195 l 496 -87 q 406 -183 476 -165 q 378 -186 392 -186 q 275 -129 311 -186 q 258 -61 258 -98 q 327 57 258 0 q 362 84 338 66 q 481 201 449 149 q 529 377 529 275 q 526 419 529 393 l 359 411 m 317 581 q 384 472 317 498 q 425 464 404 464 q 519 522 492 464 q 532 581 532 548 q 464 694 532 670 q 426 701 445 701 q 331 643 359 701 q 317 581 317 614 z "},"\"":{"ha":479,"x_min":41,"x_max":438,"o":"m 208 1004 l 41 1004 l 65 658 l 183 658 l 208 1004 m 438 1004 l 271 1004 l 296 658 l 414 658 l 438 1004 z "},"„":{"ha":576,"x_min":49,"x_max":521,"o":"m 519 96 q 453 210 519 182 q 408 220 431 220 q 313 164 343 220 q 300 103 300 136 q 354 9 300 37 q 376 1 365 4 q 305 -152 365 -47 q 302 -159 304 -156 l 369 -201 q 514 43 484 -80 q 519 96 519 72 m 270 96 q 203 210 270 182 q 159 220 182 220 q 64 164 94 220 q 50 103 50 136 q 104 9 50 37 q 126 1 115 4 q 56 -152 115 -47 q 53 -159 54 -156 l 119 -201 q 270 96 270 -43 z "},"“":{"ha":563,"x_min":54,"x_max":530,"o":"m 56 712 q 122 598 56 627 q 167 589 144 589 q 262 644 232 589 q 275 705 275 673 q 221 799 275 772 q 199 807 210 804 q 270 960 210 856 q 273 967 271 964 l 206 1009 q 61 765 91 888 q 56 712 56 736 m 309 713 q 376 600 309 628 q 420 590 397 590 q 515 646 486 590 q 529 707 529 674 q 475 800 529 773 q 453 808 464 806 q 524 962 464 857 q 526 968 525 966 l 460 1010 q 315 766 345 890 q 309 713 309 738 z "},"”":{"ha":581,"x_min":53,"x_max":528,"o":"m 526 861 q 460 975 526 947 q 415 985 438 985 q 320 929 350 985 q 307 868 307 901 q 361 774 307 802 q 382 766 372 769 q 312 613 372 718 q 309 606 311 609 l 376 564 q 521 808 491 685 q 526 861 526 837 m 274 861 q 208 975 274 947 q 163 985 186 985 q 68 929 98 985 q 54 868 54 901 q 109 774 54 802 q 130 766 119 769 q 60 613 119 718 q 57 606 58 609 l 123 564 q 269 808 239 685 q 274 861 274 837 z "},"‘":{"ha":300,"x_min":54,"x_max":277,"o":"m 56 712 q 122 598 56 627 q 167 589 144 589 q 262 644 232 589 q 275 705 275 673 q 221 799 275 772 q 199 807 210 804 q 270 960 210 856 q 273 967 271 964 l 206 1009 q 61 765 91 888 q 56 712 56 736 z "},"’":{"ha":304,"x_min":34,"x_max":256,"o":"m 255 861 q 189 975 255 947 q 144 985 167 985 q 49 929 79 985 q 35 868 35 901 q 90 774 35 802 q 111 766 100 769 q 41 613 100 718 q 38 606 39 609 l 104 564 q 250 808 220 685 q 255 861 255 837 z "},"‚":{"ha":326,"x_min":46,"x_max":269,"o":"m 267 96 q 201 210 267 182 q 156 220 179 220 q 61 164 91 220 q 47 103 47 136 q 102 9 47 37 q 123 1 113 4 q 53 -152 113 -47 q 50 -159 52 -156 l 117 -201 q 267 96 267 -43 z "},"'":{"ha":235,"x_min":34,"x_max":201,"o":"m 201 1004 l 34 1004 l 58 658 l 176 658 l 201 1004 z "},"r":{"ha":461,"x_min":77,"x_max":465,"o":"m 254 0 l 254 345 q 331 522 254 483 q 381 534 355 534 q 446 519 411 534 l 465 697 q 433 699 453 699 q 248 570 305 697 l 243 685 l 77 685 l 77 0 l 254 0 z "},"ŕ":{"ha":461,"x_min":75,"x_max":465,"o":"m 254 0 l 254 345 q 331 522 254 483 q 381 534 355 534 q 446 519 411 534 l 465 697 q 433 699 453 699 q 248 570 305 697 l 243 685 l 77 685 l 77 0 l 254 0 m 419 907 l 334 1035 l 75 853 l 142 749 l 419 907 z "},"√":{"ha":903,"x_min":0,"x_max":903,"o":"m 499 -163 l 760 861 l 903 861 l 903 1004 l 623 1004 l 410 85 l 254 562 l 0 476 l 42 338 l 138 373 l 327 -163 l 499 -163 z "},"ř":{"ha":458,"x_min":23,"x_max":475,"o":"m 254 0 l 254 345 q 331 522 254 483 q 381 534 355 534 q 446 519 411 534 l 465 697 q 433 699 453 699 q 248 570 305 697 l 243 685 l 77 685 l 77 0 l 254 0 m 248 749 l 475 925 l 407 1010 l 254 902 l 98 1013 l 23 925 l 248 749 z "},"®":{"ha":1057,"x_min":46,"x_max":1010,"o":"m 471 182 l 471 380 l 518 380 l 522 380 l 589 237 q 686 171 620 172 q 739 176 718 171 l 736 260 l 726 260 q 694 281 705 262 l 631 403 q 724 566 723 450 q 515 731 722 730 q 349 728 437 731 l 349 182 l 471 182 m 518 632 q 598 555 597 629 q 549 481 598 496 q 525 477 537 477 l 471 477 l 471 632 l 518 632 m 1010 460 q 840 834 1010 701 q 533 936 708 936 q 202 818 339 936 q 46 456 46 682 q 218 80 46 213 q 525 -20 350 -20 q 854 98 719 -20 q 1010 460 1010 233 m 189 458 q 330 761 189 663 q 526 821 416 821 q 781 712 684 821 q 868 457 868 612 q 724 152 868 248 q 532 95 640 95 q 275 205 372 95 q 189 458 189 304 z "},"˚":{"ha":545,"x_min":110,"x_max":435,"o":"m 435 883 q 350 1028 435 987 q 275 1046 315 1046 q 141 981 190 1046 q 110 880 110 937 q 194 731 110 774 q 269 713 229 713 q 404 780 355 713 q 435 883 435 825 m 214 880 q 256 944 214 932 q 273 947 266 947 q 327 907 313 947 q 331 880 331 894 q 289 817 331 829 q 273 814 279 814 q 218 853 232 814 q 214 880 214 867 z "},"s":{"ha":549,"x_min":23,"x_max":511,"o":"m 510 202 q 395 378 510 316 q 328 411 373 391 q 232 471 248 446 q 222 500 222 486 q 277 564 222 553 q 297 567 288 567 q 393 518 358 567 q 400 507 397 511 l 511 574 q 323 697 461 684 q 290 699 307 699 q 102 627 174 699 q 47 498 47 571 q 161 313 47 377 q 229 281 184 301 q 326 221 308 247 q 335 189 335 205 q 260 117 335 123 q 245 115 252 115 q 87 164 160 117 l 23 61 q 255 -20 123 -20 q 461 64 389 -20 q 510 202 510 122 z "},"ś":{"ha":549,"x_min":23,"x_max":511,"o":"m 510 202 q 395 378 510 316 q 328 411 373 391 q 232 471 248 446 q 222 500 222 486 q 277 564 222 553 q 297 567 288 567 q 393 518 358 567 q 400 507 397 511 l 511 574 q 323 697 461 684 q 290 699 307 699 q 102 627 174 699 q 47 498 47 571 q 161 313 47 377 q 229 281 184 301 q 326 221 308 247 q 335 189 335 205 q 260 117 335 123 q 245 115 252 115 q 87 164 160 117 l 23 61 q 255 -20 123 -20 q 461 64 389 -20 q 510 202 510 122 m 494 907 l 408 1035 l 149 853 l 217 749 l 494 907 z "},"š":{"ha":566,"x_min":23,"x_max":530,"o":"m 510 202 q 395 378 510 316 q 328 411 373 391 q 232 471 248 446 q 222 500 222 486 q 277 564 222 553 q 297 567 288 567 q 393 518 358 567 q 400 507 397 511 l 511 574 q 323 697 461 684 q 290 699 307 699 q 102 627 174 699 q 47 498 47 571 q 161 313 47 377 q 229 281 184 301 q 326 221 308 247 q 335 189 335 205 q 260 117 335 123 q 245 115 252 115 q 87 164 160 117 l 23 61 q 255 -20 123 -20 q 461 64 389 -20 q 510 202 510 122 m 304 749 l 530 925 l 463 1010 l 309 902 l 153 1013 l 79 925 l 304 749 z "},"§":{"ha":553,"x_min":37,"x_max":517,"o":"m 206 473 q 214 511 206 494 q 319 429 297 456 q 345 359 345 396 q 336 324 345 342 q 233 406 254 382 q 206 473 206 438 m 517 399 q 400 594 517 510 q 343 632 381 608 q 248 709 264 681 q 240 739 240 724 q 297 803 240 792 q 317 804 308 804 q 393 773 363 799 l 481 873 q 305 935 406 935 q 114 859 183 935 q 65 732 65 806 q 115 593 66 654 q 37 442 38 537 q 151 243 37 328 q 208 205 170 229 q 300 125 283 155 q 308 94 308 110 q 220 23 304 24 q 92 54 155 23 l 46 -60 q 231 -114 137 -114 q 435 -28 365 -114 q 483 110 483 30 q 442 232 481 178 q 517 399 517 293 z "},";":{"ha":324,"x_min":47,"x_max":263,"o":"m 260 103 q 199 209 260 183 q 153 218 178 218 q 58 157 87 218 q 47 109 47 133 q 99 19 47 45 q 121 11 110 14 q 54 -137 111 -34 q 52 -142 53 -141 l 119 -183 q 260 103 259 -26 m 263 442 q 197 551 263 525 q 156 559 176 559 q 61 500 88 559 q 49 442 49 475 q 117 328 49 353 q 155 321 136 321 q 250 380 221 321 q 263 442 263 408 z "},"අ":{"ha":758,"x_min":30,"x_max":726,"o":"m 547 511 q 536 513 538 511 q 578 654 538 616 q 590 663 585 659 q 594 648 591 658 q 610 567 610 593 q 547 511 608 513 m 393 -278 l 534 -278 l 534 31 q 723 151 648 73 l 629 263 q 553 201 578 216 q 534 190 543 194 l 534 403 q 578 399 559 399 q 713 484 680 399 q 724 541 724 511 q 709 662 724 560 q 705 701 705 686 q 726 749 707 735 l 669 833 q 479 734 582 833 q 324 808 419 807 q 160 719 210 808 q 136 621 136 674 q 164 526 137 570 q 34 343 57 461 q 30 294 30 319 q 152 56 30 136 q 366 0 237 0 q 392 1 384 0 l 393 -278 m 391 567 q 324 571 353 571 q 278 567 300 571 q 263 614 263 585 q 304 673 263 662 q 324 675 315 675 q 388 627 370 675 q 393 591 393 610 q 391 567 393 585 m 366 152 q 190 248 222 152 q 182 294 182 270 q 247 408 182 368 q 324 431 283 431 l 391 431 l 392 153 q 366 152 382 152 z "},"ආ":{"ha":1105,"x_min":30,"x_max":1099,"o":"m 547 505 q 536 506 538 505 q 578 647 538 609 q 590 656 585 652 q 594 642 591 651 q 610 560 610 586 q 547 505 608 506 m 393 -285 l 534 -285 l 534 24 q 723 144 648 66 l 629 256 q 553 194 578 209 q 534 183 543 187 l 534 396 q 578 392 559 392 q 713 477 680 392 q 724 534 724 505 q 709 655 724 553 q 705 694 705 680 q 726 742 707 728 l 669 826 q 479 727 582 826 q 324 802 419 800 q 160 712 210 802 q 136 614 136 667 q 164 519 137 563 q 34 336 57 454 q 30 288 30 312 q 152 49 30 129 q 366 -7 237 -7 q 392 -5 384 -7 l 393 -285 m 391 560 q 324 564 353 564 q 278 560 300 564 q 263 608 263 578 q 304 666 263 655 q 324 669 315 669 q 388 620 370 669 q 393 585 393 604 q 391 560 393 578 m 366 145 q 190 241 222 145 q 182 288 182 263 q 247 401 182 361 q 324 425 283 425 l 391 425 l 392 146 q 366 145 382 145 m 793 732 l 815 591 q 852 598 838 598 q 940 441 929 598 q 943 376 943 411 q 863 155 943 165 q 852 153 857 153 q 815 160 837 153 l 793 19 q 865 3 823 3 q 1053 130 991 3 q 1099 376 1099 224 q 955 727 1099 654 q 865 749 913 749 q 793 732 823 749 z "},"ඈ":{"ha":1202,"x_min":30,"x_max":1172,"o":"m 547 511 q 536 513 538 511 q 578 654 538 616 q 590 663 585 659 q 594 648 591 658 q 610 567 610 593 q 547 511 608 513 m 393 -278 l 534 -278 l 534 31 q 723 151 648 73 l 629 263 q 553 201 578 216 q 534 190 543 194 l 534 403 q 578 399 559 399 q 713 484 680 399 q 724 541 724 511 q 709 662 724 560 q 705 701 705 686 q 726 749 707 735 l 669 833 q 479 734 582 833 q 324 808 419 807 q 160 719 210 808 q 136 621 136 674 q 164 526 137 570 q 34 343 57 461 q 30 294 30 319 q 152 56 30 136 q 366 0 237 0 q 392 1 384 0 l 393 -278 m 391 567 q 324 571 353 571 q 278 567 300 571 q 263 614 263 585 q 304 673 263 662 q 324 675 315 675 q 388 627 370 675 q 393 591 393 610 q 391 567 393 585 m 366 152 q 190 248 222 152 q 182 294 182 270 q 247 408 182 368 q 324 431 283 431 l 391 431 l 392 153 q 366 152 382 152 m 760 213 q 831 43 760 103 q 966 0 884 0 q 1162 156 1123 0 q 1172 243 1172 197 l 1042 243 q 963 141 1039 142 q 895 213 898 146 q 996 369 895 319 q 1067 388 1035 388 l 1097 388 l 1097 507 l 939 507 l 1097 612 l 1097 741 l 779 741 l 779 606 l 902 606 l 779 507 l 779 388 l 831 388 q 760 213 760 313 z "},"ඇ":{"ha":1194,"x_min":30,"x_max":1168,"o":"m 547 511 q 536 513 538 511 q 578 654 538 616 q 590 663 585 659 q 594 648 591 658 q 610 567 610 593 q 547 511 608 513 m 393 -278 l 534 -278 l 534 31 q 723 151 648 73 l 629 263 q 553 201 578 216 q 534 190 543 194 l 534 403 q 578 399 559 399 q 713 484 680 399 q 724 541 724 511 q 709 662 724 560 q 705 701 705 686 q 726 749 707 735 l 669 833 q 479 734 582 833 q 324 808 419 807 q 160 719 210 808 q 136 621 136 674 q 164 526 137 570 q 34 343 57 461 q 30 294 30 319 q 152 56 30 136 q 366 0 237 0 q 392 1 384 0 l 393 -278 m 391 567 q 324 571 353 571 q 278 567 300 571 q 263 614 263 585 q 304 673 263 662 q 324 675 315 675 q 388 627 370 675 q 393 591 393 610 q 391 567 393 585 m 366 152 q 190 248 222 152 q 182 294 182 270 q 247 408 182 368 q 324 431 283 431 l 391 431 l 392 153 q 366 152 382 152 m 755 227 q 821 54 755 119 q 962 0 875 0 q 1158 156 1119 0 q 1168 243 1168 197 l 1038 243 q 967 151 1036 152 q 902 227 907 163 q 967 400 902 302 q 1123 612 989 434 l 1123 741 l 804 741 l 804 606 l 951 606 q 827 435 838 454 q 755 227 755 324 z "},"ඓ":{"ha":1317,"x_min":8,"x_max":1313,"o":"m 335 355 q 370 406 335 393 q 389 410 380 410 q 438 377 425 410 q 442 355 442 366 q 408 305 442 319 q 389 301 397 301 q 339 336 351 301 q 335 355 335 346 m 216 363 q 283 224 217 277 q 374 195 320 195 q 446 214 416 197 q 321 144 411 145 q 186 236 236 144 q 152 380 152 300 q 233 593 152 514 q 346 642 285 642 q 464 600 415 642 q 483 582 472 591 l 581 673 q 346 785 467 781 q 100 662 199 785 q 8 380 8 544 q 132 65 8 167 q 321 0 212 0 q 560 156 499 0 q 583 289 583 217 q 475 522 583 468 q 392 540 437 540 q 248 467 301 540 q 216 363 216 419 m 1090 757 q 1024 802 1039 757 q 1021 821 1021 812 q 1054 871 1023 854 q 1116 761 1099 829 q 1090 757 1101 757 m 882 815 q 962 674 882 734 q 1112 624 1028 624 l 1143 624 q 1161 467 1161 510 q 1025 172 1161 229 q 940 156 987 156 q 774 245 807 156 q 766 290 766 267 q 844 412 766 395 q 871 415 857 415 l 1016 415 q 1025 496 1025 460 q 928 693 1025 635 q 825 722 880 722 q 677 640 719 722 q 656 555 656 601 q 658 533 656 540 l 610 533 l 610 415 l 661 415 q 618 273 618 361 q 712 68 618 144 q 940 0 798 0 q 1265 208 1173 0 q 1313 460 1313 315 q 1210 887 1313 689 q 1020 1100 1128 1043 l 945 1010 q 966 975 966 991 q 935 930 966 962 q 882 815 883 875 m 779 549 q 825 602 781 601 q 892 547 879 602 q 895 530 895 538 l 781 532 q 779 549 779 544 z "},"ඖ":{"ha":1229,"x_min":30,"x_max":1199,"o":"m 30 343 q 229 0 31 1 q 366 84 323 0 q 376 107 372 95 q 488 4 404 20 q 524 0 506 0 q 751 254 724 0 q 757 397 757 307 q 602 944 757 810 q 355 1024 509 1024 q 129 933 220 1024 q 64 831 85 888 l 212 783 q 319 864 237 846 q 355 868 338 868 q 566 707 513 868 q 601 397 601 598 q 524 156 597 161 q 445 339 446 160 l 315 339 q 250 157 315 175 q 236 156 243 156 q 175 361 175 157 q 239 582 176 581 q 262 560 258 578 q 259 533 262 551 q 258 509 258 517 q 389 366 260 368 q 519 461 496 366 q 528 548 528 496 q 422 713 528 697 q 397 715 410 715 q 321 686 350 713 q 231 715 283 715 q 38 472 73 715 q 30 343 30 412 m 373 594 l 373 600 q 391 605 381 605 q 418 549 418 602 q 396 496 416 498 q 370 547 370 499 q 372 566 370 552 q 373 594 373 583 m 787 473 q 910 316 789 317 q 975 332 954 316 q 1000 368 997 349 q 1009 404 1002 388 q 1031 420 1016 420 q 1061 332 1059 420 q 1061 301 1061 320 q 1012 133 1061 163 q 993 127 1002 127 q 952 146 968 127 q 947 152 948 151 l 863 73 q 971 4 907 16 q 1015 0 993 0 q 1181 153 1141 0 q 1199 301 1199 217 q 1137 518 1199 446 q 1039 564 1097 563 q 968 545 991 564 q 943 503 944 526 q 938 460 941 479 q 922 441 935 441 q 898 495 898 444 q 945 583 898 562 q 974 590 959 590 l 974 694 q 788 510 802 694 q 787 473 787 492 z "},"බ":{"ha":780,"x_min":30,"x_max":751,"o":"m 30 298 q 232 0 31 1 q 346 53 300 1 q 494 0 397 0 q 730 218 673 0 q 751 397 751 301 q 597 944 751 810 q 350 1024 503 1024 q 126 936 217 1024 q 58 831 81 890 l 206 783 q 313 864 232 846 q 350 868 332 868 q 560 707 507 868 q 595 397 595 598 q 526 168 595 214 q 488 156 509 156 q 437 213 448 156 q 434 240 434 227 q 467 326 434 271 q 503 439 503 387 q 365 651 503 608 q 274 663 324 663 q 37 414 71 663 q 30 298 30 361 m 232 149 q 179 270 184 149 q 179 298 179 283 q 273 510 180 509 q 351 439 350 507 q 317 335 351 399 q 288 240 288 279 q 290 186 288 220 q 232 149 266 149 z "},"භ":{"ha":936,"x_min":30,"x_max":906,"o":"m 651 141 q 583 179 606 142 q 589 227 589 202 q 487 382 587 354 q 513 503 498 420 q 571 633 530 606 q 628 648 595 648 q 762 396 761 646 q 666 142 762 161 q 651 141 658 141 m 305 346 l 385 245 l 410 262 q 426 266 423 266 q 445 231 445 264 q 355 151 445 161 q 323 149 339 149 q 206 243 232 149 q 199 298 199 270 q 208 358 199 332 q 278 431 232 429 l 366 433 q 305 346 345 373 m 52 285 q 144 65 52 148 q 323 0 218 0 q 511 58 439 1 q 651 0 566 1 q 905 346 888 0 q 906 396 906 370 q 628 792 905 791 q 449 720 503 791 q 282 806 389 804 q 110 709 159 806 q 90 616 90 667 q 100 553 90 583 l 30 553 l 30 434 l 85 434 q 61 365 72 408 q 52 285 52 317 m 216 601 q 288 673 227 667 q 357 624 340 673 q 362 589 362 606 q 357 553 362 570 l 229 553 q 216 601 216 572 z "},"ච":{"ha":720,"x_min":30,"x_max":690,"o":"m 38 273 q 125 71 38 146 q 335 0 205 0 q 673 286 612 0 q 690 480 690 370 q 324 1024 689 1023 q 95 921 182 1024 q 43 831 62 880 l 191 783 q 302 867 221 856 q 324 868 313 868 q 524 628 490 868 q 533 480 533 562 q 406 168 533 214 q 335 156 374 156 q 194 243 222 156 q 186 290 186 266 q 263 412 186 395 q 290 415 277 415 l 435 415 q 445 496 445 460 q 347 693 445 635 q 244 722 300 722 q 98 640 141 722 q 77 555 77 602 q 79 533 77 540 l 30 533 l 30 415 l 80 415 q 38 273 38 358 m 198 549 q 244 602 201 601 q 312 547 298 602 q 315 530 315 538 l 201 532 q 198 549 198 544 z "},"ඡ":{"ha":768,"x_min":30,"x_max":799,"o":"m 499 564 l 452 564 q 450 589 450 574 q 506 671 450 661 q 519 673 513 673 q 601 547 600 670 q 499 564 552 564 m 495 377 q 458 407 461 380 q 477 431 460 426 l 491 431 q 564 406 537 430 q 495 377 538 377 m 175 304 q 244 425 175 399 q 286 431 263 431 l 355 431 q 345 384 345 408 q 403 281 345 317 q 488 259 439 259 q 601 286 549 259 q 487 157 590 195 q 388 141 441 141 q 212 208 273 141 q 175 304 175 248 m 30 304 q 175 41 30 130 q 389 -16 269 -16 q 655 80 552 -16 q 747 304 747 168 q 715 444 747 385 q 728 555 728 491 q 656 761 727 696 q 791 982 769 880 q 799 1057 799 1019 l 650 1057 q 617 930 650 985 q 515 806 586 880 q 389 751 439 800 q 252 806 332 806 q 88 716 138 806 q 64 618 64 671 q 106 502 65 559 q 30 304 30 429 m 191 612 q 244 671 191 665 q 258 673 251 673 q 323 624 308 673 q 328 589 328 606 q 326 564 328 579 l 278 564 q 210 556 240 564 q 191 612 193 583 z "},"ද":{"ha":576,"x_min":30,"x_max":624,"o":"m 30 294 q 129 75 30 163 q 233 15 176 34 q 209 -79 209 -33 q 288 -232 209 -174 q 419 -274 345 -274 q 624 -145 537 -273 l 519 -75 q 419 -132 477 -130 q 357 -81 369 -132 q 354 -58 354 -69 q 377 5 355 -22 q 559 126 490 27 l 442 210 q 324 157 397 159 q 203 221 245 157 q 182 294 182 255 q 248 410 182 369 q 324 431 283 431 l 499 431 q 525 583 525 515 q 427 780 525 722 q 324 808 380 808 q 160 719 210 808 q 136 621 136 674 q 164 526 137 570 q 34 343 57 461 q 30 294 30 319 m 391 567 q 324 571 353 571 q 278 567 300 571 q 262 614 262 586 q 302 673 262 659 q 324 675 313 675 q 387 625 372 675 q 392 591 392 609 q 391 567 392 576 z "},"ඩ":{"ha":791,"x_min":30,"x_max":761,"o":"m 38 262 q 153 15 38 66 q 233 0 190 0 q 370 84 327 0 q 380 107 376 95 q 492 4 408 20 q 528 0 510 0 q 755 254 728 0 q 761 397 761 307 q 606 944 761 810 q 359 1024 513 1024 q 133 933 224 1024 q 68 831 90 888 l 216 783 q 323 864 241 846 q 359 868 342 868 q 570 707 517 868 q 605 397 605 598 q 528 156 601 161 q 449 339 450 160 l 319 339 q 256 157 319 176 q 241 156 248 156 q 183 262 183 157 q 227 399 183 359 q 264 415 244 415 l 468 415 q 477 496 477 460 q 380 693 477 635 q 277 722 332 722 q 129 640 171 722 q 109 555 109 601 q 111 530 109 545 l 30 530 l 30 415 l 72 415 q 38 262 38 351 m 231 549 q 277 602 233 601 q 345 547 331 602 q 347 529 347 537 l 233 529 q 231 549 231 543 z "},"ඪ":{"ha":751,"x_min":-9,"x_max":731,"o":"m 505 757 q 437 803 452 757 q 434 821 434 812 q 467 871 435 854 q 518 760 502 830 q 505 757 507 757 m 294 815 q 374 674 294 734 q 525 624 441 624 q 549 625 541 624 q 575 397 575 491 q 515 164 575 205 q 488 156 502 156 q 410 339 411 160 l 279 339 q 217 157 279 176 q 202 156 209 156 q 144 262 144 157 q 187 399 144 359 q 225 415 205 415 l 429 415 q 438 496 438 460 q 340 693 438 635 q 237 722 293 722 q 90 640 132 722 q 69 555 69 601 q 72 530 69 545 l -9 530 l -9 415 l 33 415 q -1 262 -1 351 q 104 20 -1 76 q 194 0 144 0 q 332 85 289 0 q 342 107 338 96 q 449 4 368 23 q 488 0 468 0 q 728 307 709 0 q 731 397 731 346 q 616 898 731 681 q 433 1100 537 1044 l 358 1010 q 378 975 378 991 q 347 930 378 962 q 294 815 296 875 m 191 549 q 237 602 194 601 q 305 547 292 602 q 308 529 308 537 l 194 529 q 191 549 191 543 z "},"ධ":{"ha":788,"x_min":30,"x_max":758,"o":"m 30 313 q 49 468 30 408 q 190 629 88 594 q 255 640 221 640 q 370 604 317 639 l 319 468 q 267 484 290 484 q 191 415 214 481 q 180 312 180 384 q 239 156 186 164 q 315 305 307 156 q 316 339 316 323 l 446 339 q 515 157 446 171 q 526 156 521 156 q 602 397 602 157 q 507 811 602 715 q 357 868 452 868 q 233 814 278 868 q 214 783 221 799 l 65 831 q 241 1004 113 955 q 357 1024 298 1024 q 701 799 612 1024 q 758 397 758 654 q 720 122 758 206 q 526 0 665 1 q 387 85 429 0 q 378 107 382 96 q 273 5 351 26 q 232 0 252 0 q 43 182 85 0 q 30 313 30 243 z "},"එ":{"ha":735,"x_min":30,"x_max":732,"o":"m 510 757 q 444 802 458 757 q 441 821 441 812 q 473 871 442 854 q 536 761 518 829 q 510 757 521 757 m 301 815 q 381 674 301 734 q 532 624 448 624 l 563 624 q 581 467 581 510 q 445 172 581 229 q 359 156 407 156 q 194 245 227 156 q 186 290 186 267 q 263 412 186 395 q 290 415 277 415 l 435 415 q 445 496 445 460 q 347 693 445 635 q 244 722 300 722 q 96 640 138 722 q 76 555 76 601 q 77 533 76 540 l 30 533 l 30 415 l 80 415 q 38 273 38 361 q 132 68 38 144 q 359 0 217 0 q 685 208 593 0 q 732 460 732 315 q 629 887 732 689 q 439 1100 548 1043 l 365 1010 q 385 975 385 991 q 354 930 385 962 q 301 815 302 875 m 198 549 q 244 602 201 601 q 312 547 298 602 q 315 530 315 538 l 201 532 q 198 549 198 544 z "},"ඒ":{"ha":735,"x_min":30,"x_max":860,"o":"m 705 963 q 693 964 697 963 l 693 1069 l 696 1069 q 747 1016 746 1065 q 705 963 745 964 m 575 1175 q 585 1043 575 1175 q 587 956 586 1001 l 587 899 q 545 979 568 941 q 439 1100 496 1054 l 365 1010 q 385 975 385 991 q 354 930 385 962 q 301 815 302 875 q 381 674 301 734 q 532 624 448 624 l 566 624 q 581 467 581 544 q 445 172 581 229 q 359 156 407 156 q 194 245 227 156 q 186 290 186 267 q 263 412 186 395 q 290 415 277 415 l 435 415 q 445 496 445 460 q 347 693 445 635 q 244 722 300 722 q 96 640 138 722 q 76 555 76 601 q 77 533 76 540 l 30 533 l 30 415 l 80 415 q 38 273 38 361 q 132 68 38 144 q 359 0 217 0 q 685 208 593 0 q 732 460 732 315 q 697 712 732 589 l 697 854 q 715 853 704 853 q 837 924 795 853 q 860 1016 860 964 q 697 1175 859 1175 l 575 1175 m 510 757 q 444 802 458 757 q 441 821 441 812 q 473 871 442 854 q 536 761 518 829 q 510 757 521 757 m 198 549 q 244 602 201 601 q 312 547 298 602 q 315 530 315 538 l 201 532 q 198 549 198 544 z "},"ෆ":{"ha":800,"x_min":30,"x_max":770,"o":"m 30 400 q 184 795 30 741 q 254 806 216 806 q 391 722 347 806 q 400 699 396 711 q 506 800 427 780 q 547 806 526 806 q 770 439 761 806 q 770 400 770 420 q 559 12 770 66 q 458 0 514 0 l 458 156 q 625 400 624 167 q 547 650 624 648 q 463 468 467 636 l 339 468 q 254 650 335 644 q 175 400 175 648 q 244 186 175 237 q 342 156 283 156 l 342 0 q 45 241 96 0 q 30 400 30 311 z "},"ග":{"ha":892,"x_min":30,"x_max":863,"o":"m 294 407 l 357 298 q 376 309 363 301 q 387 316 384 315 q 416 250 415 298 q 339 148 416 164 q 308 145 324 145 q 178 396 179 148 q 285 648 179 647 q 365 589 342 647 q 362 557 362 570 q 361 532 361 548 q 326 431 361 467 q 294 407 312 418 m 608 144 q 544 174 568 145 q 555 256 555 210 q 502 392 555 340 q 481 407 491 401 q 499 491 499 445 q 500 528 499 517 q 559 644 505 629 q 585 647 570 647 q 715 396 713 644 q 608 144 713 145 m 30 396 q 308 0 31 1 q 472 54 410 1 q 608 0 525 0 q 856 278 821 0 q 863 396 863 334 q 585 792 861 791 q 429 728 490 791 q 285 792 376 791 q 31 446 47 792 q 30 396 30 422 z "},"ඝ":{"ha":799,"x_min":30,"x_max":769,"o":"m 566 564 l 473 564 q 471 589 471 581 q 526 671 471 659 q 541 673 534 673 q 608 612 602 665 q 593 562 608 589 q 566 564 574 564 m 197 281 q 240 415 197 376 q 278 431 258 431 l 543 431 q 616 350 594 431 q 624 281 624 316 q 566 156 621 159 q 544 183 544 159 q 549 214 544 193 q 556 256 556 243 q 456 358 556 345 q 410 361 434 361 q 267 283 282 361 q 264 256 264 270 q 275 198 264 252 q 277 183 277 189 q 254 156 274 157 q 197 281 197 159 m 52 281 q 187 9 52 54 q 254 0 218 0 q 374 72 338 0 q 388 127 388 99 q 381 202 388 134 q 380 214 380 209 q 410 244 382 243 q 439 214 438 241 q 437 184 439 205 q 431 127 431 152 q 483 27 431 66 q 566 0 518 0 q 762 193 731 0 q 769 281 769 233 q 696 506 768 434 q 735 618 735 562 q 656 774 735 723 q 547 806 609 806 q 410 751 465 804 q 274 806 354 806 q 111 716 160 806 q 90 627 90 675 q 100 564 90 591 l 30 564 l 30 434 l 85 434 q 52 281 52 370 m 347 564 l 231 564 q 216 612 216 582 q 256 670 216 658 q 279 673 269 673 q 345 621 331 673 q 349 589 349 605 q 347 564 349 572 z "},"හ":{"ha":901,"x_min":30,"x_max":871,"o":"m 616 141 q 548 178 574 142 q 553 227 553 201 q 452 382 552 354 q 477 503 463 420 q 536 633 495 606 q 593 648 560 648 q 727 396 726 646 q 631 142 727 161 q 616 141 623 141 m 270 346 l 350 245 l 374 262 q 391 266 388 266 q 410 231 410 264 q 330 148 410 160 q 297 145 313 145 q 168 250 190 145 q 164 293 164 271 q 209 414 164 374 q 256 431 231 431 l 331 431 q 270 346 311 374 m 30 281 q 117 69 30 151 q 297 0 190 0 q 477 57 410 1 q 616 0 530 0 q 869 346 853 0 q 871 396 871 370 q 593 792 869 791 q 414 720 468 791 q 252 806 354 804 q 88 716 138 806 q 64 618 64 671 q 103 505 65 557 q 30 281 30 434 m 190 612 q 239 671 190 662 q 258 673 248 673 q 321 625 305 673 q 327 589 327 609 q 326 564 327 572 l 233 564 q 206 562 224 564 q 190 612 190 587 z "},"්":{"ha":0,"x_min":-205,"x_max":84,"o":"m -71 963 q -79 963 -73 963 q -88 964 -85 964 l -88 1069 l -80 1069 q -28 1016 -30 1065 q -71 963 -31 964 m -205 1175 l -205 623 l -79 623 l -79 854 q -61 853 -72 853 q 62 925 22 853 q 84 1016 84 966 q -79 1175 83 1175 l -205 1175 z "},"ඉ":{"ha":711,"x_min":30,"x_max":681,"o":"m 109 -149 q 304 -277 184 -267 q 320 -277 313 -277 q 481 -198 422 -277 q 524 -69 524 -142 q 465 53 522 14 q 629 191 568 84 q 681 403 681 282 q 530 747 681 642 q 334 806 446 806 q 92 681 179 806 q 30 480 30 593 q 69 319 30 395 q 205 210 111 231 q 251 205 228 205 q 411 285 351 205 q 450 404 450 338 q 399 540 449 484 q 277 587 353 587 q 164 543 205 586 q 270 646 183 621 q 334 654 300 654 q 488 559 435 654 q 525 403 525 494 q 244 144 524 145 l 247 14 q 285 18 267 18 q 378 -62 377 16 q 338 -129 378 -109 q 305 -136 321 -136 q 213 -79 256 -134 l 109 -149 m 189 400 q 225 456 189 439 q 248 460 237 460 q 304 423 288 460 q 308 400 308 411 q 270 345 308 358 q 248 340 259 340 q 193 377 209 340 q 189 400 189 388 z "},"ඊ":{"ha":681,"x_min":30,"x_max":715,"o":"m 557 978 q 601 907 557 929 q 636 899 618 899 q 707 943 685 899 q 715 978 715 960 q 671 1048 715 1027 q 636 1057 654 1057 q 566 1013 587 1057 q 557 978 557 996 m 137 978 q 180 907 137 929 q 216 899 198 899 q 292 949 264 899 q 305 998 305 974 q 248 1055 305 1047 q 231 1057 239 1057 q 140 1002 156 1057 q 137 978 137 990 m 30 374 q 156 56 30 152 q 336 0 231 0 q 605 170 529 0 q 644 374 644 258 q 608 572 644 487 q 388 732 533 727 q 353 730 373 732 q 502 932 469 850 q 525 1057 525 991 l 376 1057 q 343 930 376 985 q 186 749 302 864 q 34 446 52 617 q 30 374 30 411 m 183 373 l 183 381 q 285 589 187 551 q 339 598 311 598 q 483 456 454 598 q 490 373 490 416 q 380 156 490 186 q 339 151 361 151 q 190 297 217 151 q 183 373 183 332 z "},"ජ":{"ha":768,"x_min":30,"x_max":799,"o":"m 499 564 l 452 564 q 450 589 450 574 q 506 671 450 661 q 519 673 513 673 q 586 623 579 673 q 587 612 587 617 q 567 556 586 585 q 499 564 536 564 m 175 304 q 240 423 175 395 q 286 431 262 431 l 491 431 q 595 353 572 431 q 602 304 602 330 q 499 163 602 206 q 388 141 449 141 q 212 208 273 141 q 175 304 175 248 m 30 304 q 175 41 30 130 q 389 -16 269 -16 q 655 80 552 -16 q 747 304 747 168 q 673 502 746 431 q 713 618 713 556 q 655 760 712 705 q 788 971 764 876 q 799 1057 799 1012 l 650 1057 q 617 930 650 985 q 515 806 586 880 q 389 751 439 800 q 252 806 332 806 q 88 716 138 806 q 64 618 64 671 q 106 502 65 559 q 30 304 30 429 m 191 612 q 244 671 191 665 q 258 673 251 673 q 323 624 308 673 q 328 589 328 606 q 326 564 328 579 l 278 564 q 210 556 240 564 q 191 612 193 583 z "},"ඣ":{"ha":1424,"x_min":26,"x_max":1394,"o":"m 666 313 q 760 37 666 113 q 867 0 804 0 q 1004 84 960 0 q 1013 107 1009 95 q 1126 4 1042 20 q 1161 0 1143 0 q 1389 254 1362 0 q 1394 397 1394 307 q 1240 944 1394 810 q 993 1024 1146 1024 q 766 933 857 1024 q 701 831 723 888 l 849 783 q 956 864 875 846 q 993 868 975 868 q 1203 707 1150 868 q 1238 397 1238 598 q 1161 156 1234 161 q 1082 339 1084 160 l 952 339 q 890 157 952 176 q 875 156 882 156 q 817 312 819 168 q 827 415 817 384 q 903 484 849 483 q 955 468 928 483 l 1006 604 q 890 640 952 640 q 853 636 869 640 q 587 793 761 789 q 377 713 465 792 q 210 806 313 799 q 47 716 96 806 q 26 627 26 675 q 110 465 26 522 q 144 446 126 453 l 31 315 l 37 171 q 50 174 43 174 q 80 144 79 171 q 80 130 80 140 q 79 113 79 119 q 149 9 79 35 q 213 0 178 0 q 316 60 281 0 q 321 71 319 65 q 438 0 365 7 q 600 136 551 0 q 624 285 624 205 q 453 581 624 563 q 442 582 448 582 q 567 642 499 636 q 587 642 578 642 q 726 552 681 642 q 685 468 700 517 q 666 313 666 408 m 425 148 q 381 217 382 151 l 381 308 l 259 308 l 259 217 q 217 148 258 149 q 182 212 182 149 l 182 227 q 161 279 180 259 q 312 438 218 336 q 378 465 345 465 q 471 370 448 465 q 479 285 479 334 q 425 148 477 149 m 152 613 q 193 671 152 662 q 208 673 201 673 q 273 623 256 673 q 277 604 275 613 l 214 530 q 152 613 153 552 z "},"ඥ":{"ha":1354,"x_min":30,"x_max":1421,"o":"m 1006 -79 q 1085 -232 1006 -174 q 1217 -274 1142 -274 q 1421 -145 1335 -273 l 1317 -75 q 1217 -132 1275 -130 q 1154 -81 1166 -132 q 1152 -58 1152 -69 q 1175 5 1153 -22 q 1356 126 1287 27 l 1240 210 q 1122 157 1195 159 q 1001 221 1043 157 q 979 294 979 255 q 1046 410 979 369 q 1122 431 1081 431 l 1297 431 q 1322 583 1322 515 q 1225 780 1322 722 q 1122 808 1177 808 q 977 746 1029 807 q 834 792 917 792 q 666 726 732 791 q 519 792 610 791 q 370 741 429 791 q 255 792 324 791 q 50 589 100 792 q 30 385 30 502 q 144 24 30 88 q 251 0 186 0 l 251 138 q 187 216 203 138 q 174 385 174 275 q 244 647 174 614 q 262 651 254 651 q 301 639 285 650 q 264 396 264 544 q 543 0 266 1 q 766 136 707 0 q 789 256 789 190 q 736 392 789 340 q 716 407 726 401 q 734 491 734 445 q 735 528 734 517 q 799 643 739 627 q 834 647 815 647 q 932 593 901 647 q 939 576 936 585 q 962 526 945 551 q 831 343 854 461 q 827 294 827 319 q 926 75 827 163 q 1031 15 974 34 q 1006 -79 1006 -33 m 1188 567 q 1122 571 1150 571 q 1076 567 1097 571 q 1061 602 1063 583 l 1059 606 l 1059 614 q 1100 673 1059 659 q 1122 675 1111 675 q 1184 625 1169 675 q 1190 591 1190 609 q 1188 567 1190 576 m 529 407 l 591 298 q 610 309 598 301 q 621 316 618 315 q 651 250 650 298 q 574 148 651 164 q 543 145 559 145 q 412 396 414 148 q 519 648 414 647 q 600 589 576 647 q 597 557 597 570 q 595 532 595 548 q 560 431 595 467 q 529 407 547 418 z "},"ක":{"ha":945,"x_min":30,"x_max":916,"o":"m 35 315 l 41 171 q 54 174 47 174 q 84 144 83 171 q 84 130 84 140 q 83 113 83 119 q 153 9 83 35 q 217 0 182 0 q 320 60 285 0 q 326 71 323 65 q 442 0 369 7 q 557 54 513 1 q 675 0 604 1 q 892 171 844 0 q 916 369 916 252 q 770 750 916 639 q 606 806 699 806 q 381 713 480 804 q 214 806 320 803 q 52 716 100 806 q 30 627 30 675 q 114 465 30 522 q 148 446 130 453 l 35 315 m 675 140 q 617 182 628 141 q 628 285 628 236 q 457 581 628 563 q 446 582 452 582 q 562 651 506 643 q 594 654 576 654 q 741 533 697 654 q 765 369 765 464 q 707 146 765 175 q 675 140 693 140 m 429 148 q 387 217 388 151 l 387 308 l 264 308 l 264 217 q 221 148 263 149 q 186 212 186 149 l 186 227 q 165 279 184 259 q 316 438 222 336 q 382 465 349 465 q 475 370 452 465 q 483 285 483 334 q 429 148 481 149 m 156 613 q 197 671 156 662 q 212 673 203 673 q 277 625 259 673 q 282 605 281 614 l 218 530 q 156 613 157 552 z "},"ඛ":{"ha":781,"x_min":30,"x_max":751,"o":"m 232 144 q 175 298 175 146 q 273 510 176 509 q 351 439 350 507 q 315 328 351 395 q 278 235 286 273 q 266 156 270 195 q 232 144 248 144 m 30 298 q 187 4 30 18 q 201 4 194 4 q 259 16 231 4 q 269 -102 262 -62 l 414 -102 q 406 46 406 -35 l 406 83 q 505 3 438 12 q 537 0 521 0 q 751 397 751 1 q 597 944 751 810 q 350 1024 503 1024 q 123 933 214 1024 q 58 831 80 888 l 206 783 q 313 864 232 846 q 350 868 332 868 q 560 707 507 868 q 595 397 595 598 q 534 183 595 213 q 517 179 525 179 q 463 224 479 182 q 453 266 454 248 q 503 439 503 359 q 369 650 503 605 q 274 663 326 663 q 37 414 71 663 q 30 298 30 361 z "},"ල":{"ha":795,"x_min":30,"x_max":765,"o":"m 30 282 q 168 -115 30 15 q 419 -209 266 -209 q 694 -84 597 -209 q 758 77 749 -14 l 605 99 q 509 -34 591 7 q 419 -53 468 -53 q 229 75 293 -53 q 186 282 186 163 q 309 617 186 536 q 425 650 359 650 q 610 450 609 647 q 541 271 610 296 q 518 267 530 267 q 454 307 472 267 q 450 328 450 317 q 503 401 450 385 q 540 407 521 407 l 540 536 l 275 536 l 274 407 l 332 407 q 307 311 307 368 q 389 153 307 205 q 521 119 442 119 q 727 258 662 119 q 765 450 765 340 q 677 696 765 594 q 425 806 581 806 q 81 574 180 806 q 30 282 30 449 z "},"ළ":{"ha":766,"x_min":30,"x_max":736,"o":"m 30 180 q 155 -129 30 -22 q 397 -209 250 -209 q 673 -84 575 -209 q 736 77 727 -14 l 583 99 q 487 -34 570 7 q 397 -53 446 -53 q 208 65 260 -53 q 184 180 184 115 q 218 370 184 307 l 218 358 q 305 189 218 247 q 446 149 363 149 q 661 274 609 149 q 678 369 678 317 l 543 369 q 464 278 543 290 q 437 275 450 275 q 342 334 368 275 q 332 377 332 355 q 347 431 334 407 l 677 431 q 704 597 704 521 q 621 788 704 738 q 553 806 590 806 q 441 741 483 804 q 326 806 401 804 q 176 684 199 806 q 172 635 172 661 q 195 534 172 575 q 49 326 90 469 q 30 180 30 258 m 586 564 l 495 564 q 494 589 494 574 q 545 673 495 671 q 591 606 590 670 q 586 564 591 590 m 305 564 q 288 616 289 581 q 331 673 290 671 q 388 589 384 663 q 387 564 388 574 l 305 564 z "},"ම":{"ha":749,"x_min":30,"x_max":719,"o":"m 365 416 q 340 454 340 419 q 346 515 340 475 q 351 579 351 557 q 350 597 351 591 q 363 604 355 604 q 396 515 396 601 q 365 416 395 418 m 30 408 q 250 16 30 81 q 365 0 302 0 q 703 292 644 0 q 719 480 719 374 q 353 1024 718 1023 q 123 921 210 1024 q 72 831 91 880 l 220 783 q 331 867 250 856 q 353 868 342 868 q 559 579 536 868 q 563 480 563 532 q 435 168 563 214 q 365 156 404 156 q 174 336 201 156 q 168 408 168 370 q 195 568 168 517 q 218 587 206 586 q 236 553 236 586 q 232 507 236 538 q 227 444 227 467 q 297 315 227 350 q 361 301 326 301 q 507 514 506 304 q 376 715 505 713 q 301 689 332 715 q 222 715 266 715 q 56 567 107 715 q 30 408 30 492 z "},"ා":{"ha":327,"x_min":7,"x_max":312,"o":"m 7 738 q 79 754 37 754 q 266 627 205 754 q 312 381 312 532 q 168 30 312 103 q 79 8 126 8 q 7 24 37 8 l 28 165 q 65 159 52 159 q 153 316 142 159 q 156 381 156 346 q 76 602 156 591 q 65 604 71 604 q 28 597 50 604 l 7 738 z "},"ෑ":{"ha":426,"x_min":0,"x_max":412,"o":"m 0 213 q 72 43 0 103 q 206 0 125 0 q 403 156 363 0 q 412 243 412 197 l 282 243 q 203 141 279 142 q 136 213 138 146 q 236 369 136 319 q 308 388 275 388 l 338 388 l 338 507 l 179 507 l 338 612 l 338 741 l 19 741 l 19 606 l 142 606 l 19 507 l 19 388 l 72 388 q 0 213 0 313 z "},"ැ":{"ha":426,"x_min":0,"x_max":412,"o":"m 0 227 q 65 54 0 119 q 206 0 119 0 q 403 156 363 0 q 412 243 412 197 l 282 243 q 212 151 281 152 q 146 227 152 163 q 212 400 146 302 q 368 612 233 434 l 368 741 l 49 741 l 49 606 l 195 606 q 72 435 83 454 q 0 227 0 324 z "},"ෛ":{"ha":1274,"x_min":8,"x_max":1223,"o":"m 335 355 q 370 406 335 393 q 389 410 380 410 q 438 377 425 410 q 442 355 442 366 q 408 305 442 319 q 389 301 397 301 q 339 336 351 301 q 335 355 335 346 m 216 363 q 283 224 217 277 q 374 195 320 195 q 446 214 416 197 q 321 144 411 145 q 186 236 236 144 q 152 380 152 300 q 233 593 152 514 q 346 642 285 642 q 464 600 415 642 q 483 582 472 591 l 581 673 q 346 785 467 781 q 100 662 199 785 q 8 380 8 544 q 132 65 8 167 q 321 0 212 0 q 560 156 499 0 q 583 289 583 217 q 475 522 583 468 q 392 540 437 540 q 248 467 301 540 q 216 363 216 419 m 975 355 q 1010 406 975 393 q 1029 410 1020 410 q 1078 377 1065 410 q 1082 355 1082 366 q 1048 305 1082 319 q 1029 301 1038 301 q 979 336 991 301 q 975 355 975 346 m 856 363 q 924 224 857 277 q 1015 195 960 195 q 1086 214 1057 197 q 962 144 1051 145 q 826 236 876 144 q 792 380 792 300 q 873 593 792 514 q 986 642 925 642 q 1104 600 1055 642 q 1123 582 1112 591 l 1221 673 q 986 785 1107 781 q 741 662 840 785 q 648 380 648 544 q 772 65 648 167 q 962 0 852 0 q 1200 156 1139 0 q 1223 289 1223 217 q 1115 522 1223 468 q 1032 540 1077 540 q 888 467 941 540 q 856 363 856 419 z "},"ෞ":{"ha":1299,"x_min":8,"x_max":1240,"o":"m 335 355 q 370 406 335 393 q 389 410 380 410 q 438 377 425 410 q 442 355 442 366 q 408 305 442 319 q 389 301 397 301 q 339 336 351 301 q 335 355 335 346 m 216 363 q 283 224 217 277 q 374 195 320 195 q 446 214 416 197 q 321 144 411 145 q 186 236 236 144 q 152 380 152 300 q 233 593 152 514 q 346 642 285 642 q 464 600 415 642 q 483 582 472 591 l 581 673 q 346 785 467 781 q 100 662 199 785 q 8 380 8 544 q 132 65 8 167 q 321 0 212 0 q 560 156 499 0 q 583 289 583 217 q 475 522 583 468 q 392 540 437 540 q 248 467 301 540 q 216 363 216 419 m 827 473 q 951 316 830 317 q 1016 332 994 316 q 1040 368 1038 349 q 1050 404 1043 388 q 1072 420 1057 420 q 1101 332 1100 420 q 1101 301 1101 320 q 1053 133 1101 163 q 1034 127 1043 127 q 993 146 1009 127 q 987 152 989 151 l 903 73 q 1012 4 948 16 q 1055 0 1034 0 q 1222 153 1181 0 q 1240 301 1240 217 q 1177 518 1240 446 q 1080 564 1138 563 q 1008 545 1032 564 q 983 503 985 526 q 979 460 982 479 q 963 441 975 441 q 939 495 939 444 q 986 583 939 562 q 1015 590 1000 590 l 1015 694 q 829 510 842 694 q 827 473 827 492 z "},"ෙ":{"ha":597,"x_min":8,"x_max":583,"o":"m 335 355 q 370 406 335 393 q 389 410 380 410 q 438 377 425 410 q 442 355 442 366 q 408 305 442 319 q 389 301 397 301 q 339 336 351 301 q 335 355 335 346 m 216 363 q 283 224 217 277 q 374 195 320 195 q 446 214 416 197 q 321 144 411 145 q 186 236 236 144 q 152 380 152 300 q 233 593 152 514 q 346 642 285 642 q 464 600 415 642 q 483 582 472 591 l 581 673 q 346 785 467 781 q 100 662 199 785 q 8 380 8 544 q 132 65 8 167 q 321 0 212 0 q 560 156 499 0 q 583 289 583 217 q 475 522 583 468 q 392 540 437 540 q 248 467 301 540 q 216 363 216 419 z "},"ේ":{"ha":1108,"x_min":8,"x_max":871,"o":"m 335 355 q 370 406 335 393 q 389 410 380 410 q 438 377 425 410 q 442 355 442 366 q 408 305 442 319 q 389 301 397 301 q 339 336 351 301 q 335 355 335 346 m 216 363 q 283 224 217 277 q 374 195 320 195 q 446 214 416 197 q 321 144 411 145 q 186 236 236 144 q 152 380 152 300 q 233 593 152 514 q 346 642 285 642 q 464 600 415 642 q 483 582 472 591 l 581 673 q 346 785 467 781 q 100 662 199 785 q 8 380 8 544 q 132 65 8 167 q 321 0 212 0 q 560 156 499 0 q 583 289 583 217 q 475 522 583 468 q 392 540 437 540 q 248 467 301 540 q 216 363 216 419 m 716 962 q 708 962 713 962 q 699 963 701 963 l 699 1067 l 707 1067 q 758 1015 757 1063 q 716 962 755 963 m 582 1173 l 582 621 l 708 621 l 708 853 q 726 852 715 852 q 849 924 808 852 q 871 1015 871 964 q 708 1173 869 1173 l 582 1173 z "},"ි":{"ha":0,"x_min":-705,"x_max":0,"o":"m -705 897 q -537 1142 -705 1074 q -353 1175 -456 1175 q -56 1063 -148 1175 q 0 897 0 996 q -68 730 0 800 q -138 682 -100 697 l -248 682 l -248 758 q -151 897 -152 798 q -252 1008 -151 978 q -353 1021 -297 1021 q -540 949 -495 1021 q -555 897 -555 925 q -457 758 -552 796 l -457 682 l -567 682 q -688 810 -651 713 q -705 897 -705 853 z "},"ී":{"ha":0,"x_min":-705,"x_max":0,"o":"m -247 849 q -212 899 -247 887 q -193 903 -202 903 q -142 868 -155 903 q -138 849 -138 859 q -174 796 -138 810 q -193 793 -183 793 q -243 827 -229 793 q -247 849 -247 838 m -370 849 q -297 705 -370 758 q -194 673 -250 673 q -125 686 -159 673 q -11 823 -41 719 q 0 897 0 861 q -168 1142 0 1074 q -353 1175 -250 1175 q -650 1063 -557 1175 q -705 897 -705 996 q -637 730 -705 800 q -567 682 -605 697 l -457 682 l -457 758 q -555 897 -553 798 q -471 1006 -555 970 q -353 1029 -419 1029 q -190 997 -233 1029 q -222 1001 -206 1001 q -343 941 -300 1001 q -370 849 -370 902 z "},"ෳ":{"ha":468,"x_min":16,"x_max":429,"o":"m 16 473 q 180 693 16 681 q 203 694 191 694 l 203 590 q 136 540 156 590 q 127 495 127 518 q 152 441 129 442 q 168 472 165 441 q 199 547 174 529 q 269 564 225 564 q 415 414 378 564 q 429 301 429 359 q 311 14 429 69 q 244 0 279 0 q 92 73 148 1 l 176 152 q 202 130 195 133 q 222 127 212 127 q 286 231 270 127 q 290 301 290 263 q 271 418 290 406 q 260 420 266 420 q 236 391 243 420 q 203 331 224 346 q 140 316 179 316 q 16 473 18 317 z "},"ෟ":{"ha":468,"x_min":16,"x_max":429,"o":"m 16 473 q 180 693 16 681 q 203 694 191 694 l 203 590 q 136 540 156 590 q 127 495 127 518 q 152 441 129 442 q 168 472 165 441 q 199 547 174 529 q 269 564 225 564 q 415 414 378 564 q 429 301 429 359 q 311 14 429 69 q 244 0 279 0 q 92 73 148 1 l 176 152 q 202 130 195 133 q 222 127 212 127 q 286 231 270 127 q 290 301 290 263 q 271 418 290 406 q 260 420 266 420 q 236 391 243 420 q 203 331 224 346 q 140 316 179 316 q 16 473 18 317 z "},"ො":{"ha":1482,"x_min":8,"x_max":1457,"o":"m 335 355 q 370 406 335 393 q 389 410 380 410 q 438 377 425 410 q 442 355 442 366 q 408 305 442 319 q 389 301 397 301 q 339 336 351 301 q 335 355 335 346 m 216 363 q 283 224 217 277 q 374 195 320 195 q 446 214 416 197 q 321 144 411 145 q 186 236 236 144 q 152 380 152 300 q 233 593 152 514 q 346 642 285 642 q 464 600 415 642 q 483 582 472 591 l 581 673 q 346 785 467 781 q 100 662 199 785 q 8 380 8 544 q 132 65 8 167 q 321 0 212 0 q 560 156 499 0 q 583 289 583 217 q 475 522 583 468 q 392 540 437 540 q 248 467 301 540 q 216 363 216 419 m 1152 738 l 1173 597 q 1210 604 1196 604 q 1298 446 1287 604 q 1301 381 1301 416 q 1221 160 1301 171 q 1210 159 1215 159 q 1173 165 1195 159 l 1152 24 q 1223 8 1181 8 q 1411 136 1350 8 q 1457 381 1457 231 q 1313 732 1457 659 q 1223 754 1271 754 q 1152 738 1181 754 z "},"ෝ":{"ha":1488,"x_min":8,"x_max":1457,"o":"m 335 355 q 370 406 335 393 q 389 410 380 410 q 438 377 425 410 q 442 355 442 366 q 408 305 442 319 q 389 301 397 301 q 339 336 351 301 q 335 355 335 346 m 216 363 q 283 224 217 277 q 374 195 320 195 q 446 214 416 197 q 321 144 411 145 q 186 236 236 144 q 152 380 152 300 q 233 593 152 514 q 346 642 285 642 q 464 600 415 642 q 483 582 472 591 l 581 673 q 346 785 467 781 q 100 662 199 785 q 8 380 8 544 q 132 65 8 167 q 321 0 212 0 q 560 156 499 0 q 583 289 583 217 q 475 522 583 468 q 392 540 437 540 q 248 467 301 540 q 216 363 216 419 m 1302 963 q 1294 963 1299 963 q 1284 964 1289 964 l 1284 1069 l 1293 1069 q 1344 1016 1343 1065 q 1302 963 1341 964 m 1168 1175 l 1168 765 q 1131 761 1164 765 l 1156 624 q 1176 625 1164 625 q 1283 499 1259 625 q 1291 393 1291 454 q 1194 163 1291 182 q 1176 161 1184 161 q 1156 163 1162 161 l 1131 26 q 1185 20 1154 20 q 1396 146 1325 20 q 1447 393 1447 240 q 1299 738 1447 659 q 1294 741 1297 739 l 1294 854 q 1312 853 1301 853 q 1435 925 1394 853 q 1457 1016 1457 966 q 1294 1175 1455 1175 l 1168 1175 z "},"ෘ":{"ha":396,"x_min":0,"x_max":389,"o":"m 0 194 q 50 45 0 102 q 138 4 87 4 q 217 19 155 4 q 247 23 236 23 q 288 0 270 22 l 389 65 q 338 250 338 136 q 351 441 338 269 q 357 540 357 498 q 251 742 357 709 q 183 750 222 750 q 9 545 11 747 q 11 498 9 514 l 137 498 q 134 544 134 533 q 183 617 136 616 q 225 544 225 614 q 213 387 225 498 q 155 397 186 397 q 24 316 65 397 q 0 194 0 266 m 182 129 q 129 205 130 132 q 178 266 130 264 q 198 263 186 266 q 197 233 197 251 q 210 133 197 179 q 197 132 206 133 q 182 129 187 129 z "},"ෲ":{"ha":882,"x_min":0,"x_max":788,"o":"m 399 194 q 449 45 399 102 q 537 4 486 4 q 616 19 553 4 q 646 23 635 23 q 686 0 669 22 l 788 65 q 736 250 736 136 q 750 441 736 269 q 755 540 755 498 q 650 742 755 709 q 582 750 621 750 q 408 545 410 747 q 410 498 408 514 l 536 498 q 533 544 533 533 q 582 617 534 616 q 624 544 624 614 q 612 387 624 498 q 553 397 585 397 q 423 316 464 397 q 399 194 399 266 m 581 129 q 528 205 529 132 q 576 266 529 264 q 597 263 585 266 q 595 233 595 251 q 609 133 595 179 q 595 132 605 133 q 581 129 586 129 m 0 194 q 50 45 0 102 q 138 4 87 4 q 217 19 155 4 q 247 23 236 23 q 288 0 270 22 l 389 65 q 338 250 338 136 q 351 441 338 269 q 357 540 357 498 q 251 742 357 709 q 183 750 222 750 q 9 545 11 747 q 11 498 9 514 l 137 498 q 134 544 134 533 q 183 617 136 616 q 225 544 225 614 q 213 387 225 498 q 155 397 186 397 q 24 316 65 397 q 0 194 0 266 m 182 129 q 129 205 130 132 q 178 266 130 264 q 198 263 186 266 q 197 233 197 251 q 210 133 197 179 q 197 132 206 133 q 182 129 187 129 z "},"ු":{"ha":0,"x_min":-719,"x_max":-83,"o":"m -719 -141 q -579 -278 -712 -275 l -83 -278 l -83 305 l -189 233 l -228 87 l -228 -133 l -533 -133 q -570 -102 -568 -130 q -567 -72 -570 -92 l -709 -56 q -719 -141 -719 -102 z "},"ූ":{"ha":0,"x_min":-719,"x_max":-83,"o":"m -719 -141 q -579 -278 -712 -275 q -439 -240 -541 -278 q -331 -214 -368 -214 q -228 -278 -262 -216 l -83 -278 l -83 305 l -142 235 l -228 87 l -228 -100 q -311 -72 -263 -72 q -475 -111 -378 -72 q -544 -130 -522 -130 q -571 -100 -570 -127 q -568 -77 -571 -92 l -709 -57 q -719 -141 -719 -102 z "},"ඹ":{"ha":784,"x_min":30,"x_max":757,"o":"m 30 343 q 174 8 30 52 q 233 0 202 0 q 354 72 317 0 q 368 127 368 99 q 361 202 368 134 q 359 214 359 209 q 389 244 362 243 q 419 214 418 241 q 416 184 419 205 q 411 127 411 152 q 463 27 411 66 q 545 0 498 0 q 757 370 751 0 q 757 397 757 382 q 602 944 757 810 q 355 1024 509 1024 q 129 933 220 1024 q 64 831 85 888 l 212 783 q 319 864 237 846 q 355 868 338 868 q 566 707 513 868 q 601 397 601 598 q 545 156 600 157 q 522 183 524 159 q 528 214 522 193 q 536 256 536 243 q 435 358 536 345 q 389 361 414 361 q 247 283 262 361 q 244 256 244 270 q 255 198 244 252 q 256 183 256 189 q 233 156 254 157 q 175 361 175 157 q 227 581 175 566 q 233 582 229 582 q 262 560 260 579 q 259 533 262 551 q 258 509 258 517 q 389 366 260 368 q 519 461 496 366 q 528 548 528 496 q 422 713 528 697 q 397 715 410 715 q 321 686 350 713 q 231 715 283 715 q 38 472 73 715 q 30 343 30 412 m 373 594 l 373 600 q 391 605 381 605 q 418 549 418 602 q 396 496 416 498 q 370 547 370 499 q 372 566 370 552 q 373 594 373 583 z "},"න":{"ha":922,"x_min":33,"x_max":895,"o":"m 639 140 q 578 163 598 141 q 601 302 601 222 q 477 543 600 483 q 445 555 461 551 q 557 651 502 639 q 595 654 575 654 q 723 551 682 654 q 751 373 751 480 q 639 140 750 141 m 33 309 q 170 33 33 106 q 307 0 229 0 q 500 56 426 1 q 639 0 553 0 q 880 210 834 0 q 895 373 895 281 q 703 787 895 709 q 595 806 652 806 q 397 722 481 804 q 236 806 339 804 q 72 715 121 806 q 52 625 52 673 q 159 452 52 517 q 212 426 184 437 q 228 420 217 423 q 243 415 237 416 q 172 354 209 355 q 164 355 167 354 q 166 367 165 359 q 167 378 167 374 l 37 388 q 33 309 33 347 m 307 148 q 172 231 198 148 q 168 245 170 239 q 202 241 184 241 q 373 393 304 241 q 388 429 380 410 q 456 304 454 399 q 327 149 456 160 q 307 148 316 148 m 255 526 q 178 612 183 559 q 220 671 178 662 q 233 673 227 673 q 300 624 281 673 q 305 589 305 608 q 302 566 305 581 q 286 518 297 549 q 255 526 264 524 z "},"ඳ":{"ha":784,"x_min":30,"x_max":852,"o":"m 437 -79 q 515 -232 437 -174 q 647 -274 572 -274 q 852 -145 765 -273 l 747 -75 q 647 -132 705 -130 q 585 -81 597 -132 q 582 -58 582 -69 q 605 5 583 -22 q 787 126 718 27 l 670 210 q 552 157 625 159 q 431 221 473 157 q 410 294 410 255 q 476 410 410 369 q 552 431 511 431 l 727 431 q 753 583 753 515 q 655 780 753 722 q 552 808 608 808 q 401 741 456 807 q 285 792 354 791 q 53 587 109 792 q 30 385 30 500 q 144 24 30 88 q 251 0 186 0 l 251 138 q 187 216 203 138 q 174 385 174 275 q 256 644 174 606 q 285 651 270 651 q 369 578 347 650 q 392 526 374 555 q 262 343 285 461 q 258 294 258 319 q 357 75 258 163 q 461 15 404 34 q 437 -79 437 -33 m 618 567 q 552 571 581 571 q 506 567 528 571 q 490 614 490 586 q 530 673 490 659 q 552 675 541 675 q 614 625 600 675 q 620 591 620 609 q 618 567 620 576 z "},"ඦ":{"ha":1005,"x_min":30,"x_max":1038,"o":"m 738 564 l 690 564 q 689 589 689 574 q 745 671 689 661 q 758 673 751 673 q 825 623 818 673 q 826 612 826 617 q 806 556 825 585 q 738 564 774 564 m 414 304 q 479 423 414 395 q 525 431 500 431 l 730 431 q 834 353 811 431 q 841 304 841 330 q 738 163 841 206 q 627 141 688 141 q 450 208 511 141 q 414 304 414 248 m 269 304 q 414 41 269 130 q 628 -16 507 -16 q 894 80 791 -16 q 986 304 986 168 q 911 502 985 431 q 952 618 952 556 q 894 760 951 705 q 1027 971 1002 876 q 1038 1057 1038 1012 l 888 1057 q 856 930 888 985 q 754 806 825 880 q 628 751 678 800 q 491 806 571 806 q 357 755 408 804 q 255 792 312 792 q 50 589 100 792 q 30 385 30 502 q 144 24 30 88 q 251 0 186 0 l 251 138 q 187 216 203 138 q 174 385 174 275 q 244 647 174 614 q 262 651 254 651 q 304 637 286 650 q 302 618 302 631 q 345 502 304 559 q 269 304 269 429 m 430 612 q 483 671 430 665 q 496 673 490 673 q 562 624 547 673 q 567 589 567 606 q 564 564 567 579 l 517 564 q 449 556 479 564 q 430 612 431 581 z "},"ඞ":{"ha":779,"x_min":24,"x_max":761,"o":"m 358 500 q 340 502 345 500 q 345 540 345 521 q 331 604 345 575 l 340 604 q 400 543 399 601 q 358 500 397 502 m 38 262 q 153 15 38 66 q 233 0 190 0 q 370 84 327 0 q 380 107 376 95 q 492 4 408 20 q 528 0 510 0 q 755 254 728 0 q 761 397 761 307 q 606 944 761 810 q 359 1024 513 1024 q 133 933 224 1024 q 68 831 90 888 l 216 783 q 323 864 241 846 q 359 868 342 868 q 570 707 517 868 q 605 397 605 598 q 528 156 601 161 q 449 339 450 160 l 319 339 q 254 157 319 175 q 240 156 247 156 q 183 262 183 157 q 264 397 183 380 q 289 400 275 400 q 336 396 305 400 q 381 393 366 393 q 525 544 521 401 q 374 705 525 671 q 283 715 331 715 q 79 661 136 715 q 65 646 71 652 q 24 540 24 601 q 83 416 26 464 q 38 262 38 351 m 132 538 q 167 590 132 576 q 186 593 176 593 q 236 556 225 593 q 239 538 239 547 q 205 488 239 500 q 186 484 195 484 q 136 519 148 484 q 132 538 132 529 z "},"ණ":{"ha":1191,"x_min":30,"x_max":1162,"o":"m 907 149 q 799 206 844 149 q 754 262 762 255 q 692 285 727 285 q 699 328 696 300 q 704 399 704 357 l 704 438 q 730 547 704 533 q 746 551 738 551 q 789 452 789 548 l 789 323 l 916 323 l 916 452 q 959 551 917 549 q 1006 415 1004 551 q 1006 376 1006 399 q 951 161 1006 199 q 907 149 932 149 m 30 27 l 168 0 q 216 27 187 27 q 292 11 231 27 q 380 0 335 0 q 605 104 513 0 q 648 165 629 133 l 655 165 q 709 122 682 165 q 773 41 747 61 q 910 0 826 0 q 1156 247 1126 0 q 1162 376 1162 297 q 1118 635 1162 563 q 982 705 1073 704 q 865 655 909 705 q 852 635 856 644 q 776 701 831 685 q 741 705 758 705 q 635 650 677 704 q 537 745 595 709 q 673 959 648 864 q 684 1044 684 1001 l 534 1044 q 500 917 534 972 q 399 791 469 865 q 355 793 369 793 q 114 669 201 793 q 52 468 52 581 q 92 304 52 381 q 119 263 107 277 q 50 145 69 217 q 30 27 39 100 m 354 141 q 259 152 345 141 q 235 153 244 153 q 197 145 214 153 q 240 195 213 176 q 273 193 262 193 q 431 273 372 193 q 472 392 472 327 q 420 528 471 472 q 297 581 370 581 q 198 549 240 579 q 355 639 237 637 q 511 544 458 639 q 547 391 547 480 q 426 153 547 199 q 354 141 393 141 m 202 392 q 241 454 202 437 q 269 460 255 460 q 331 419 313 460 q 336 392 336 406 q 296 331 336 349 q 269 326 282 326 q 208 365 225 326 q 202 392 202 378 z "},"ඬ":{"ha":1048,"x_min":28,"x_max":1019,"o":"m 296 262 q 411 15 296 66 q 491 0 448 0 q 628 84 585 0 q 637 107 633 95 q 750 4 666 20 q 785 0 768 0 q 1013 254 986 0 q 1019 397 1019 307 q 864 944 1019 810 q 617 1024 770 1024 q 391 933 481 1024 q 326 831 347 888 l 473 783 q 581 864 499 846 q 617 868 600 868 q 827 707 774 868 q 863 397 863 598 q 785 156 859 161 q 707 339 708 160 l 576 339 q 514 157 576 176 q 499 156 506 156 q 441 262 441 157 q 484 399 441 359 q 522 415 502 415 l 726 415 q 735 496 735 460 q 637 693 735 635 q 534 722 590 722 q 429 689 472 720 q 285 758 376 757 q 49 560 103 758 q 28 385 28 486 q 142 24 28 88 q 250 0 184 0 l 250 138 q 186 216 202 138 q 172 385 172 275 q 254 610 172 575 q 285 617 270 617 q 366 552 340 616 q 369 530 366 543 l 288 530 l 288 415 l 330 415 q 296 262 296 351 m 488 549 q 534 602 491 601 q 602 547 589 602 q 605 529 605 537 l 491 529 q 488 549 488 543 z "},"ඟ":{"ha":1124,"x_min":28,"x_max":1095,"o":"m 526 407 l 589 298 q 608 309 595 301 q 618 316 614 313 q 648 250 647 298 q 571 148 648 164 q 540 145 556 145 q 410 396 411 148 q 517 648 411 647 q 597 589 574 647 q 594 557 594 570 q 593 532 593 548 q 557 431 593 467 q 526 407 544 418 m 840 144 q 776 174 800 145 q 787 256 787 210 q 734 392 787 340 q 713 407 723 401 q 731 491 731 445 q 732 528 731 515 q 791 644 736 629 q 817 647 802 647 q 947 396 945 644 q 840 144 945 145 m 262 396 q 540 0 263 1 q 704 54 642 1 q 840 0 757 0 q 1093 346 1077 0 q 1095 396 1095 370 q 817 792 1093 791 q 661 728 722 791 q 517 792 608 791 q 387 755 441 791 q 285 792 342 792 q 53 590 109 792 q 28 385 28 503 q 142 24 28 88 q 250 0 184 0 l 250 138 q 186 216 202 138 q 172 385 172 275 q 254 644 172 602 q 285 651 270 651 q 304 648 292 651 q 262 396 262 555 z "},"ඤ":{"ha":1440,"x_min":30,"x_max":1508,"o":"m 1093 -79 q 1172 -232 1093 -174 q 1303 -274 1229 -274 q 1508 -145 1421 -273 l 1404 -75 q 1303 -132 1362 -130 q 1241 -81 1253 -132 q 1238 -58 1238 -69 q 1261 5 1240 -22 q 1443 126 1374 27 l 1326 210 q 1208 157 1282 159 q 1088 221 1130 157 q 1066 294 1066 255 q 1133 410 1066 369 q 1208 431 1168 431 l 1383 431 q 1409 583 1409 515 q 1312 780 1409 722 q 1208 808 1264 808 q 1053 732 1107 807 q 869 793 979 793 q 644 711 745 792 q 476 806 579 799 q 349 761 400 804 q 255 792 308 792 q 50 589 100 792 q 30 385 30 502 q 144 24 30 88 q 251 0 186 0 l 251 138 q 187 216 203 138 q 174 385 174 275 q 244 647 174 614 q 262 651 254 651 q 293 644 278 651 q 292 627 292 637 q 376 465 292 522 q 410 446 392 453 l 297 315 l 302 171 q 317 174 309 174 q 346 144 345 171 q 346 130 346 140 q 345 113 345 119 q 415 9 345 35 q 479 0 444 0 q 582 60 547 0 q 587 71 585 65 q 704 0 631 7 q 865 134 817 0 q 891 285 891 203 q 709 582 890 570 q 869 642 777 642 q 1019 579 972 642 q 1034 553 1028 567 q 1048 526 1040 537 q 918 343 941 461 q 914 294 914 319 q 1013 75 914 163 q 1118 15 1061 34 q 1093 -79 1093 -33 m 1275 567 q 1208 571 1237 571 q 1162 567 1184 571 q 1146 614 1146 586 q 1187 673 1146 659 q 1208 675 1198 675 q 1271 625 1256 675 q 1276 591 1276 609 q 1275 567 1276 576 m 690 148 q 648 217 650 151 l 648 308 l 526 308 l 526 217 q 483 148 525 149 q 448 212 448 149 q 448 218 448 214 q 449 227 449 222 q 427 279 448 260 q 578 438 484 336 q 644 465 610 465 q 736 374 712 465 q 746 285 746 335 q 690 148 745 149 m 418 613 q 456 670 418 658 q 473 673 464 673 q 538 624 522 673 q 544 604 543 614 l 481 530 q 418 613 419 552 z "},"ඕ":{"ha":784,"x_min":28,"x_max":755,"o":"m 334 937 q 250 930 288 937 q 225 983 225 960 q 372 1046 228 1044 q 553 977 522 1046 q 559 951 559 964 q 537 897 557 917 q 334 937 453 937 m 80 1009 q 134 891 81 941 q 65 841 98 871 l 151 730 q 290 787 203 777 q 312 788 302 788 q 556 650 492 788 q 600 397 600 557 q 522 156 595 161 q 444 339 445 160 l 313 339 q 251 157 313 176 q 236 156 243 156 q 174 361 174 157 q 228 581 174 563 q 237 582 233 582 q 260 560 256 578 q 258 533 260 551 q 256 509 256 517 q 388 366 259 368 q 518 461 495 366 q 526 548 526 496 q 420 713 526 697 q 396 715 408 715 q 320 686 349 713 q 231 715 282 715 q 37 468 71 715 q 28 343 28 410 q 228 0 30 1 q 365 84 321 0 q 374 107 370 95 q 487 4 403 20 q 522 0 505 0 q 750 254 723 0 q 755 397 755 307 q 646 811 754 678 q 715 951 713 865 q 609 1123 715 1058 q 372 1181 514 1181 q 94 1069 148 1181 q 80 1009 80 1040 m 372 594 l 372 598 q 389 605 380 605 q 416 549 416 602 q 395 496 415 498 q 369 547 369 499 q 370 566 369 552 q 372 594 372 583 z "},"ඔ":{"ha":784,"x_min":30,"x_max":757,"o":"m 30 343 q 229 0 31 1 q 366 84 323 0 q 376 107 372 95 q 488 4 404 20 q 524 0 506 0 q 751 254 724 0 q 757 397 757 307 q 602 944 757 810 q 355 1024 509 1024 q 129 933 220 1024 q 64 831 85 888 l 212 783 q 319 864 237 846 q 355 868 338 868 q 566 707 513 868 q 601 397 601 598 q 524 156 597 161 q 445 339 446 160 l 315 339 q 250 157 315 175 q 236 156 243 156 q 175 361 175 157 q 239 582 176 581 q 262 560 258 578 q 259 533 262 551 q 258 509 258 517 q 389 366 260 368 q 519 461 496 366 q 528 548 528 496 q 422 713 528 697 q 397 715 410 715 q 321 686 350 713 q 231 715 283 715 q 38 472 73 715 q 30 343 30 412 m 373 594 l 373 600 q 391 605 381 605 q 418 549 418 602 q 396 496 416 498 q 370 547 370 499 q 372 566 370 552 q 373 594 373 583 z "},"ප":{"ha":777,"x_min":30,"x_max":747,"o":"m 499 564 l 452 564 q 449 589 449 581 q 505 671 449 659 q 519 673 513 673 q 586 612 581 665 q 567 556 585 582 q 499 564 536 564 m 175 304 q 240 423 175 395 q 286 431 262 431 l 491 431 q 595 353 572 431 q 602 304 602 330 q 499 163 602 206 q 388 141 449 141 q 210 209 271 141 q 175 304 175 250 m 30 304 q 174 42 30 130 q 388 -16 269 -16 q 655 81 552 -16 q 747 304 747 170 q 671 502 746 430 q 713 618 713 557 q 635 774 713 723 q 525 806 587 806 q 388 751 444 804 q 252 806 332 806 q 88 716 138 806 q 64 618 64 671 q 106 502 65 555 q 30 304 30 427 m 190 612 q 239 671 190 662 q 258 673 248 673 q 323 621 309 673 q 327 589 327 605 q 326 564 327 572 l 278 564 q 210 556 240 564 q 190 612 191 582 z "},"ඵ":{"ha":743,"x_min":30,"x_max":739,"o":"m 518 757 q 450 803 465 757 q 448 821 448 812 q 480 871 449 854 q 543 761 525 831 q 518 757 530 757 m 308 815 q 388 674 308 734 q 538 624 456 624 l 570 624 q 589 467 589 502 q 461 176 589 237 q 366 156 419 156 q 184 269 212 156 q 180 308 180 288 q 250 414 180 401 q 273 415 260 415 l 442 415 q 452 496 452 460 q 354 693 452 635 q 251 722 307 722 q 104 640 148 722 q 84 555 84 602 q 96 490 84 524 q 31 332 42 444 q 30 297 30 315 q 107 99 30 183 q 366 0 199 0 q 693 212 602 0 q 739 460 739 319 q 637 887 739 689 q 446 1100 556 1043 l 372 1010 q 392 975 392 991 q 361 930 392 962 q 308 815 309 875 m 205 549 q 251 602 208 601 q 319 547 305 602 q 321 530 321 538 l 214 530 l 208 530 q 205 549 205 541 z "},"ර":{"ha":674,"x_min":30,"x_max":644,"o":"m 30 374 q 156 56 30 152 q 336 0 231 0 q 605 170 529 0 q 644 374 644 258 q 608 572 644 487 q 388 732 533 727 q 353 730 373 732 q 502 932 469 850 q 525 1057 525 991 l 376 1057 q 343 930 376 985 q 186 749 302 864 q 34 446 52 617 q 30 374 30 411 m 183 373 l 183 381 q 285 589 187 551 q 339 598 311 598 q 483 456 454 598 q 490 373 490 416 q 380 156 490 186 q 339 151 361 151 q 190 297 217 151 q 183 373 183 332 z "},"ස":{"ha":799,"x_min":30,"x_max":769,"o":"m 566 564 l 473 564 q 471 589 471 581 q 526 671 471 659 q 541 673 534 673 q 608 612 602 665 q 593 562 608 589 q 566 564 574 564 m 197 281 q 240 415 197 376 q 278 431 258 431 l 543 431 q 616 350 594 431 q 624 281 624 316 q 567 157 624 167 q 557 156 562 156 q 472 339 472 159 l 349 339 q 263 156 347 157 q 197 262 203 156 q 197 281 197 271 m 52 281 q 160 26 52 91 q 263 0 205 0 q 400 84 357 0 q 410 107 406 95 q 518 4 438 24 q 557 0 537 0 q 751 153 705 0 q 769 281 769 210 q 696 506 768 434 q 735 618 735 562 q 656 774 735 723 q 547 806 609 806 q 410 751 465 804 q 274 806 354 806 q 111 716 160 806 q 90 627 90 675 q 100 564 90 591 l 30 564 l 30 434 l 85 434 q 52 281 52 370 m 347 564 l 231 564 q 216 612 216 582 q 256 670 216 658 q 279 673 269 673 q 345 621 331 673 q 349 589 349 605 q 347 564 349 572 z "},"ශ":{"ha":932,"x_min":30,"x_max":925,"o":"m 572 194 q 685 3 572 23 q 715 0 700 0 q 773 14 724 0 q 788 16 783 16 q 836 -4 799 16 q 846 -9 841 -7 l 925 64 q 898 178 898 102 q 905 292 898 213 q 913 419 913 378 q 628 792 910 791 q 434 722 509 791 q 285 792 380 791 q 31 446 47 792 q 30 396 30 422 q 308 0 31 1 q 532 136 472 0 q 555 256 555 190 q 502 392 555 340 q 481 407 491 401 q 499 491 499 445 q 500 511 499 498 q 500 528 500 522 q 609 646 500 636 q 628 647 618 647 q 769 419 768 644 l 769 395 q 720 403 742 403 q 601 321 644 403 q 572 194 572 266 m 736 110 q 686 199 688 113 q 722 289 686 270 q 738 293 730 293 q 758 290 751 293 l 758 289 q 755 217 755 237 q 764 117 755 161 q 736 110 747 110 m 294 407 l 357 298 q 376 309 363 301 q 387 316 384 315 q 416 250 415 298 q 339 148 416 164 q 308 145 324 145 q 178 396 179 148 q 285 648 179 647 q 366 587 342 647 q 362 557 365 582 q 361 532 361 548 q 326 431 361 467 q 294 407 312 418 z "},"ෂ":{"ha":776,"x_min":30,"x_max":747,"o":"m 499 564 l 452 564 q 450 589 450 574 q 506 671 450 661 q 519 673 513 673 q 586 623 579 673 q 587 612 587 617 q 567 556 586 585 q 499 564 536 564 m 175 304 q 244 425 175 399 q 286 431 263 431 l 433 431 q 308 308 340 366 q 275 178 275 250 l 275 163 q 175 304 176 209 m 408 170 q 488 324 408 252 q 528 358 500 336 q 572 397 557 384 q 602 304 602 362 q 500 163 602 206 q 410 142 458 145 q 408 170 408 153 m 30 304 q 175 41 30 130 q 389 -16 269 -16 q 655 80 552 -16 q 747 304 747 168 q 673 502 746 431 q 713 618 713 556 q 635 774 713 723 q 525 806 587 806 q 389 751 444 804 q 252 806 332 806 q 88 716 138 806 q 64 618 64 671 q 106 502 65 559 q 30 304 30 429 m 191 612 q 244 671 191 665 q 258 673 251 673 q 323 624 308 673 q 328 589 328 606 q 326 564 328 579 l 278 564 q 210 556 240 564 q 191 612 193 583 z "},"ත":{"ha":921,"x_min":30,"x_max":891,"o":"m 47 328 l 49 205 q 77 203 69 205 q 100 137 100 195 q 194 22 100 61 q 308 0 247 0 q 500 56 435 1 q 646 0 555 0 q 891 373 890 3 q 753 747 891 635 q 591 806 681 806 q 369 699 472 803 q 244 803 331 787 q 214 806 229 806 q 52 716 100 806 q 30 627 30 675 q 115 472 30 526 q 155 453 134 460 l 47 328 m 628 140 q 567 165 589 141 q 582 292 582 222 q 479 530 582 461 q 420 553 449 549 l 430 564 q 521 642 488 627 q 591 654 551 654 q 713 559 670 654 q 747 373 747 486 q 661 144 747 168 q 628 140 646 140 m 311 144 q 218 191 236 144 q 214 214 214 202 q 187 301 213 279 q 324 446 263 380 q 420 377 389 446 q 437 292 437 340 q 381 156 437 182 q 311 144 354 144 m 151 614 q 193 675 151 665 q 212 678 202 678 q 275 632 256 678 q 282 602 281 617 l 221 529 q 151 614 152 553 z "},"ථ":{"ha":743,"x_min":30,"x_max":739,"o":"m 518 757 q 450 803 465 757 q 448 821 448 812 q 480 871 449 854 q 543 761 525 831 q 518 757 530 757 m 308 815 q 388 674 308 734 q 538 624 456 624 l 570 624 q 589 467 589 502 q 378 156 586 157 q 195 262 241 156 q 179 342 179 300 q 232 475 179 444 q 266 484 248 484 q 317 468 290 483 l 369 604 q 254 640 315 640 q 72 526 134 640 q 30 342 30 449 q 132 85 30 179 q 378 0 225 0 q 707 236 625 0 q 739 460 739 334 q 637 887 739 689 q 446 1100 556 1043 l 372 1010 q 392 975 392 991 q 361 930 392 962 q 308 815 309 875 z "},"ට":{"ha":726,"x_min":30,"x_max":696,"o":"m 30 342 q 125 593 30 511 q 254 640 180 640 q 369 604 316 639 l 317 468 q 266 484 289 484 q 187 407 208 484 q 179 342 179 376 q 262 174 179 217 q 342 156 297 156 q 525 326 490 156 q 538 480 538 391 q 350 867 538 850 q 330 868 339 868 q 206 802 247 868 q 197 783 201 792 l 49 831 q 231 1009 99 966 q 330 1024 279 1024 q 696 480 694 1021 q 454 14 696 80 q 342 0 403 0 q 57 184 126 0 q 30 342 30 255 z "},"ඨ":{"ha":788,"x_min":30,"x_max":768,"o":"m 541 757 q 473 803 488 757 q 471 821 471 812 q 503 871 472 854 q 555 760 538 830 q 541 757 544 757 m 331 815 q 411 674 331 734 q 562 624 479 624 q 586 625 578 624 q 612 397 612 491 q 553 164 612 205 q 526 156 540 156 q 446 313 453 156 q 446 339 446 327 l 316 339 q 254 157 316 176 q 239 156 245 156 q 180 312 183 168 q 191 415 180 384 q 267 484 213 483 q 319 468 292 483 l 370 604 q 255 640 316 640 q 75 529 138 640 q 49 468 58 500 q 30 313 30 408 q 125 35 30 110 q 232 0 171 0 q 366 79 321 0 q 378 107 373 94 q 491 4 407 20 q 526 0 509 0 q 765 308 746 0 q 768 397 768 346 q 652 898 768 681 q 469 1100 574 1044 l 395 1010 q 415 975 415 991 q 384 930 415 962 q 331 815 332 875 z "},"උ":{"ha":750,"x_min":41,"x_max":747,"o":"m 41 183 q 165 -126 41 -19 q 408 -206 260 -206 q 684 -81 586 -206 q 747 80 738 -11 l 594 102 q 499 -28 582 12 q 408 -49 457 -49 q 218 75 267 -49 q 199 183 199 123 q 324 414 199 358 q 433 434 372 434 l 608 434 q 633 586 633 518 q 536 783 633 724 q 433 811 488 811 q 269 722 319 811 q 244 624 244 677 q 262 547 244 582 q 46 259 75 479 q 41 183 41 221 m 499 570 q 433 574 461 574 q 385 572 400 574 q 370 617 370 593 q 411 675 370 662 q 433 678 422 678 q 495 628 480 678 q 500 594 500 612 q 499 570 500 579 z "},"ඌ":{"ha":1142,"x_min":41,"x_max":1085,"o":"m 41 183 q 165 -126 41 -19 q 408 -206 260 -206 q 684 -81 586 -206 q 747 80 738 -11 l 593 102 q 500 -28 582 12 q 408 -49 458 -49 q 218 75 267 -49 q 199 183 199 123 q 324 414 199 358 q 433 434 372 434 l 608 434 q 633 586 633 518 q 536 783 633 724 q 433 811 488 811 q 269 722 319 811 q 244 624 244 677 q 262 547 244 583 q 46 259 75 479 q 41 183 41 221 m 499 570 q 433 574 461 574 q 385 572 400 574 q 370 617 370 593 q 411 675 370 662 q 433 678 422 678 q 495 628 480 678 q 500 594 500 612 q 499 570 500 579 m 673 473 q 796 316 675 317 q 861 332 840 316 q 886 368 883 349 q 895 404 888 388 q 917 420 902 420 q 947 332 945 420 q 947 301 947 320 q 898 133 947 163 q 879 127 888 127 q 838 146 854 127 q 833 152 834 151 l 749 73 q 857 4 793 16 q 901 0 879 0 q 1067 153 1027 0 q 1085 301 1085 217 q 1023 518 1085 446 q 925 564 983 563 q 854 545 878 564 q 829 503 830 526 q 824 460 827 479 q 808 441 821 441 q 784 495 784 444 q 831 583 784 562 q 860 590 845 590 l 860 694 q 674 510 688 694 q 673 473 673 492 z "},"ව":{"ha":726,"x_min":30,"x_max":697,"o":"m 30 297 q 104 96 30 180 q 342 0 190 0 q 680 286 618 0 q 697 480 697 370 q 331 1024 696 1023 q 102 921 189 1024 q 50 831 69 880 l 198 783 q 309 867 228 856 q 331 868 320 868 q 530 628 496 868 q 540 480 540 562 q 412 168 540 214 q 342 156 381 156 q 184 264 209 156 q 179 308 179 286 q 259 415 179 408 q 273 415 266 415 l 442 415 q 452 496 452 460 q 354 693 452 635 q 251 722 307 722 q 104 640 148 722 q 84 555 84 602 q 96 490 84 524 q 31 332 42 444 q 30 297 30 315 m 205 549 q 251 602 208 601 q 319 547 305 602 q 321 530 321 538 l 214 530 l 208 530 q 205 549 205 541 z "},"ය":{"ha":789,"x_min":30,"x_max":760,"o":"m 556 564 l 464 564 q 461 589 461 581 q 517 671 461 659 q 532 673 525 673 q 598 612 593 665 q 583 562 598 589 q 556 564 564 564 m 30 347 q 100 58 30 134 q 254 0 155 0 q 391 84 347 0 q 400 107 396 95 q 509 4 429 24 q 548 0 528 0 q 742 153 696 0 q 760 281 760 210 q 686 506 758 434 q 726 618 726 557 q 647 774 726 723 q 537 806 600 806 q 374 720 430 806 q 346 658 355 692 q 275 667 313 667 q 81 557 151 667 q 30 347 30 473 m 548 156 q 463 338 464 163 l 339 338 q 254 156 335 161 q 175 326 176 156 q 175 347 175 335 q 216 484 175 429 q 290 525 247 524 q 340 513 313 525 q 359 431 347 469 l 533 431 q 606 350 585 431 q 614 281 614 316 q 557 157 614 167 q 548 156 552 156 z "},"෴":{"ha":2768,"x_min":30,"x_max":2724,"o":"m 2043 174 q 2117 33 2043 87 q 2207 0 2162 0 l 2584 0 q 2724 137 2722 3 q 2714 222 2724 178 l 2570 206 q 2572 195 2570 202 q 2572 187 2572 190 q 2528 140 2569 141 l 2285 140 q 2209 208 2211 141 q 2212 233 2209 216 l 2247 431 l 2091 431 l 2089 416 q 2022 359 2079 376 q 1976 343 1984 347 l 2039 625 l 1883 625 l 1880 614 q 1808 560 1870 576 q 1756 543 1766 548 l 1826 861 l 1670 861 l 1659 812 q 1584 758 1648 774 q 1531 742 1541 746 l 1583 977 l 1427 977 l 1362 677 q 1339 688 1355 681 q 1282 735 1289 711 q 1279 750 1279 743 q 1280 773 1279 765 l 1294 834 l 1138 834 l 1063 490 q 1043 499 1057 494 q 985 547 991 522 q 982 562 982 555 l 982 563 l 998 637 l 842 637 l 765 283 q 742 294 758 288 q 686 342 693 317 q 684 357 684 350 l 684 359 l 699 431 l 544 431 l 519 317 q 439 160 492 195 q 358 140 407 140 l 225 140 q 182 187 183 142 q 182 195 182 190 q 183 206 183 203 l 39 222 q 30 137 30 176 q 170 0 37 3 l 411 0 q 602 103 541 0 q 647 210 627 145 q 694 186 652 205 q 731 134 730 167 l 731 127 l 719 72 l 875 72 l 949 412 q 994 389 954 410 q 1029 339 1028 372 l 1029 331 l 1012 251 l 1168 251 l 1244 602 q 1290 579 1249 597 q 1326 528 1325 560 l 1326 518 l 1294 372 l 1450 372 l 1496 579 q 1595 640 1516 623 q 1624 648 1618 646 l 1542 277 l 1698 277 l 1720 377 q 1816 442 1739 425 q 1843 450 1838 448 l 1777 149 l 1933 149 l 1937 171 q 2026 241 1953 222 q 2053 250 2049 247 l 2045 208 q 2043 174 2043 195 z "},"ඏ":{"ha":1275,"x_min":28,"x_max":1223,"o":"m 955 176 q 989 227 955 214 q 1008 231 998 231 q 1058 195 1046 231 q 1062 176 1062 186 q 1027 123 1062 137 q 1008 121 1017 121 q 958 157 970 121 q 955 176 955 167 m 1088 380 l 1088 323 q 998 353 1047 353 q 982 351 987 353 q 910 502 968 445 q 951 618 951 556 q 949 637 951 631 q 991 651 968 651 q 1076 528 1053 651 q 1088 380 1088 465 m 736 564 l 689 564 q 688 589 688 574 q 742 671 688 659 q 757 673 750 673 q 823 623 817 673 q 825 612 825 617 q 804 556 823 585 q 736 564 773 564 m 412 304 q 477 423 412 395 q 524 431 499 431 l 728 431 q 833 353 810 431 q 840 304 840 330 q 738 163 840 206 q 627 141 686 141 q 448 209 509 141 q 412 304 412 250 m 429 612 q 481 671 429 665 q 495 673 488 673 q 560 624 545 673 q 566 589 566 606 q 563 564 566 579 l 515 564 q 448 557 483 564 q 429 612 430 582 m 301 618 q 343 502 302 559 q 270 351 285 446 q 255 353 264 353 q 165 323 205 351 l 165 380 q 240 647 165 614 q 260 651 251 651 q 302 637 285 650 q 301 618 301 631 m 28 385 q 203 4 28 41 q 243 0 224 0 q 378 64 328 1 q 627 -16 481 -16 q 873 64 772 -15 q 1009 0 928 1 q 1204 195 1158 0 q 1223 385 1223 275 q 1046 787 1223 743 q 998 792 1023 792 q 897 754 939 791 q 762 806 846 806 q 627 751 681 804 q 490 806 571 806 q 355 754 407 804 q 254 792 312 792 q 49 589 99 792 q 28 385 28 502 m 191 176 q 225 227 191 213 q 244 231 236 231 q 294 195 282 231 q 298 176 298 186 q 263 123 298 137 q 244 121 254 121 q 195 155 209 121 q 191 176 191 165 z "},"ඐ":{"ha":1695,"x_min":28,"x_max":1666,"o":"m 955 176 q 989 227 955 214 q 1008 231 998 231 q 1058 195 1046 231 q 1062 176 1062 186 q 1027 123 1062 137 q 1008 121 1017 121 q 958 157 970 121 q 955 176 955 167 m 1088 380 l 1088 323 q 998 353 1047 353 q 982 351 987 353 q 910 502 968 445 q 951 618 951 556 q 949 637 951 631 q 991 651 968 651 q 1076 528 1053 651 q 1088 380 1088 465 m 736 564 l 689 564 q 688 589 688 574 q 742 671 688 659 q 757 673 750 673 q 823 623 817 673 q 825 612 825 617 q 804 556 823 585 q 736 564 773 564 m 412 304 q 477 423 412 395 q 524 431 499 431 l 728 431 q 833 353 810 431 q 840 304 840 330 q 738 163 840 206 q 627 141 686 141 q 448 209 509 141 q 412 304 412 250 m 429 612 q 481 671 429 665 q 495 673 488 673 q 560 624 545 673 q 566 589 566 606 q 563 564 566 579 l 515 564 q 448 557 483 564 q 429 612 430 582 m 301 618 q 343 502 302 559 q 270 351 285 446 q 255 353 264 353 q 165 323 205 351 l 165 380 q 240 647 165 614 q 260 651 251 651 q 302 637 285 650 q 301 618 301 631 m 28 385 q 203 4 28 41 q 243 0 224 0 q 378 64 328 1 q 627 -16 481 -16 q 873 64 772 -15 q 1009 0 928 1 q 1204 195 1158 0 q 1223 385 1223 275 q 1046 787 1223 743 q 998 792 1023 792 q 897 754 939 791 q 762 806 846 806 q 627 751 681 804 q 490 806 571 806 q 355 754 407 804 q 254 792 312 792 q 49 589 99 792 q 28 385 28 502 m 191 176 q 225 227 191 213 q 244 231 236 231 q 294 195 282 231 q 298 176 298 186 q 263 123 298 137 q 244 121 254 121 q 195 155 209 121 q 191 176 191 165 m 1253 473 q 1377 316 1256 317 q 1442 332 1420 316 q 1466 368 1463 349 q 1476 404 1469 388 q 1497 420 1482 420 q 1527 332 1526 420 q 1527 301 1527 319 q 1478 133 1527 163 q 1459 127 1469 127 q 1419 146 1435 127 q 1413 152 1415 151 l 1329 73 q 1438 4 1374 16 q 1481 0 1459 0 q 1648 153 1607 0 q 1666 301 1666 216 q 1603 518 1666 446 q 1506 564 1564 563 q 1434 545 1458 564 q 1409 503 1411 526 q 1404 460 1408 479 q 1389 441 1401 441 q 1364 495 1364 444 q 1412 583 1364 562 q 1440 590 1426 590 l 1440 694 q 1255 510 1268 694 q 1253 473 1253 492 z "},"ඍ":{"ha":1215,"x_min":43,"x_max":1188,"o":"m 799 194 q 849 45 799 102 q 937 4 886 4 q 1016 19 954 4 q 1046 23 1035 23 q 1086 0 1069 22 l 1188 65 q 1137 250 1137 136 q 1150 441 1137 269 q 1156 540 1156 498 q 1050 742 1156 709 q 982 750 1021 750 q 808 545 810 747 q 810 498 808 514 l 936 498 q 933 544 933 533 q 982 617 935 616 q 1024 544 1024 614 q 1012 387 1024 498 q 954 397 985 397 q 823 316 864 397 q 799 194 799 266 m 981 129 q 928 205 929 132 q 977 266 929 264 q 997 263 985 266 q 996 233 996 251 q 1009 133 996 179 q 996 132 1005 133 q 981 129 986 129 m 559 564 l 467 564 q 464 589 464 574 q 519 671 464 659 q 534 673 528 673 q 601 612 595 665 q 585 562 600 587 q 559 564 568 564 m 189 281 q 232 415 189 374 q 271 431 250 431 l 536 431 q 609 350 587 431 q 617 281 617 316 q 549 156 609 164 q 465 339 468 164 l 340 339 q 256 156 339 157 q 190 251 199 156 q 189 281 189 266 m 43 281 q 149 28 43 94 q 256 0 195 0 q 391 79 346 0 q 403 107 397 94 q 509 5 430 26 q 549 0 529 0 q 746 155 700 0 q 762 281 762 212 q 689 506 761 433 q 727 618 727 559 q 647 776 727 723 q 540 806 601 806 q 403 751 458 804 q 266 806 346 806 q 103 716 153 806 q 79 618 79 673 q 117 506 80 559 q 43 281 43 431 m 205 613 q 273 674 216 669 q 336 625 321 674 q 342 589 342 609 q 340 564 342 572 l 247 564 q 221 562 236 564 q 205 613 205 587 z "},"ඎ":{"ha":1614,"x_min":43,"x_max":1587,"o":"m 1198 194 q 1248 45 1198 102 q 1336 4 1284 4 q 1415 19 1352 4 q 1444 23 1434 23 q 1485 0 1468 22 l 1587 65 q 1535 250 1535 136 q 1549 441 1535 269 q 1554 540 1554 498 q 1449 742 1554 709 q 1381 750 1419 750 q 1207 545 1208 747 q 1208 498 1207 514 l 1335 498 q 1332 544 1332 533 q 1381 617 1333 616 q 1423 544 1423 614 q 1411 387 1423 498 q 1352 397 1383 397 q 1222 316 1263 397 q 1198 194 1198 266 m 1379 129 q 1326 205 1328 132 q 1375 266 1328 264 q 1396 263 1383 266 q 1394 233 1394 251 q 1408 133 1394 179 q 1394 132 1404 133 q 1379 129 1385 129 m 799 194 q 849 45 799 102 q 937 4 886 4 q 1016 19 954 4 q 1046 23 1035 23 q 1086 0 1069 22 l 1188 65 q 1137 250 1137 136 q 1150 441 1137 269 q 1156 540 1156 498 q 1050 742 1156 709 q 982 750 1021 750 q 808 545 810 747 q 810 498 808 514 l 936 498 q 933 544 933 533 q 982 617 935 616 q 1024 544 1024 614 q 1012 387 1024 498 q 954 397 985 397 q 823 316 864 397 q 799 194 799 266 m 981 129 q 928 205 929 132 q 977 266 929 264 q 997 263 985 266 q 996 233 996 251 q 1009 133 996 179 q 996 132 1005 133 q 981 129 986 129 m 559 564 l 467 564 q 464 589 464 574 q 519 671 464 659 q 534 673 528 673 q 601 612 595 665 q 585 562 600 587 q 559 564 568 564 m 189 281 q 232 415 189 374 q 271 431 250 431 l 536 431 q 609 350 587 431 q 617 281 617 316 q 549 156 609 164 q 465 339 468 164 l 340 339 q 256 156 339 157 q 190 251 199 156 q 189 281 189 266 m 43 281 q 149 28 43 94 q 256 0 195 0 q 391 79 346 0 q 403 107 397 94 q 509 5 430 26 q 549 0 529 0 q 746 155 700 0 q 762 281 762 212 q 689 506 761 433 q 727 618 727 559 q 647 776 727 723 q 540 806 601 806 q 403 751 458 804 q 266 806 346 806 q 103 716 153 806 q 79 618 79 673 q 117 506 80 559 q 43 281 43 431 m 205 613 q 273 674 216 669 q 336 625 321 674 q 342 589 342 609 q 340 564 342 572 l 247 564 q 221 562 236 564 q 205 613 205 587 z "},"/":{"ha":574,"x_min":20,"x_max":567,"o":"m 410 983 l 20 -95 l 180 -95 l 567 983 l 410 983 z "}," ":{"ha":407,"x_min":0,"x_max":0,"o":""},"£":{"ha":644,"x_min":41,"x_max":631,"o":"m 610 0 l 610 149 l 311 149 l 311 397 l 534 397 l 534 537 l 311 537 l 311 628 q 419 780 311 768 q 438 781 429 781 q 566 745 499 780 l 631 872 q 414 935 532 935 q 186 833 262 935 q 132 651 132 760 l 132 537 l 41 537 l 41 397 l 132 397 l 132 149 l 43 149 l 43 0 l 610 0 z "},"∑":{"ha":663,"x_min":23,"x_max":636,"o":"m 23 -237 l 636 -237 l 636 -88 l 244 -88 l 541 347 l 282 766 l 636 766 l 636 916 l 54 916 l 54 810 l 354 342 l 23 -132 l 23 -237 z "},"t":{"ha":484,"x_min":34,"x_max":484,"o":"m 484 39 l 437 145 q 365 122 393 122 q 296 220 297 125 l 296 549 l 435 549 l 435 678 l 296 678 l 296 861 l 119 861 l 119 678 l 34 678 l 34 549 l 119 549 l 119 205 q 281 -19 119 -3 q 308 -20 294 -20 q 484 39 396 -19 z "},"ť":{"ha":484,"x_min":34,"x_max":506,"o":"m 484 39 l 437 145 q 365 122 393 122 q 296 220 297 125 l 296 549 l 435 549 l 435 678 l 296 678 l 296 861 l 119 861 l 119 678 l 34 678 l 34 549 l 119 549 l 119 205 q 281 -19 119 -3 q 308 -20 294 -20 q 484 39 396 -19 m 506 930 q 450 1019 506 1000 q 420 1024 435 1024 q 349 978 369 1024 q 339 936 340 958 q 387 863 339 882 q 397 860 392 861 q 342 739 387 819 l 392 708 q 503 903 487 807 q 506 930 506 918 z "},"þ":{"ha":693,"x_min":75,"x_max":655,"o":"m 334 122 q 252 138 292 122 l 252 385 q 326 551 252 518 q 362 559 343 559 q 463 468 434 559 q 475 372 475 426 q 334 122 465 132 m 251 -271 l 251 -11 q 335 -20 292 -20 q 602 134 519 -20 q 655 374 655 232 q 545 651 655 563 q 408 699 486 699 q 251 625 312 697 l 252 983 l 76 983 l 75 -271 l 251 -271 z "},"¾":{"ha":1221,"x_min":7,"x_max":1200,"o":"m 1131 1 l 1131 95 l 1200 95 l 1200 217 l 1131 217 l 1131 553 l 943 553 l 720 193 l 735 95 l 981 95 l 981 1 l 1131 1 m 208 339 q 399 414 338 339 q 433 513 433 457 q 358 637 433 591 q 311 659 336 651 q 411 764 397 686 q 414 788 414 777 q 292 926 414 897 q 212 936 254 936 q 37 865 96 936 q 22 844 28 854 l 113 772 q 201 821 144 817 q 263 780 254 821 q 264 766 264 773 q 168 705 254 709 l 125 705 l 125 594 l 180 594 q 282 532 281 593 q 201 472 271 477 q 73 514 127 473 l 7 400 q 208 339 94 339 m 407 -15 l 970 997 l 808 997 l 243 -14 l 407 -15 m 981 217 l 871 217 l 981 410 l 981 217 z "},"³":{"ha":483,"x_min":9,"x_max":435,"o":"m 210 339 q 401 414 340 339 q 435 513 435 457 q 361 637 435 591 q 313 659 339 651 q 414 764 400 686 q 416 788 416 777 q 294 926 416 897 q 214 936 256 936 q 39 865 99 936 q 24 844 31 854 l 115 772 q 203 821 146 817 q 266 780 256 821 q 267 766 267 773 q 171 705 256 709 l 127 705 l 127 594 l 183 594 q 285 532 283 593 q 203 472 274 477 q 76 514 130 473 l 9 400 q 210 339 96 339 z "},"˜":{"ha":563,"x_min":30,"x_max":536,"o":"m 368 911 q 273 943 339 911 q 189 966 222 966 q 38 888 119 966 q 30 880 34 884 l 102 796 q 195 837 156 837 q 297 806 224 837 q 384 783 350 783 q 536 873 469 784 l 464 952 q 368 911 425 913 z "},"™":{"ha":1105,"x_min":37,"x_max":1013,"o":"m 37 916 l 37 812 l 155 812 l 155 334 l 285 334 l 285 812 l 406 812 l 406 916 l 37 916 m 517 334 l 548 667 q 552 705 551 692 q 560 670 557 681 l 642 353 l 761 357 l 848 666 q 860 713 852 682 q 861 690 860 707 q 863 669 863 675 l 891 334 l 1013 334 l 945 916 l 807 916 l 718 566 q 709 532 712 544 q 704 560 707 553 l 614 916 l 472 916 l 403 334 l 517 334 z "},"²":{"ha":496,"x_min":26,"x_max":442,"o":"m 442 366 l 442 495 l 262 495 l 277 513 q 319 559 289 528 q 420 697 401 644 q 433 757 433 727 q 343 906 433 854 q 229 936 290 936 q 39 841 107 936 q 26 821 31 830 l 123 760 q 208 812 160 811 q 277 770 263 812 q 279 751 279 761 q 218 637 279 707 q 194 610 210 629 q 163 576 174 589 l 43 441 l 43 366 l 442 366 z "},"u":{"ha":723,"x_min":76,"x_max":712,"o":"m 636 -20 q 712 -11 675 -20 l 707 118 q 688 117 699 117 q 642 160 647 117 q 640 180 640 170 l 640 678 l 464 678 l 464 332 q 380 127 464 163 q 340 119 361 119 q 252 239 254 122 l 252 678 l 76 678 l 76 218 q 209 -4 76 39 q 290 -16 247 -16 q 465 71 392 -16 q 494 110 481 90 q 636 -20 507 -19 z "},"ú":{"ha":723,"x_min":76,"x_max":712,"o":"m 636 -20 q 712 -11 675 -20 l 707 118 q 688 117 699 117 q 642 160 647 117 q 640 180 640 170 l 640 678 l 464 678 l 464 332 q 380 127 464 163 q 340 119 361 119 q 252 239 254 122 l 252 678 l 76 678 l 76 218 q 209 -4 76 39 q 290 -16 247 -16 q 465 71 392 -16 q 494 110 481 90 q 636 -20 507 -19 m 593 907 l 507 1035 l 248 853 l 316 749 l 593 907 z "},"û":{"ha":723,"x_min":76,"x_max":712,"o":"m 636 -20 q 712 -11 675 -20 l 707 118 q 688 117 699 117 q 642 160 647 117 q 640 180 640 170 l 640 678 l 464 678 l 464 332 q 380 127 464 163 q 340 119 361 119 q 252 239 254 122 l 252 678 l 76 678 l 76 218 q 209 -4 76 39 q 290 -16 247 -16 q 465 71 392 -16 q 494 110 481 90 q 636 -20 507 -19 m 372 1009 l 146 842 l 217 754 l 368 856 l 518 751 l 594 842 l 372 1009 z "},"ü":{"ha":723,"x_min":76,"x_max":712,"o":"m 636 -20 q 712 -11 675 -20 l 707 118 q 688 117 699 117 q 642 160 647 117 q 640 180 640 170 l 640 678 l 464 678 l 464 332 q 380 127 464 163 q 340 119 361 119 q 252 239 254 122 l 252 678 l 76 678 l 76 218 q 209 -4 76 39 q 290 -16 247 -16 q 465 71 392 -16 q 494 110 481 90 q 636 -20 507 -19 m 316 876 q 256 968 316 948 q 225 974 240 974 q 141 921 164 974 q 133 876 133 901 q 193 780 133 800 q 224 774 209 774 q 305 825 281 774 q 316 876 316 848 m 597 876 q 537 968 597 948 q 505 974 521 974 q 423 924 446 974 q 414 876 414 902 q 473 780 414 800 q 503 774 488 774 q 587 826 563 774 q 597 876 597 849 z "},"ù":{"ha":723,"x_min":76,"x_max":712,"o":"m 636 -20 q 712 -11 675 -20 l 707 118 q 688 117 699 117 q 642 160 647 117 q 640 180 640 170 l 640 678 l 464 678 l 464 332 q 380 127 464 163 q 340 119 361 119 q 252 239 254 122 l 252 678 l 76 678 l 76 218 q 209 -4 76 39 q 290 -16 247 -16 q 465 71 392 -16 q 494 110 481 90 q 636 -20 507 -19 m 182 907 l 267 1035 l 526 853 l 458 749 l 182 907 z "},"ű":{"ha":715,"x_min":76,"x_max":731,"o":"m 636 -20 q 712 -11 675 -20 l 707 118 q 688 117 699 117 q 642 160 647 117 q 640 180 640 170 l 640 678 l 464 678 l 464 332 q 380 127 464 163 q 340 119 361 119 q 252 239 254 122 l 252 678 l 76 678 l 76 218 q 209 -4 76 39 q 290 -16 247 -16 q 465 71 392 -16 q 494 110 481 90 q 636 -20 507 -19 m 441 921 l 351 1029 l 123 836 l 195 749 l 441 921 m 731 921 l 642 1029 l 414 836 l 486 749 l 731 921 z "},"ū":{"ha":723,"x_min":76,"x_max":712,"o":"m 636 -20 q 712 -11 675 -20 l 707 118 q 688 117 699 117 q 642 160 647 117 q 640 180 640 170 l 640 678 l 464 678 l 464 332 q 380 127 464 163 q 340 119 361 119 q 252 239 254 122 l 252 678 l 76 678 l 76 218 q 209 -4 76 39 q 290 -16 247 -16 q 465 71 392 -16 q 494 110 481 90 q 636 -20 507 -19 m 175 941 l 175 806 l 555 806 l 555 941 l 175 941 z "},"_":{"ha":678,"x_min":-1,"x_max":680,"o":"m -1 -136 l -1 -271 l 680 -271 l 680 -136 l -1 -136 z "}," ":{"ha":258,"x_min":0,"x_max":0,"o":""},"­":{"ha":814,"x_min":54,"x_max":395,"o":"m 54 434 l 54 298 l 395 298 l 395 434 l 54 434 z "},"µ":{"ha":814,"x_min":76,"x_max":712,"o":"m 252 -271 l 247 4 q 317 -16 282 -16 q 475 81 406 -16 q 494 110 486 95 q 636 -20 507 -19 q 712 -11 675 -20 l 707 118 q 688 117 699 117 q 642 160 647 117 q 640 180 640 170 l 640 678 l 464 678 l 464 332 q 380 127 464 163 q 340 119 361 119 q 252 239 254 122 l 252 678 l 76 678 l 76 -271 l 252 -271 z "},"Ģ":{"ha":792,"x_min":41,"x_max":735,"o":"m 734 53 l 734 480 l 407 480 l 407 331 l 555 331 l 555 155 q 445 136 494 136 q 236 369 263 136 q 231 456 231 410 q 359 770 231 720 q 418 781 387 781 q 566 656 522 779 l 735 697 q 541 917 690 863 q 419 937 486 937 q 141 802 245 937 q 41 454 41 670 q 225 30 41 140 q 423 -20 309 -20 q 734 53 582 -19 m 495 -189 q 434 -87 495 -111 q 397 -80 415 -80 q 313 -132 339 -80 q 302 -183 304 -155 q 354 -264 302 -241 q 369 -270 362 -269 q 307 -406 359 -315 q 305 -410 305 -408 l 363 -446 q 491 -227 468 -336 q 495 -189 495 -206 z "},"ģ":{"ha":682,"x_min":27,"x_max":669,"o":"m 326 313 q 235 382 256 313 q 228 433 228 406 q 298 552 228 534 q 323 555 311 555 q 414 484 393 555 q 420 434 420 461 q 351 316 420 335 q 326 313 339 313 m 326 690 q 95 582 168 690 q 52 430 52 517 q 127 248 53 320 q 57 118 58 195 q 118 3 58 47 q 27 -134 28 -61 q 151 -270 27 -228 q 300 -292 217 -292 q 610 -180 517 -292 q 655 -62 655 -126 q 556 87 655 39 q 406 115 494 117 l 274 113 q 197 153 198 113 q 222 194 198 175 q 326 178 270 178 q 551 281 476 178 q 597 433 597 346 q 563 559 595 502 l 669 555 l 669 689 l 408 678 q 326 690 369 690 m 324 -155 q 190 -88 194 -151 q 225 -31 191 -60 l 245 -31 l 381 -28 q 484 -77 483 -27 q 406 -145 484 -125 q 324 -155 369 -155 m 228 872 q 288 772 228 796 q 326 764 307 764 q 408 814 382 764 q 420 867 420 838 q 370 948 420 926 q 354 954 362 952 q 414 1086 365 998 q 418 1093 416 1090 l 359 1130 q 233 914 258 1024 q 228 872 228 891 z "},"Ķ":{"ha":757,"x_min":81,"x_max":757,"o":"m 750 122 q 673 165 696 119 l 525 486 l 739 916 l 560 916 l 389 553 l 260 553 l 260 916 l 81 916 l 81 0 l 260 0 l 260 404 l 382 404 l 517 96 q 678 -20 568 -19 q 757 -9 712 -20 l 750 122 m 487 -189 q 426 -87 487 -111 q 389 -80 407 -80 q 305 -132 331 -80 q 294 -183 296 -155 q 346 -264 294 -241 q 361 -270 354 -269 q 298 -406 351 -315 q 297 -410 297 -408 l 355 -446 q 483 -227 460 -336 q 487 -189 487 -206 z "},"ķ":{"ha":689,"x_min":81,"x_max":689,"o":"m 620 -20 q 689 -12 651 -20 l 682 117 q 662 115 671 115 q 609 151 629 118 l 480 377 l 663 678 l 490 678 l 363 460 l 258 458 l 258 983 l 81 983 l 81 0 l 258 0 l 258 317 l 342 317 l 465 90 q 564 -12 510 7 q 620 -20 590 -20 m 468 -189 q 407 -87 468 -111 q 370 -80 388 -80 q 286 -132 312 -80 q 275 -183 277 -155 q 327 -264 275 -241 q 342 -270 335 -269 q 279 -406 332 -315 q 278 -410 278 -408 l 336 -446 q 464 -227 441 -336 q 468 -189 468 -206 z "},"Ļ":{"ha":560,"x_min":75,"x_max":547,"o":"m 547 0 l 547 149 l 254 149 l 254 916 l 75 916 l 75 0 l 547 0 m 406 -189 q 345 -87 406 -111 q 308 -80 326 -80 q 224 -132 250 -80 q 213 -183 214 -155 q 264 -264 213 -241 q 279 -270 273 -269 q 217 -406 270 -315 q 216 -410 216 -408 l 274 -446 q 401 -227 378 -336 q 406 -189 406 -206 z "},"ļ":{"ha":382,"x_min":77,"x_max":382,"o":"m 263 -20 q 382 -3 317 -20 l 351 129 q 308 122 324 122 q 254 183 258 122 q 254 197 254 190 l 254 983 l 77 983 l 77 180 q 244 -20 77 -9 q 263 -20 254 -20 m 300 -189 q 239 -87 300 -111 q 202 -80 220 -80 q 118 -132 144 -80 q 107 -183 107 -155 q 159 -264 107 -241 q 174 -270 167 -269 q 111 -406 164 -315 q 110 -410 110 -408 l 168 -446 q 296 -227 273 -336 q 300 -189 300 -206 z "},"Ņ":{"ha":830,"x_min":81,"x_max":749,"o":"m 749 0 l 749 916 l 585 916 l 585 331 l 235 928 l 81 916 l 81 0 l 245 0 l 245 587 l 602 -14 l 749 0 m 507 -189 q 446 -87 507 -111 q 410 -80 427 -80 q 326 -132 351 -80 q 315 -183 316 -155 q 366 -264 315 -241 q 381 -270 374 -269 q 319 -406 372 -315 q 317 -410 319 -408 l 376 -446 q 503 -227 480 -336 q 507 -189 507 -206 z "},"ņ":{"ha":715,"x_min":75,"x_max":686,"o":"m 680 117 q 631 159 632 114 l 631 460 q 526 675 631 618 q 433 699 483 699 q 247 593 317 697 l 244 678 l 75 678 l 75 0 l 251 0 l 251 346 q 335 551 251 511 q 374 559 354 559 q 450 484 434 559 q 454 442 454 464 l 454 149 q 614 -19 458 -16 q 686 -11 648 -19 l 680 117 m 464 -189 q 403 -87 464 -111 q 366 -80 384 -80 q 282 -132 308 -80 q 271 -183 273 -155 q 323 -264 271 -241 q 338 -270 331 -269 q 275 -406 328 -315 q 274 -410 275 -408 l 332 -446 q 460 -227 437 -336 q 464 -189 464 -206 z "},"Ŗ":{"ha":732,"x_min":88,"x_max":712,"o":"m 267 0 l 267 345 l 357 345 l 472 96 q 613 -18 521 -8 q 635 -19 624 -19 q 712 -9 677 -19 l 705 122 q 686 121 697 121 q 632 157 650 122 l 522 381 q 674 585 647 442 q 681 650 681 617 q 496 901 681 844 q 347 921 430 921 q 88 916 241 921 l 88 0 l 267 0 m 353 772 q 496 662 483 772 q 498 631 498 647 q 425 505 498 536 q 365 494 397 494 l 267 494 l 267 769 q 353 772 324 772 m 473 -189 q 414 -88 473 -113 q 376 -80 395 -80 q 293 -130 319 -80 q 281 -183 281 -155 q 331 -264 281 -243 q 347 -270 339 -269 q 288 -403 336 -315 q 283 -410 285 -407 l 342 -446 q 468 -231 444 -340 q 473 -189 473 -208 z "},"ŗ":{"ha":461,"x_min":77,"x_max":465,"o":"m 254 0 l 254 345 q 331 522 254 483 q 381 534 355 534 q 446 519 411 534 l 465 697 q 433 699 453 699 q 248 570 305 697 l 243 685 l 77 685 l 77 0 l 254 0 m 274 -189 q 213 -87 274 -111 q 176 -80 194 -80 q 92 -132 118 -80 q 81 -183 81 -155 q 133 -264 81 -241 q 148 -270 141 -269 q 85 -406 138 -315 q 84 -410 84 -408 l 142 -446 q 270 -227 247 -336 q 274 -189 274 -206 z "},"Ş":{"ha":674,"x_min":47,"x_max":628,"o":"m 274 -298 q 457 -218 403 -298 q 479 -148 479 -186 q 401 -26 479 -71 q 385 -16 393 -20 q 593 121 529 7 q 628 267 628 186 q 494 490 628 412 q 357 552 473 502 q 244 639 263 593 q 237 674 237 656 q 304 777 237 751 q 349 785 326 785 q 481 715 433 785 q 491 701 487 708 l 623 772 q 445 924 579 888 q 354 936 400 936 q 132 849 218 936 q 58 663 58 774 q 191 433 58 511 q 327 369 213 419 q 439 283 420 328 q 446 245 446 264 q 382 145 446 172 q 331 136 358 136 q 115 201 217 137 l 47 75 q 266 -16 149 1 q 346 -106 345 -53 q 252 -172 343 -171 q 203 -168 228 -172 l 201 -290 q 274 -298 237 -298 z "},"ş":{"ha":549,"x_min":23,"x_max":511,"o":"m 213 -298 q 396 -218 342 -298 q 418 -148 418 -186 q 334 -20 418 -68 q 320 -14 327 -16 q 490 107 444 9 q 510 202 510 151 q 395 378 510 316 q 328 411 373 391 q 232 471 248 446 q 222 500 222 486 q 277 564 222 553 q 297 567 288 567 q 393 518 358 567 q 400 507 397 511 l 511 574 q 323 697 461 684 q 290 699 307 699 q 102 627 174 699 q 47 498 47 571 q 161 313 47 377 q 229 281 184 301 q 326 221 308 247 q 335 189 335 205 q 260 117 335 123 q 245 115 252 115 q 87 164 160 117 l 23 61 q 208 -18 103 -4 q 285 -106 282 -56 q 191 -172 282 -171 q 142 -168 167 -172 l 140 -290 q 213 -298 176 -298 z "},"Ţ":{"ha":574,"x_min":7,"x_max":567,"o":"m 236 -297 q 420 -213 368 -297 q 442 -140 442 -178 q 388 -16 442 -76 q 373 0 380 -8 l 373 766 l 567 766 l 567 916 l 7 916 l 7 766 l 194 766 l 194 0 q 312 -96 302 -34 q 313 -106 313 -102 q 258 -165 313 -149 q 210 -172 236 -172 q 167 -168 190 -172 l 164 -290 q 236 -297 208 -297 z "},"ţ":{"ha":484,"x_min":34,"x_max":484,"o":"m 232 -298 q 406 -231 347 -298 q 437 -149 437 -194 q 347 -18 435 -71 q 484 39 418 -5 l 437 145 q 365 122 393 122 q 296 220 297 125 l 296 549 l 435 549 l 435 678 l 296 678 l 296 861 l 119 861 l 119 678 l 34 678 l 34 549 l 119 549 l 119 205 q 227 -5 121 39 q 304 -106 300 -53 q 209 -172 301 -171 q 161 -168 184 -172 l 159 -290 q 232 -298 195 -298 z "},"Ș":{"ha":666,"x_min":47,"x_max":628,"o":"m 628 267 q 494 490 628 412 q 357 552 473 502 q 244 639 263 593 q 237 674 237 656 q 304 777 237 751 q 349 785 326 785 q 481 715 433 785 q 491 701 487 708 l 623 772 q 445 924 579 888 q 354 936 400 936 q 132 849 218 936 q 58 663 58 774 q 191 433 58 511 q 327 369 213 419 q 439 283 420 328 q 446 245 446 264 q 382 145 446 172 q 331 136 358 136 q 115 201 217 137 l 47 75 q 328 -20 178 -20 q 567 83 481 -20 q 628 267 628 159 m 446 -189 q 385 -87 446 -111 q 349 -80 366 -80 q 264 -132 290 -80 q 254 -183 255 -155 q 305 -264 254 -241 q 320 -270 313 -269 q 258 -406 311 -315 q 256 -410 258 -408 l 315 -446 q 442 -227 419 -336 q 446 -189 446 -206 z "},"ș":{"ha":549,"x_min":23,"x_max":511,"o":"m 510 202 q 395 378 510 316 q 328 411 373 391 q 232 471 248 446 q 222 500 222 486 q 277 564 222 553 q 297 567 288 567 q 393 518 358 567 q 400 507 397 511 l 511 574 q 323 697 461 684 q 290 699 307 699 q 102 627 174 699 q 47 498 47 571 q 161 313 47 377 q 229 281 184 301 q 326 221 308 247 q 335 189 335 205 q 260 117 335 123 q 245 115 252 115 q 87 164 160 117 l 23 61 q 255 -20 123 -20 q 461 64 389 -20 q 510 202 510 122 m 381 -189 q 320 -87 381 -111 q 283 -80 301 -80 q 199 -132 225 -80 q 189 -183 190 -155 q 240 -264 189 -241 q 255 -270 248 -269 q 193 -406 245 -315 q 191 -410 191 -408 l 250 -446 q 377 -227 354 -336 q 381 -189 381 -206 z "},"Ț":{"ha":574,"x_min":7,"x_max":567,"o":"m 7 916 l 7 766 l 194 766 l 194 0 l 373 0 l 373 766 l 567 766 l 567 916 l 7 916 m 378 -189 q 317 -87 378 -111 q 281 -80 298 -80 q 197 -132 222 -80 q 186 -183 187 -155 q 237 -264 186 -241 q 252 -270 245 -269 q 190 -406 243 -315 q 189 -410 189 -408 l 247 -446 q 374 -227 351 -336 q 378 -189 378 -206 z "},"ț":{"ha":484,"x_min":34,"x_max":484,"o":"m 484 39 l 437 145 q 365 122 393 122 q 296 220 297 125 l 296 549 l 435 549 l 435 678 l 296 678 l 296 861 l 119 861 l 119 678 l 34 678 l 34 549 l 119 549 l 119 205 q 281 -19 119 -3 q 308 -20 294 -20 q 484 39 396 -19 m 369 -189 q 308 -87 369 -111 q 271 -80 289 -80 q 187 -132 213 -80 q 176 -183 178 -155 q 228 -264 176 -241 q 243 -270 236 -269 q 180 -406 233 -315 q 179 -410 179 -408 l 237 -446 q 365 -227 342 -336 q 369 -189 369 -206 z "},"ˉ":{"ha":515,"x_min":68,"x_max":448,"o":"m 68 941 l 68 806 l 448 806 l 448 941 l 68 941 z "},"₺":{"ha":834,"x_min":27,"x_max":781,"o":"m 781 426 l 604 426 q 452 161 597 210 q 368 148 412 148 l 297 148 l 297 327 l 500 401 l 500 528 l 297 453 l 297 532 l 500 606 l 500 732 l 297 658 l 297 916 l 118 916 l 118 593 l 27 559 l 27 433 l 118 467 l 118 388 l 27 354 l 27 228 l 118 262 l 118 0 l 119 0 l 121 0 l 122 0 l 123 0 l 125 0 l 126 0 l 127 0 l 129 0 l 130 0 l 132 0 l 133 0 l 134 0 l 136 0 l 137 0 l 138 0 l 140 0 l 141 0 l 142 0 l 144 0 l 145 0 l 146 0 l 148 0 l 149 0 l 151 0 l 152 0 l 153 0 l 155 0 l 156 0 l 157 0 l 159 0 l 160 -1 l 161 -1 l 163 -1 l 164 -1 l 165 -1 l 167 -1 l 168 -1 l 170 -1 l 171 -1 l 172 -1 l 174 -1 l 175 -1 l 176 -1 l 178 -1 l 179 -1 l 180 -1 l 182 -1 l 183 -1 l 184 -1 l 186 -1 l 187 -1 l 189 -1 l 190 -1 l 191 -1 l 193 -1 l 194 -1 l 195 -1 l 197 -1 l 198 -1 l 199 -1 l 201 -1 l 202 -1 l 203 -1 l 205 -1 l 206 -1 l 208 -1 l 209 -1 l 210 -1 l 212 -1 l 213 -1 l 214 -1 l 216 -1 l 217 -1 l 218 -1 l 220 -1 l 221 -1 l 222 -1 l 224 -1 l 225 -1 l 227 -1 l 228 -1 l 229 -1 l 231 -1 l 232 -1 l 233 -1 l 235 -1 l 236 -1 l 237 -1 l 239 -1 l 240 -1 l 241 -1 l 243 -3 l 244 -3 l 245 -3 l 247 -3 l 248 -3 l 251 -3 l 252 -3 l 254 -3 l 255 -3 l 256 -3 l 258 -3 l 259 -3 l 260 -3 l 262 -3 l 263 -3 l 264 -3 l 266 -3 l 267 -3 l 269 -3 l 270 -3 l 271 -3 l 273 -3 l 274 -3 l 275 -3 l 277 -3 l 278 -3 l 279 -3 l 281 -3 l 282 -3 l 283 -3 l 285 -3 l 286 -3 l 288 -3 l 289 -3 l 290 -3 l 292 -3 l 293 -3 l 294 -3 l 296 -3 l 297 -3 l 298 -3 l 300 -3 l 301 -3 l 302 -3 l 304 -3 l 305 -3 l 307 -3 l 308 -3 l 309 -3 l 311 -3 l 312 -3 l 313 -3 l 315 -3 l 316 -3 l 317 -3 l 319 -3 l 320 -3 l 321 -3 l 323 -3 l 324 -3 l 326 -4 l 327 -4 l 328 -4 l 330 -4 l 331 -4 l 332 -4 l 334 -4 l 335 -4 l 336 -4 l 338 -4 l 339 -4 l 340 -4 l 342 -4 l 343 -4 l 345 -4 l 346 -4 l 347 -4 l 349 -4 l 350 -4 l 351 -4 l 353 -4 l 354 -4 l 355 -4 l 357 -4 l 358 -4 l 359 -4 l 361 -4 l 362 -4 l 363 -4 l 365 -4 l 366 -4 q 732 205 633 -9 q 781 426 776 300 z "},"₽":{"ha":754,"x_min":41,"x_max":715,"o":"m 391 772 q 532 620 530 769 q 448 479 532 505 q 403 472 426 472 l 305 472 l 305 769 q 391 772 362 772 m 522 145 l 522 273 l 305 273 l 305 345 l 389 345 q 675 484 593 345 q 715 639 715 553 q 574 879 715 804 q 388 921 492 921 q 126 916 279 921 l 126 472 l 41 472 l 41 345 l 126 345 l 126 273 l 41 273 l 41 145 l 126 145 l 126 0 l 305 0 l 305 145 l 522 145 z "},"ℓ":{"ha":612,"x_min":20,"x_max":606,"o":"m 583 825 q 477 1017 583 968 q 377 1038 433 1038 q 178 894 228 1038 q 157 749 157 830 l 159 358 q 20 255 91 300 l 84 142 q 160 193 123 165 q 260 14 161 73 q 384 -20 316 -20 q 598 85 513 -20 q 606 95 604 91 l 526 187 q 415 129 468 130 q 340 203 354 129 q 336 243 336 222 l 336 338 q 576 749 538 538 q 583 825 583 788 m 334 772 q 389 886 335 884 q 437 812 435 883 q 335 551 435 697 l 334 772 z "},"Ω":{"ha":901,"x_min":47,"x_max":853,"o":"m 408 0 l 408 138 q 273 319 313 172 q 252 468 252 391 q 336 732 252 650 q 452 780 384 780 q 621 632 572 780 q 646 471 646 560 q 572 203 646 305 q 492 138 536 157 l 492 0 l 853 0 l 853 149 l 673 149 q 834 509 829 293 q 724 821 834 700 q 452 936 618 936 q 144 776 252 936 q 64 499 64 656 q 220 149 65 281 l 47 149 l 47 0 l 408 0 z "},"∆":{"ha":872,"x_min":15,"x_max":857,"o":"m 857 0 l 541 921 l 338 921 l 15 0 l 857 0 m 631 142 l 239 142 l 437 750 l 631 142 z "},"∕":{"ha":781,"x_min":27,"x_max":754,"o":"m 191 -15 l 27 -14 l 593 997 l 754 997 l 191 -15 z "},"∙":{"ha":469,"x_min":61,"x_max":408,"o":"m 408 399 q 335 545 408 492 q 235 578 292 578 q 91 502 142 578 q 61 399 61 456 q 134 252 61 305 q 235 220 179 220 q 378 296 327 220 q 408 399 408 342 z "},"ų":{"ha":741,"x_min":76,"x_max":727,"o":"m 727 -275 l 719 -159 q 667 -167 692 -167 q 595 -121 602 -167 q 594 -111 594 -115 q 712 -8 597 -43 l 707 118 q 688 117 699 117 q 642 160 647 117 q 640 180 640 170 l 640 678 l 464 678 l 464 332 q 380 127 464 163 q 340 119 361 119 q 252 239 254 122 l 252 678 l 76 678 l 76 218 q 209 -4 76 39 q 290 -16 247 -16 q 465 71 392 -16 q 494 110 481 90 q 566 -7 505 24 q 449 -141 465 -60 q 446 -165 446 -155 q 526 -274 446 -241 q 623 -292 568 -292 q 727 -275 675 -292 z "},"ů":{"ha":723,"x_min":76,"x_max":712,"o":"m 636 -20 q 712 -11 675 -20 l 707 118 q 688 117 699 117 q 642 160 647 117 q 640 180 640 170 l 640 678 l 464 678 l 464 332 q 380 127 464 163 q 340 119 361 119 q 252 239 254 122 l 252 678 l 76 678 l 76 218 q 209 -4 76 39 q 290 -16 247 -16 q 465 71 392 -16 q 494 110 481 90 q 636 -20 507 -19 m 528 883 q 442 1028 528 987 q 368 1046 407 1046 q 233 981 282 1046 q 202 880 202 937 q 286 731 202 774 q 361 713 321 713 q 496 780 448 713 q 528 883 528 825 m 307 880 q 349 944 307 932 q 365 947 358 947 q 419 907 406 947 q 423 880 423 894 q 381 817 423 829 q 365 814 372 814 q 311 853 324 814 q 307 880 307 867 z "},"v":{"ha":652,"x_min":1,"x_max":650,"o":"m 412 0 l 650 678 l 477 678 l 328 233 l 182 678 l 1 678 l 237 0 l 412 0 z "},"ඃ":{"ha":355,"x_min":30,"x_max":326,"o":"m 140 191 q 165 156 140 165 q 178 153 172 153 q 214 179 205 153 q 217 191 217 186 q 190 228 217 218 q 178 231 183 231 q 142 203 152 231 q 140 191 140 197 m 30 191 q 95 313 30 270 q 178 339 133 339 q 300 274 256 339 q 326 191 326 236 q 260 69 326 113 q 178 43 222 43 q 56 109 99 43 q 30 191 30 146 m 140 567 q 165 532 140 541 q 178 529 172 529 q 214 555 205 529 q 217 567 217 562 q 190 604 217 594 q 178 606 183 606 q 142 579 152 606 q 140 567 140 572 m 30 567 q 95 689 30 646 q 178 715 133 715 q 300 650 256 715 q 326 567 326 612 q 260 445 326 488 q 178 419 222 419 q 56 484 99 419 q 30 567 30 522 z "},"w":{"ha":977,"x_min":5,"x_max":970,"o":"m 357 0 l 488 425 l 608 0 l 751 0 l 970 678 l 812 678 l 690 251 l 579 655 l 419 648 l 297 250 l 184 678 l 5 678 l 213 0 l 357 0 z "},"x":{"ha":629,"x_min":3,"x_max":629,"o":"m 623 114 q 608 113 616 113 q 549 145 570 114 l 408 363 l 623 678 l 448 678 l 331 491 l 221 678 l 27 678 l 233 350 l 3 0 l 182 0 l 316 216 l 389 92 q 525 -18 448 -5 q 556 -20 540 -20 q 629 -12 593 -20 l 623 114 z "},"y":{"ha":624,"x_min":-37,"x_max":633,"o":"m 461 678 l 324 205 l 175 678 l -3 678 l 237 -1 q 157 -138 197 -117 q 117 -149 140 -149 q 15 -123 83 -149 l -37 -251 q 127 -292 57 -292 q 372 -66 293 -289 l 633 678 l 461 678 z "},"ý":{"ha":624,"x_min":-37,"x_max":633,"o":"m 461 678 l 324 205 l 175 678 l -3 678 l 237 -1 q 157 -138 197 -117 q 117 -149 140 -149 q 15 -123 83 -149 l -37 -251 q 127 -292 57 -292 q 372 -66 293 -289 l 633 678 l 461 678 m 533 907 l 448 1035 l 189 853 l 256 749 l 533 907 z "},"ÿ":{"ha":624,"x_min":-37,"x_max":633,"o":"m 461 678 l 324 205 l 175 678 l -3 678 l 237 -1 q 157 -138 197 -117 q 117 -149 140 -149 q 15 -123 83 -149 l -37 -251 q 127 -292 57 -292 q 372 -66 293 -289 l 633 678 l 461 678 m 256 876 q 197 968 256 948 q 165 974 180 974 q 81 921 104 974 q 73 876 73 901 q 133 780 73 800 q 164 774 148 774 q 245 825 221 774 q 256 876 256 848 m 537 876 q 477 968 537 948 q 445 974 461 974 q 363 924 387 974 q 354 876 354 902 q 414 780 354 800 q 444 774 429 774 q 528 826 503 774 q 537 876 537 849 z "},"¥":{"ha":770,"x_min":16,"x_max":754,"o":"m 670 151 l 670 273 l 472 273 l 472 343 l 670 343 l 670 465 l 532 465 l 754 916 l 563 916 l 445 648 q 387 498 433 621 q 327 648 342 616 l 208 916 l 16 916 l 235 465 l 96 465 l 96 343 l 293 343 l 293 273 l 96 273 l 96 151 l 293 151 l 293 0 l 472 0 l 472 151 l 670 151 z "},"z":{"ha":575,"x_min":41,"x_max":532,"o":"m 241 126 l 525 586 l 525 678 l 49 678 l 49 553 l 317 553 l 41 88 l 41 0 l 532 0 l 532 126 l 241 126 z "},"ź":{"ha":575,"x_min":41,"x_max":532,"o":"m 241 126 l 525 586 l 525 678 l 49 678 l 49 553 l 317 553 l 41 88 l 41 0 l 532 0 l 532 126 l 241 126 m 532 907 l 446 1035 l 187 853 l 255 749 l 532 907 z "},"ž":{"ha":575,"x_min":41,"x_max":532,"o":"m 241 126 l 525 586 l 525 678 l 49 678 l 49 553 l 317 553 l 41 88 l 41 0 l 532 0 l 532 126 l 241 126 m 302 749 l 529 925 l 461 1010 l 308 902 l 152 1013 l 77 925 l 302 749 z "},"ż":{"ha":575,"x_min":41,"x_max":532,"o":"m 241 126 l 525 586 l 525 678 l 49 678 l 49 553 l 317 553 l 41 88 l 41 0 l 532 0 l 532 126 l 241 126 m 302 761 q 399 818 369 761 q 412 879 412 845 q 346 985 412 959 q 304 993 326 993 q 208 937 236 993 q 195 879 195 910 q 262 769 195 795 q 302 761 282 761 z "},"‍":{"ha":0,"x_min":-256,"x_max":250,"o":"m -68 1 l 68 1 l 68 742 l 176 663 l 250 764 l 104 869 l 237 968 l 161 1063 l -1 947 l -163 1063 l -245 968 l -109 869 l -256 764 l -170 663 l -68 739 l -68 1 z "},"‌":{"ha":0,"x_min":-81,"x_max":68,"o":"m -81 -1 l -81 994 l 68 994 l 68 -1 l -81 -1 z "}}}
